<svg width="60" height="12" viewBox="0 0 60 12" fill="none" xmlns="http://www.w3.org/2000/svg">
<path d="M8.66338 0C8.66338 2.26463 8.66338 3.9631 8.66338 5.09542C8.66667 5.10126 7.8487 6.12535 7.84973 7.69689C7.85042 8.74458 8.12164 9.61603 8.66338 10.3112C8.66338 11.0419 8.71289 11.5778 8.72939 11.7564H6.32014C6.30364 11.659 6.25414 11.3018 6.25414 10.977C5.8746 11.5291 5.04951 11.935 4.05941 11.935C1.74918 11.935 0 10.1813 0 7.69689C0 5.29364 1.65017 3.4912 3.9769 3.4912C5.37955 3.4912 5.99011 4.01083 6.18813 4.31935V0H8.66338ZM2.52476 7.71313C2.52476 9.04465 3.39935 9.72666 4.37295 9.72666C5.34654 9.72666 6.22113 9.04465 6.22113 7.71313C6.22113 6.36536 5.34654 5.71583 4.37295 5.71583C3.39935 5.71583 2.52476 6.36536 2.52476 7.71313ZM21.9141 3.68606H19.5049V1.33153H17.2607V2.37077C17.2607 3.11773 16.8481 3.68606 15.99 3.68606H15.5775C17.0329 4.7913 17.7606 6.10659 17.7606 7.63193C17.7606 8.45467 17.5536 9.25175 17.1397 10.0232C17.1273 10.7409 18.0693 11.9026 19.7689 11.9026C20.561 11.9026 20.9735 11.724 21.0726 11.6752V9.62923C20.924 9.6617 20.6765 9.71042 20.4125 9.71042C19.8679 9.71042 19.5049 9.5318 19.5049 8.86603V5.84574H21.7614L23.6468 11.7564H26.1881L27.9372 6.54398L29.7194 11.7564H32.2112L34.7524 3.68606H32.2937L30.924 8.47632L29.3234 3.68606H26.6666L25.0494 8.46008L23.6798 3.68606H21.9141ZM39.4719 9.72666C40.429 9.72666 41.3201 9.07713 41.3201 7.71313C41.3201 6.34912 40.429 5.71583 39.4719 5.71583C38.5313 5.71583 37.6237 6.34912 37.6237 7.71313C37.6237 9.06089 38.5313 9.72666 39.4719 9.72666ZM39.4719 3.44249C41.9307 3.44249 43.8284 5.21245 43.8284 7.71313C43.8284 10.2138 41.9307 12 39.4719 12C37.0297 12 35.1155 10.2138 35.1155 7.71313C35.1155 5.21245 37.0297 3.44249 39.4719 3.44249ZM50.33 3.68606C50.165 3.63735 49.9175 3.60487 49.6699 3.60487C49.0099 3.60487 47.9703 3.86468 47.5412 4.77402V3.68606H45.1155V11.7564H47.6237V8.23275C47.6237 6.62517 48.5313 6.0406 49.5379 6.0406C49.7855 6.0406 50.0495 6.05683 50.33 6.12179V3.68606ZM59.934 3.68606L56.7327 7.07984L60 11.7564H56.9307L55 8.91475L54.1914 9.77537V11.7564H51.6832V0H54.1914V6.39783L56.6832 3.68606H59.934ZM12.8723 9.41813C11.961 9.41813 11.2222 8.69112 11.2222 7.79432C11.2222 6.89751 11.961 6.1705 12.8723 6.1705C13.7837 6.1705 14.5225 6.89751 14.5225 7.79432C14.5225 8.69112 13.7837 9.41813 12.8723 9.41813Z" fill="white" fill-opacity="0.35"/>
</svg>
