<svg width="38" height="38" viewBox="0 0 38 38" fill="none" xmlns="http://www.w3.org/2000/svg">
<circle cx="18.8039" cy="18.8039" r="18.8039" fill="#EDE1DF"/>
<path d="M23.0957 12H13.9043C12.8544 12 12 12.8544 12 13.9043V23.0957C12 24.1456 12.8544 25 13.9043 25H23.0957C24.1456 25 25 24.1456 25 23.0957V13.9043C25 12.8544 24.1456 12 23.0957 12ZM18.5254 21.9023C16.6353 21.9023 15.0977 20.3647 15.0977 18.4746C15.0977 16.5845 16.6353 15.0469 18.5254 15.0469C20.4155 15.0469 21.9531 16.5845 21.9531 18.4746C21.9531 20.3647 20.4155 21.9023 18.5254 21.9023ZM22.334 15.8086C21.704 15.8086 21.1914 15.296 21.1914 14.666C21.1914 14.036 21.704 13.5234 22.334 13.5234C22.964 13.5234 23.4766 14.036 23.4766 14.666C23.4766 15.296 22.964 15.8086 22.334 15.8086Z" fill="#6F7682"/>
<path d="M22.334 14.2871C22.1238 14.2871 21.9531 14.4578 21.9531 14.668C21.9531 14.8781 22.1238 15.0488 22.334 15.0488C22.5442 15.0488 22.7148 14.8781 22.7148 14.668C22.7148 14.4578 22.5442 14.2871 22.334 14.2871Z" fill="#6F7682"/>
<path d="M18.5254 15.8086C17.0555 15.8086 15.8594 17.0047 15.8594 18.4746C15.8594 19.9445 17.0555 21.1406 18.5254 21.1406C19.9953 21.1406 21.1914 19.9445 21.1914 18.4746C21.1914 17.0047 19.9953 15.8086 18.5254 15.8086Z" fill="#6F7682"/>
</svg>
