<svg width="38" height="38" viewBox="0 0 38 38" fill="none" xmlns="http://www.w3.org/2000/svg">
<circle cx="18.8039" cy="18.8039" r="18.8039" fill="#6F7682"/>
<path d="M18.6248 11C15.5234 11 13 13.4774 13 16.5225C13 17.3167 13.1656 18.0751 13.4919 18.7766C14.8983 21.7979 17.5946 24.9877 18.3877 25.8933C18.4471 25.961 18.5338 26 18.6249 26C18.7161 26 18.8027 25.961 18.8621 25.8933C19.6549 24.9879 22.3513 21.7982 23.7581 18.7766C24.0846 18.0751 24.25 17.3167 24.25 16.5225C24.2497 13.4774 21.7263 11 18.6248 11ZM18.6248 19.3908C17.0137 19.3908 15.7029 18.1039 15.7029 16.5223C15.7029 14.9405 17.0137 13.6536 18.6248 13.6536C20.2358 13.6536 21.5466 14.9405 21.5466 16.5223C21.5468 18.1039 20.236 19.3908 18.6248 19.3908Z" fill="white"/>
</svg>
