<svg width="38" height="38" viewBox="0 0 38 38" fill="none" xmlns="http://www.w3.org/2000/svg">
<circle cx="18.8039" cy="18.8039" r="18.8039" fill="#6F7682"/>
<path d="M15.4923 12.2132C14.9706 11.9249 14.3581 11.9316 13.8398 12.2174L19.9145 17.8213L21.9552 15.7805L15.4923 12.2132Z" fill="white"/>
<path d="M13.2333 12.791C13.085 13.0335 13 13.311 13 13.6051V23.7262C13 24.0112 13.0775 24.2829 13.2175 24.5204L19.3263 18.4115L13.2333 12.791Z" fill="white"/>
<path d="M24.6613 17.2733L22.7147 16.1992L20.5273 18.3858L23.208 20.8581L24.6621 20.0557C25.1854 19.7657 25.4987 19.2457 25.4987 18.6641C25.4979 18.0824 25.1854 17.5625 24.6613 17.2733Z" fill="white"/>
<path d="M19.938 18.9766L13.8125 25.102C14.0783 25.2537 14.37 25.3337 14.6633 25.3337C14.9466 25.3337 15.2316 25.262 15.4924 25.1179L22.4395 21.2839L19.938 18.9766Z" fill="white"/>
</svg>
