<svg width="16" height="16" viewBox="0 0 16 16" fill="none" xmlns="http://www.w3.org/2000/svg">
<path d="M15.5753 5.49047L10.5088 0.424094C10.2353 0.150625 9.87063 0 9.48181 0C9.09303 0 8.72828 0.150563 8.45478 0.424031L0.424094 8.45475C0.150625 8.72825 0 9.09294 0 9.48175C0 9.87057 0.150625 10.2353 0.424094 10.5088L1.04884 11.1335C1.04891 11.1335 1.04894 11.1336 1.049 11.1337C1.04906 11.1337 1.04913 11.1338 1.04919 11.1338L5.24794 15.3326H4.66656C4.4825 15.3326 4.33325 15.4818 4.33325 15.6659C4.33325 15.85 4.4825 15.9992 4.66656 15.9992H6.51622C6.51666 15.9992 6.51706 15.9993 6.5175 15.9993C6.51794 15.9993 6.51834 15.9992 6.51878 15.9992L11.3329 15.9993C11.517 15.9993 11.6663 15.85 11.6663 15.666C11.6663 15.4819 11.517 15.3327 11.3329 15.3327L7.78719 15.3326L15.5753 7.54447C16.1416 6.97816 16.1416 6.05672 15.5753 5.49047ZM15.1039 7.0731L7.07316 15.1038C6.92588 15.2511 6.729 15.3323 6.51872 15.3326H6.51619C6.30597 15.3323 6.10916 15.2511 5.96194 15.1038L1.75609 10.898L9.46844 3.18556C9.5986 3.05541 9.5986 2.84434 9.46844 2.71419C9.33825 2.58403 9.12725 2.58403 8.99703 2.71422L1.28469 10.4266L0.895438 10.0374C0.747906 9.88985 0.666656 9.69253 0.666656 9.48178C0.666656 9.27103 0.747906 9.07369 0.895469 8.92613L8.92616 0.895438C9.07372 0.747907 9.27106 0.666656 9.48181 0.666656C9.69256 0.666656 9.88991 0.747906 10.0375 0.895469L11.8407 2.69866L4.12825 10.4112C3.99809 10.5413 3.99809 10.7523 4.12825 10.8826C4.19335 10.9476 4.27866 10.9802 4.36394 10.9802C4.44922 10.9802 4.53453 10.9476 4.59963 10.8825L12.3121 3.17006L15.1039 5.96181C15.4103 6.26819 15.4102 6.76672 15.1039 7.0731Z" fill="white"/>
<path d="M8.21247 9.6269C8.08231 9.49675 7.87131 9.49678 7.74106 9.6269L5.11813 12.2498C4.98797 12.38 4.98797 12.591 5.11813 12.7212C5.18322 12.7863 5.26853 12.8188 5.35381 12.8188C5.43909 12.8188 5.52441 12.7863 5.5895 12.7212L8.21244 10.0983C8.34263 9.96809 8.34263 9.75706 8.21247 9.6269Z" fill="white"/>
<path d="M7.13629 12.1172L6.06051 13.193C5.93035 13.3231 5.93035 13.5342 6.06051 13.6644C6.1256 13.7294 6.21091 13.762 6.2962 13.762C6.38154 13.762 6.46679 13.7294 6.53188 13.6644L7.60766 12.5886C7.73782 12.4584 7.73782 12.2474 7.60766 12.1172C7.47751 11.987 7.26654 11.987 7.13629 12.1172Z" fill="white"/>
<path d="M8.12675 11.1269L7.98534 11.2683C7.85515 11.3984 7.85515 11.6095 7.98531 11.7397C8.05037 11.8048 8.13571 11.8373 8.221 11.8373C8.30628 11.8373 8.39159 11.8048 8.45665 11.7397L8.59806 11.5983C8.72825 11.4681 8.72825 11.2571 8.59809 11.1269C8.468 10.9968 8.2569 10.9967 8.12675 11.1269Z" fill="white"/>
<path d="M12.7205 5.11911C12.658 5.05661 12.5732 5.02148 12.4848 5.02148C12.3964 5.02148 12.3117 5.05661 12.2491 5.11911L10.8349 6.5333C10.7724 6.59583 10.7373 6.68058 10.7373 6.76898C10.7373 6.85739 10.7724 6.94217 10.8349 7.00467L11.7777 7.94739C11.8428 8.01249 11.9281 8.04502 12.0134 8.04502C12.0988 8.04502 12.184 8.01245 12.2491 7.94739L13.6633 6.53327C13.7934 6.40311 13.7934 6.19205 13.6633 6.06189L12.7205 5.11911ZM12.0134 7.24036L11.542 6.76898L12.4848 5.8262L12.9562 6.29761L12.0134 7.24036Z" fill="white"/>
<path d="M10.0111 2.50732C10.0964 2.50732 10.1817 2.47476 10.2468 2.40963L10.3882 2.26816C10.5183 2.13798 10.5183 1.92691 10.3881 1.79679C10.2579 1.66666 10.0468 1.6667 9.91671 1.79688L9.7753 1.93835C9.64518 2.06854 9.64521 2.2796 9.7754 2.40973C9.84049 2.47482 9.92574 2.50732 10.0111 2.50732Z" fill="white"/>
<path d="M3.35035 11.1894L3.20895 11.3308C3.07879 11.461 3.07879 11.672 3.20895 11.8022C3.27404 11.8673 3.35935 11.8998 3.44463 11.8998C3.52991 11.8998 3.61523 11.8673 3.68032 11.8022L3.82173 11.6608C3.95188 11.5307 3.95188 11.3196 3.82173 11.1894C3.69154 11.0592 3.48054 11.0592 3.35035 11.1894Z" fill="white"/>
</svg>
