<svg width="192" height="300" viewBox="0 0 192 300" fill="none" xmlns="http://www.w3.org/2000/svg">
<path d="M190.168 77.1138C188.951 70.9875 187.128 64.9959 184.728 59.2274C182.321 53.4332 179.345 47.8905 175.845 42.6799C168.804 32.1695 159.761 23.1414 149.23 16.1078C138.81 9.12923 127.109 4.27484 114.799 1.82619C102.385 -0.608729 89.6148 -0.608729 77.2009 1.82619C64.891 4.27398 53.1889 9.12837 42.7702 16.1078C32.2422 23.1311 23.1989 32.1481 16.1553 42.6456C9.1564 53.035 4.28877 64.7023 1.83214 76.9765C-0.610714 89.3545 -0.610714 102.088 1.83214 114.466C4.28705 126.74 9.15554 138.408 16.1553 148.797C25.4645 162.674 38.2305 173.901 53.2027 181.377C62.2821 186.009 72.0457 189.161 82.1244 190.715C84.1343 190.896 85.6493 192.618 85.5675 194.628V221.75C85.5675 223.835 83.8718 225.526 81.7801 225.526H41.634C38.9243 225.537 36.3274 226.61 34.4035 228.513C30.5439 232.414 30.4225 238.645 34.1281 242.692L34.3347 242.863C35.3237 243.817 36.4943 244.564 37.7777 245.061C39.0112 245.572 40.3325 245.841 41.6684 245.85H81.8834C82.8897 245.846 83.8554 246.241 84.569 246.949C85.2241 247.659 85.5813 248.593 85.5675 249.558V289.691C85.5623 291.032 85.8197 292.362 86.325 293.604C86.8173 294.887 87.5679 296.055 88.5285 297.037C89.5141 297.996 90.6856 298.745 91.9716 299.235C94.4764 300.255 97.2825 300.255 99.7874 299.235C101.073 298.744 102.245 297.995 103.23 297.037C104.191 296.055 104.942 294.887 105.434 293.604C105.939 292.362 106.197 291.032 106.191 289.691V249.558C106.187 248.555 106.584 247.592 107.293 246.88C108.007 246.173 108.973 245.777 109.979 245.781H150.159C151.505 245.787 152.838 245.53 154.085 245.026C155.371 244.535 156.542 243.788 157.528 242.829C158.488 241.846 159.239 240.678 159.731 239.396C160.755 236.898 160.755 234.1 159.731 231.603C159.463 230.952 159.128 230.331 158.733 229.749L157.39 228.41C155.466 226.507 152.869 225.434 150.159 225.423H109.91C108.904 225.428 107.938 225.032 107.224 224.325C106.515 223.613 106.118 222.65 106.123 221.647V196.379V194.628C106.124 193.72 106.454 192.842 107.052 192.157C107.647 191.482 108.466 191.043 109.359 190.921C119.58 189.481 129.498 186.396 138.728 181.789C159.515 171.431 175.851 153.937 184.728 132.524C187.13 126.744 188.952 120.742 190.168 114.603C192.611 102.225 192.611 89.491 190.168 77.1138ZM170.095 110.586V110.724C161.657 151.753 121.458 178.194 80.3091 169.781C39.1601 161.367 12.6425 121.285 21.0806 80.2551C29.5187 39.2254 69.7174 12.7846 110.866 21.1982C146.395 28.4627 171.837 59.7304 171.644 95.8928C171.611 100.829 171.092 105.751 170.095 110.586Z" fill="#3A405B" fill-opacity="0.06"/>
</svg>
