<svg width="14" height="14" viewBox="0 0 14 14" fill="none" xmlns="http://www.w3.org/2000/svg">
<path d="M11.7135 0.333984H2.28638C1.20951 0.333984 0.333252 1.21025 0.333252 2.28711V11.7142C0.333252 12.7911 1.20951 13.6673 2.28638 13.6673H11.7135C12.7903 13.6673 13.6666 12.7911 13.6666 11.7142V2.28711C13.6666 1.21025 12.7903 0.333984 11.7135 0.333984ZM7.02596 10.4902C5.08738 10.4902 3.51033 8.91319 3.51033 6.97461C3.51033 5.03603 5.08738 3.45898 7.02596 3.45898C8.96454 3.45898 10.5416 5.03603 10.5416 6.97461C10.5416 8.91319 8.96454 10.4902 7.02596 10.4902ZM10.9322 4.24023C10.2861 4.24023 9.76033 3.71452 9.76033 3.06836C9.76033 2.4222 10.2861 1.89648 10.9322 1.89648C11.5784 1.89648 12.1041 2.4222 12.1041 3.06836C12.1041 3.71452 11.5784 4.24023 10.9322 4.24023Z" fill="white"/>
<path d="M10.9321 2.67773C10.7166 2.67773 10.5415 2.8528 10.5415 3.06836C10.5415 3.28392 10.7166 3.45898 10.9321 3.45898C11.1477 3.45898 11.3228 3.28392 11.3228 3.06836C11.3228 2.8528 11.1477 2.67773 10.9321 2.67773Z" fill="white"/>
<path d="M7.02588 4.24023C5.51831 4.24023 4.2915 5.46704 4.2915 6.97461C4.2915 8.48218 5.51831 9.70899 7.02588 9.70899C8.53345 9.70899 9.76025 8.48218 9.76025 6.97461C9.76025 5.46704 8.53345 4.24023 7.02588 4.24023Z" fill="white"/>
</svg>
