<svg width="20" height="20" viewBox="0 0 20 20" fill="none" xmlns="http://www.w3.org/2000/svg">
<path d="M10.4165 2.16602C7.23799 2.16602 4.66675 4.70343 4.66675 7.80208C4.66675 8.61368 4.83562 9.38411 5.16668 10.0958C6.63649 13.2534 9.41995 16.6061 10.4167 17.7555C11.4131 16.6061 14.1966 13.2535 15.6669 10.0957C15.998 9.3841 16.1667 8.61375 16.1667 7.80213L10.4165 2.16602ZM10.4165 2.16602C13.5951 2.16602 16.1664 4.70341 16.1667 7.80208L10.4165 2.16602ZM10.4165 11.4892C8.35903 11.4892 6.67 9.84406 6.67 7.80191C6.67 5.75959 8.35901 4.11448 10.4165 4.11448C12.4739 4.11448 14.1629 5.75957 14.163 7.80186L10.4165 11.4892ZM10.4165 11.4892C12.4741 11.4892 14.1631 9.84411 14.163 7.80191L10.4165 11.4892Z" fill="white" stroke="white"/>
</svg>
