<svg width="40" height="40" viewBox="0 0 40 40" fill="none" xmlns="http://www.w3.org/2000/svg">
<rect width="40" height="40" rx="8" fill="#4D5259"/>
<g clip-path="url(#clip0)">
<path d="M13.332 21.354V19.5447C13.332 19.379 13.4682 19.2434 13.635 19.2434H16.8322L15.4402 21.6557H13.635C13.4682 21.6557 13.332 21.5204 13.332 21.354ZM15.6095 25.0589L14.5892 25.7502C14.4519 25.8435 14.3548 25.7844 14.3738 25.6197L14.51 24.4369C14.5289 24.2722 14.6625 24.2049 14.807 24.2872L15.5967 24.7383C15.7409 24.821 15.7468 24.9658 15.6095 25.0589ZM15.8545 24.3922L15.0649 23.9409C14.9205 23.8585 14.8697 23.6736 14.9536 23.5298L18.6101 17.1914C18.6931 17.0474 18.8801 16.9969 19.0243 17.0804L19.814 17.5305C19.9584 17.614 20.008 17.7991 19.9252 17.9426L16.2688 24.2814C16.186 24.4252 15.9988 24.4745 15.8545 24.3922ZM18.6374 21.6557L20.0294 19.2434H20.8309L21.9612 21.6557H18.6374ZM23.171 22.3755C22.8549 22.2177 21.2806 18.6013 20.8772 17.6578C20.4734 16.7142 19.2541 14.2025 19.6485 14.0071C19.9291 13.8669 20.9364 15.8447 21.6915 17.0321C22.4455 18.2195 24.0223 21.2811 24.2163 21.6298C24.4094 21.9793 24.0306 22.2707 23.8199 22.3579C23.6091 22.4452 23.487 22.5321 23.171 22.3755ZM24.2056 24.0378L23.7299 23.2897C23.6315 23.134 23.6826 22.9418 23.8422 22.8598L24.2956 22.6276C24.4555 22.5463 24.6556 22.6123 24.7406 22.7751L25.1159 23.4937C25.2012 23.6561 25.1431 23.8648 24.9891 23.9566L24.6649 24.1497C24.511 24.2426 24.304 24.192 24.2056 24.0378ZM25.9563 26.0001C25.8569 25.6831 25.0981 25.6622 24.7584 25.1849C24.4175 24.7092 24.6992 24.4641 24.8176 24.351C26.1955 23.5783 25.9563 26.0001 25.9563 26.0001ZM26.6654 21.354C26.6654 21.5204 26.5292 21.6556 26.3624 21.6556H24.762C24.7444 21.5626 24.7158 21.4696 24.6674 21.3824C24.6257 21.3081 24.5204 21.1079 24.3737 20.8288C24.1619 20.4261 23.8577 19.85 23.532 19.2434H26.3623C26.5291 19.2434 26.6652 19.379 26.6652 19.5447V21.354H26.6654Z" fill="white"/>
</g>
<defs>
<clipPath id="clip0">
<rect x="13.332" y="13.334" width="13.3333" height="13.3333" fill="white"/>
</clipPath>
</defs>
</svg>
