<svg width="40" height="40" viewBox="0 0 40 40" fill="none" xmlns="http://www.w3.org/2000/svg">
<rect width="40" height="40" rx="8" fill="#4D5259"/>
<path d="M16.2696 13.5472C15.748 13.2589 15.1355 13.2656 14.6172 13.5514L20.6918 19.1552L22.7326 17.1145L16.2696 13.5472Z" fill="white"/>
<path d="M14.0107 14.125C13.8623 14.3675 13.7773 14.645 13.7773 14.9391V25.0602C13.7773 25.3452 13.8548 25.6168 13.9948 25.8543L20.1037 19.7455L14.0107 14.125Z" fill="white"/>
<path d="M25.4386 18.6073L23.4921 17.5332L21.3047 19.7197L23.9854 22.1921L25.4395 21.3897C25.9628 21.0997 26.2761 20.5797 26.2761 19.9981C26.2752 19.4164 25.9628 18.8965 25.4386 18.6073Z" fill="white"/>
<path d="M20.7153 20.3105L14.5898 26.436C14.8557 26.5877 15.1473 26.6677 15.4406 26.6677C15.7239 26.6677 16.0089 26.596 16.2697 26.4519L23.2169 22.6179L20.7153 20.3105Z" fill="white"/>
</svg>
