<svg width="13" height="18" viewBox="0 0 13 18" fill="none" xmlns="http://www.w3.org/2000/svg">
<path d="M6.41771 0.666016C2.97177 0.666016 0.167969 3.41866 0.167969 6.80208C0.167969 7.6846 0.351958 8.52721 0.714551 9.30672C2.27716 12.6637 5.27312 16.208 6.15432 17.2141C6.22034 17.2894 6.31659 17.3327 6.41788 17.3327C6.51917 17.3327 6.61542 17.2894 6.68144 17.2141C7.5623 16.2081 10.5583 12.664 12.1214 9.30672C12.4842 8.52721 12.668 7.6846 12.668 6.80208C12.6676 3.41866 9.86382 0.666016 6.41771 0.666016ZM6.41771 9.98916C4.62768 9.98916 3.17122 8.55928 3.17122 6.80191C3.17122 5.04436 4.62768 3.61448 6.41771 3.61448C8.20774 3.61448 9.6642 5.04436 9.6642 6.80191C9.66437 8.55928 8.20791 9.98916 6.41771 9.98916Z" fill="#4D5259"/>
</svg>
