<svg width="18" height="18" viewBox="0 0 18 18" fill="none" xmlns="http://www.w3.org/2000/svg">
<path d="M12.1833 9.41487C12.1509 9.46467 12.1509 9.51447 12.1347 9.58087C12.1185 9.79669 12.2805 9.9959 12.4911 10.0125C12.7016 10.0291 12.896 9.86309 12.9122 9.64728C12.9122 9.59748 12.9122 9.54767 12.9284 9.46467C12.9284 9.38166 12.9284 9.33186 12.9284 9.28206C12.9284 8.80063 12.8474 8.33581 12.7016 7.88758C12.5073 7.30655 12.1671 6.79193 11.7622 6.3603C11.2601 5.84568 10.6446 5.48046 9.9481 5.28124C9.62416 5.19824 9.26782 5.14844 8.92767 5.14844C8.81429 5.14844 8.70091 5.14844 8.57133 5.16504C8.45795 5.18164 8.34457 5.19824 8.23119 5.21484C8.02063 5.24804 7.87485 5.46385 7.92344 5.66307C7.95584 5.87888 8.1664 6.02829 8.36077 5.97848C8.45795 5.96188 8.53894 5.94528 8.63612 5.94528C8.65232 5.94528 8.66852 5.94528 8.68471 5.94528C8.7657 5.94528 8.84669 5.92868 8.92767 5.92868C9.81852 5.92868 10.6446 6.2939 11.2277 6.90813C11.8108 7.50576 12.1671 8.31921 12.1833 9.23226V9.26546C12.1833 9.33186 12.1833 9.38166 12.1833 9.41487Z" fill="#4D5259"/>
<path d="M14.3234 9.77902C14.3072 9.99483 14.4692 10.194 14.6797 10.2106C14.8903 10.2272 15.0847 10.0612 15.1008 9.84542C15.117 9.66281 15.117 9.4802 15.117 9.29759C15.117 8.93237 15.0847 8.58375 15.0361 8.23514C14.8255 6.90706 14.1938 5.7118 13.303 4.79875C12.2825 3.7529 10.922 3.07226 9.41561 2.95605C9.25364 2.93945 9.07547 2.93945 8.91349 2.93945C8.73532 2.93945 8.55715 2.93945 8.37898 2.95605C8.20081 2.97265 8.02264 2.98926 7.84447 3.02246C7.63391 3.05566 7.48813 3.27147 7.53673 3.47068C7.56912 3.68649 7.77968 3.8359 7.97405 3.7861C8.08743 3.7695 8.18462 3.7529 8.298 3.7363C8.34659 3.7363 8.39518 3.71969 8.44377 3.71969C8.60574 3.70309 8.76772 3.70309 8.91349 3.70309C9.4642 3.70309 9.98251 3.7861 10.4846 3.93551C11.3593 4.20112 12.1367 4.68255 12.7684 5.32998C13.2868 5.86121 13.7079 6.50864 13.9832 7.20588C14.2262 7.83671 14.372 8.53395 14.372 9.26439C14.372 9.31419 14.372 9.3806 14.372 9.4304C14.3396 9.56321 14.3234 9.66281 14.3234 9.77902Z" fill="#4D5259"/>
<path d="M14.8728 3.20595C13.334 1.62887 11.2284 0.666016 8.89598 0.666016C8.65302 0.666016 8.41006 0.682617 8.1671 0.699217C7.92414 0.715818 7.68118 0.74902 7.43822 0.798823C7.22766 0.832024 7.08188 1.04784 7.13048 1.24705C7.16287 1.46286 7.37343 1.61227 7.5678 1.56246C7.68118 1.54586 7.77837 1.52926 7.89175 1.51266C8.00513 1.49606 8.11851 1.47946 8.23189 1.47946C8.45865 1.46286 8.66922 1.44626 8.89598 1.44626C11.0016 1.44626 12.9129 2.3261 14.3059 3.73718C15.6826 5.14825 16.5411 7.10716 16.5411 9.28187C16.5411 9.39808 16.5411 9.53089 16.5411 9.64709C16.5411 9.7467 16.5249 9.84631 16.5249 9.96251C16.5087 10.1783 16.6707 10.3775 16.8812 10.3941C17.0918 10.4107 17.2862 10.2447 17.3024 10.0289C17.3186 9.7799 17.3348 9.53089 17.3348 9.29848C17.3348 6.92455 16.3953 4.76643 14.8728 3.20595Z" fill="#4D5259"/>
<path d="M16.7355 13.2654L13.8686 11.6883C12.9129 11.1571 12.8805 11.5057 11.8763 12.6013C11.6333 12.867 11.1798 13.5642 10.6453 13.4314C9.52768 13.1492 7.43823 11.4725 6.75795 10.7088C6.434 10.3436 5.04104 8.60053 5.02484 8.0361C4.99245 7.17286 6.83893 6.74124 6.23964 5.09775L4.96005 2.15939C3.76145 -0.662757 0.408619 3.85268 0.683973 5.96099C1.39665 11.1571 10.289 19.5571 15.2453 16.7848C16.3467 16.1539 17.8369 13.946 16.7355 13.2654Z" fill="#4D5259"/>
</svg>
