<svg width="16" height="16" viewBox="0 0 16 16" fill="none" xmlns="http://www.w3.org/2000/svg">
<path d="M0.5 2C0.5 1.17157 1.17157 0.5 2 0.5H14C14.8284 0.5 15.5 1.17157 15.5 2V14C15.5 14.8284 14.8284 15.5 14 15.5H2C1.17157 15.5 0.5 14.8284 0.5 14V2Z" stroke="#EDE1DF"/>
<path d="M12.0779 4.69505C11.741 4.38576 11.1335 4.31418 10.8058 4.69505C9.49563 6.21774 8.18543 7.74042 6.87523 9.26311C6.31472 8.57957 5.75422 7.89601 5.19371 7.21247C4.8941 6.8471 4.22815 6.87858 3.92165 7.21247C3.56528 7.60068 3.60204 8.09477 3.92165 8.48453C4.68906 9.4204 5.45648 10.3563 6.22388 11.2921C6.51669 11.6492 7.20168 11.6341 7.49595 11.2921C8.83341 9.73777 10.1709 8.1834 11.5083 6.62903C11.6982 6.40839 11.888 6.18775 12.0779 5.9671C12.3845 5.61076 12.4542 5.04045 12.0779 4.69505Z" fill="#E8DDDB"/>
</svg>
