<svg width="152" height="88" viewBox="0 0 152 88" fill="none" xmlns="http://www.w3.org/2000/svg">
<path fill-rule="evenodd" clip-rule="evenodd" d="M26.2548 5.58365C25.0836 6.78176 24.3755 7.84372 24.1032 8.57892C18.7923 2.56115 9.34168 2.61561 4.19422 7.32635C2.45117 8.90568 1.19835 11.0296 0.762586 13.6164C-0.953233 23.6097 10.7034 27.4764 17.8391 31.7514C28.4336 38.7495 19.0374 49.7503 7.2718 43.1335C3.18652 40.8462 2.15158 37.4969 1.28006 33.2491C1.30729 32.7317 0.871527 32.5956 0 32.8406V47.0273H1.14388C1.33453 45.448 1.98817 44.6583 3.13205 44.6856C4.60275 45.0668 6.18239 45.4752 7.78927 46.1287C13.5087 48.4433 20.5081 48.0076 24.5662 44.3043C30.0132 39.3485 28.8421 30.635 22.4691 26.7684C17.8935 23.991 13.2091 21.4858 8.63356 18.6812C3.07758 14.6239 4.82063 8.11602 11.6022 7.16297C17.8391 6.29162 22.3873 11.5742 24.8113 16.5572C25.1926 17.5103 25.4377 17.7826 25.5194 17.3741C25.247 13.5347 25.6283 9.0146 29.2779 6.86345C33.4993 4.35831 38.4561 7.57142 38.0204 13.6164C37.7208 18.1366 34.2891 23.637 30.1766 25.7881V26.1149H33.5538V42.6433C33.7717 48.3071 41.7244 48.1165 43.1951 42.1532C43.3312 41.6086 42.3235 42.1532 42.3235 42.1532C40.6077 44.7128 37.5029 44.74 37.5029 41.2546C37.4757 31.2341 37.5029 26.0604 37.5029 26.0604H42.4869C42.4869 24.9985 42.4869 24.4811 42.4869 24.4811C39.137 24.4811 37.4757 24.4811 37.4757 24.4811C37.4757 21.9487 37.4757 20.6689 37.4757 20.6689C39.0281 18.0821 40.4443 14.5967 40.4171 11.5742C40.3898 9.2052 39.5728 6.94514 37.5574 5.25689C34.3436 2.53392 29.2506 2.56115 26.2548 5.58365" fill="#4D5259"/>
<path fill-rule="evenodd" clip-rule="evenodd" d="M57.875 31.9149C57.875 31.9149 54.5523 31.9149 47.8797 31.9149C49.2142 24.0455 57.6843 24.699 57.875 31.9149ZM47.8797 33.4125C57.875 33.3036 62.8863 33.3308 62.8863 33.3308C62.3688 27.8032 59.7542 24.8351 55.0425 24.5901C41.0436 24.5084 41.3432 45.6659 52.6186 47.2997C56.8401 47.926 61.3883 45.3119 62.7773 38.9129C62.3416 38.5589 62.1237 38.3956 62.1237 38.3956C60.7347 42.4256 57.9022 44.0321 53.5991 43.188C49.6772 41.5542 47.7707 38.3139 47.8797 33.4125V33.4125Z" fill="#4D5259"/>
<path fill-rule="evenodd" clip-rule="evenodd" d="M70.9483 26.8229H78.084V40.9824C78.084 44.5222 77.0218 45.7748 74.38 45.7476C71.7109 45.7203 70.9211 44.4405 70.9211 41.2819C70.9483 36.4622 70.9483 31.6426 70.9483 26.8229ZM70.9483 6.91796C70.5671 0.709575 75.6873 0.0560614 79.0644 4.93018C78.3291 6.8635 78.1929 7.97991 78.084 11.1113V24.9985C73.3178 24.9985 70.9483 24.9985 70.9483 24.9985C70.9483 12.963 70.9483 6.91796 70.9483 6.91796ZM92.7638 2.72458C89.2232 -0.706372 85.383 -0.89698 81.2705 2.15275C79.0917 0.21944 76.5588 -0.379615 73.6446 0.355588C69.3687 1.58093 67.1354 4.68512 66.9448 9.66816V25.053H62.8867V26.8501H66.9448V43.5147C66.7541 44.9851 65.4741 45.7476 63.0774 45.7476V46.5372H86.9899C86.9899 45.9654 86.9899 45.6659 86.9899 45.6659C83.9123 45.9382 82.2782 45.1757 82.142 43.3241V26.8229H87.4529V25.0257H82.142V9.74985C81.9786 4.93018 82.6867 2.31613 84.2936 1.90768C85.9277 1.49924 87.0716 1.90768 87.698 3.13302C88.5695 5.14802 89.7134 6.12829 91.1024 6.07383C93.0089 5.71985 93.5536 4.60343 92.7638 2.72458V2.72458Z" fill="#4D5259"/>
<path fill-rule="evenodd" clip-rule="evenodd" d="M100.361 34.1204C100.416 39.4847 100.416 42.1804 100.416 42.1804C97.6923 44.386 93.9066 46.4827 92.5176 41.6903C91.2376 37.3335 96.9569 35.3458 100.361 34.1204ZM100.361 43.8142C97.0931 46.8367 91.2648 49.5869 88.6774 44.0865C87.6153 41.8264 88.4596 38.7495 91.1558 36.8706C93.1985 35.4547 96.2761 34.0115 100.307 32.5139C100.416 30.4989 100.47 27.5581 98.3459 26.5506C95.7858 25.3524 92.9534 26.7139 93.1713 29.8181C93.4436 33.9298 88.3506 33.1402 89.3311 29.1102C90.2843 25.1891 95.6224 24.4811 98.9996 24.8351C102.785 25.2163 104.419 27.0679 104.365 31.4791V39.7842C104.365 40.6828 104.229 43.5691 104.991 44.1137C105.972 44.8217 107.415 42.9973 108.014 42.371V43.7325C107.034 45.448 104.174 47.9804 102.023 47.1362C100.933 46.755 100.389 45.5025 100.361 43.8142V43.8142Z" fill="#4D5259"/>
<path fill-rule="evenodd" clip-rule="evenodd" d="M108.016 27.204C108.315 27.8031 108.451 28.1026 108.451 28.1026C108.451 28.1026 108.751 27.9392 109.35 27.7758C110.657 27.4218 111.447 28.1298 111.638 29.8181C111.638 29.8181 111.638 34.0114 111.665 42.371C111.665 44.0592 111.311 44.7672 110.657 45.339C110.085 45.8291 109.323 45.7475 108.261 45.8019V46.7005H119.073C119.073 46.7005 119.073 46.401 119.073 45.8019C117.902 45.8836 116.976 45.693 116.377 45.2573C115.805 44.8489 115.56 43.7869 115.587 42.1259C115.587 42.1259 115.587 38.2865 115.587 30.5805C116.35 29.7364 117.303 28.9467 118.392 28.2387C119.727 27.4763 121.034 27.2857 122.26 27.6669C124.602 28.4021 124.547 31.7241 124.493 33.6847C124.493 33.6847 124.547 36.8978 124.493 43.3512C124.493 45.1212 123.267 45.9381 120.98 45.8019V46.646H131.683C131.683 46.646 131.683 46.3737 131.683 45.8019C129.45 46.0742 128.388 44.9578 128.415 42.4799C128.415 42.4799 128.415 39.0489 128.442 32.1598C128.524 29.9814 128.061 27.3402 126.318 25.7881C122.777 22.6022 117.984 26.1693 115.56 29.0829C115.56 29.0829 115.56 27.5852 115.56 24.59C115.56 24.59 115.178 24.59 114.416 24.59C114.443 24.5627 112.292 25.4341 108.016 27.204" fill="#4D5259"/>
<path fill-rule="evenodd" clip-rule="evenodd" d="M145.081 25.053C145.109 25.652 145.109 25.9516 145.109 25.9516C147.424 25.9243 147.696 26.8229 146.824 29.0285C146.824 29.0285 145.218 32.8951 142.004 40.6284C142.004 40.6284 140.397 37.143 136.993 30.2539C135.876 28.021 135.222 25.9243 138.627 25.8971C138.627 25.8971 138.627 25.6248 138.627 25.0802C138.627 25.0802 135.331 25.0802 128.74 25.0802V25.9788C130.211 26.1422 131.545 27.4492 132.689 29.8999C132.689 29.8999 135.195 35.0463 140.206 45.3664C138.681 50.0227 137.074 52.4189 135.386 52.5822C135.004 52.3916 134.133 51.9832 132.717 51.7109C130.865 51.3569 129.557 52.2283 129.693 53.971C129.884 56.231 131.818 57.0479 134.596 56.2038C136.72 55.5503 138.354 53.8893 139.607 51.602C139.607 51.602 142.794 43.896 149.139 28.4839C149.739 26.8774 150.692 26.006 151.999 25.8971C151.999 25.8971 151.999 25.6248 151.999 25.053C152.026 25.053 149.711 25.053 145.081 25.053" fill="#4D5259"/>
<path d="M49.1378 70.7171V64.1274C49.8185 64.0959 50.4551 64.0801 51.0476 64.0801C51.7787 64.0801 52.3239 64.2251 52.6832 64.515C53.0425 64.8049 53.2221 65.2052 53.2221 65.7157C53.2221 66.428 52.9069 66.929 52.2766 67.219V67.2379C52.6359 67.3324 52.9195 67.5121 53.1275 67.7768C53.3355 68.0352 53.4395 68.3693 53.4395 68.779C53.4395 69.4219 53.2189 69.9135 52.7777 70.2538C52.3365 70.5942 51.7377 70.7644 50.9814 70.7644C50.225 70.7644 49.6105 70.7486 49.1378 70.7171ZM51.1232 67.8808H50.3007V69.6299C50.5969 69.6614 50.8522 69.6771 51.0665 69.6771C51.8733 69.6771 52.2766 69.3588 52.2766 68.7222C52.2766 68.4449 52.1758 68.2369 51.9741 68.0982C51.7724 67.9533 51.4888 67.8808 51.1232 67.8808ZM51.0287 65.1674C50.7513 65.1674 50.5087 65.1768 50.3007 65.1957V66.8692H51.0854C51.3816 66.8692 51.618 66.7935 51.7945 66.6423C51.9773 66.491 52.0686 66.2735 52.0686 65.9899C52.0686 65.7252 51.9773 65.5235 51.7945 65.3848C51.6117 65.2399 51.3564 65.1674 51.0287 65.1674ZM66.46 70.7266H62.5365V64.1085H66.3655V65.1957H63.6994V66.8408H66.0819V67.9281H63.6994V69.6393H66.46V70.7266ZM75.8596 70.7266H74.6872L77.4857 64.0896H78.5068L81.3053 70.7266H80.0668L79.3766 69.0342H76.5497L75.8596 70.7266ZM78.9323 67.947L77.9679 65.5928L76.9941 67.947H78.9323ZM94.0578 64.1085H95.2113V67.9848C95.2113 68.9365 94.9623 69.6488 94.4644 70.1215C93.9601 70.5942 93.333 70.8306 92.583 70.8306C91.7321 70.8306 91.0482 70.5816 90.5313 70.0837C90.0208 69.5857 89.7655 68.864 89.7655 67.9186V64.1085H90.9284V67.6728C90.9284 68.3283 91.0671 68.8388 91.3444 69.2044C91.6281 69.5637 92.0409 69.7433 92.583 69.7433C93.5662 69.7433 94.0578 69.0783 94.0578 67.7484V64.1085ZM105.847 65.1957H103.701V64.1085H109.156V65.1957H107.01V70.7266H105.847V65.1957ZM121.453 64.1085H122.711L120.357 67.9659V70.7266H119.194V67.9659L116.859 64.1085H118.182L119.827 66.8786L121.453 64.1085Z" fill="#4D5259"/>
<line x1="35.878" y1="79.2412" x2="35.878" y2="52.979" stroke="#4D5259" stroke-width="0.525245"/>
</svg>
