<svg width="184" height="80" viewBox="0 0 184 80" fill="none" xmlns="http://www.w3.org/2000/svg">
<path fill-rule="evenodd" clip-rule="evenodd" d="M25.9093 5.51211C24.7536 6.69445 24.0548 7.74244 23.786 8.46797C18.545 2.52938 9.21876 2.58312 4.13904 7.23188C2.41892 8.79043 1.18258 10.8864 0.752552 13.4392C-0.94069 23.301 10.5626 27.1168 17.6043 31.3356C28.0594 38.2415 18.7869 49.0976 7.17612 42.5678C3.14459 40.3106 2.12327 37.0055 1.26321 32.8135C1.29009 32.3029 0.86006 32.1686 0 32.4104V46.4105H1.12883C1.31697 44.8519 1.96201 44.0726 3.09084 44.0995C4.54219 44.4757 6.10105 44.8788 7.68678 45.5237C13.3309 47.8078 20.2383 47.3778 24.2429 43.7233C29.6183 38.8327 28.4626 30.2338 22.1734 26.4181C17.6581 23.6772 13.0353 21.205 8.51997 18.4373C3.03709 14.4334 4.7572 8.01115 11.4495 7.07065C17.6043 6.21077 22.0928 11.4238 24.4848 16.3413C24.8611 17.2818 25.103 17.5505 25.1836 17.1474C24.9149 13.3586 25.2911 8.89791 28.8926 6.77507C33.0585 4.30289 37.9501 7.47372 37.5201 13.4392C37.2245 17.8998 33.838 23.3279 29.7796 25.4507V25.7732H33.1123V42.0842C33.3273 47.6734 41.1754 47.4853 42.6267 41.6005C42.7611 41.063 41.7666 41.6005 41.7666 41.6005C40.0734 44.1264 37.0094 44.1533 37.0094 40.7137C36.9826 30.825 37.0094 25.7194 37.0094 25.7194H41.9279C41.9279 24.6715 41.9279 24.1609 41.9279 24.1609C38.6221 24.1609 36.9826 24.1609 36.9826 24.1609C36.9826 21.6619 36.9826 20.3989 36.9826 20.3989C38.5145 17.8461 39.9121 14.4066 39.8853 11.4238C39.8584 9.08601 39.0521 6.85568 37.0632 5.18965C33.8917 2.5025 28.8658 2.52938 25.9093 5.51211" fill="#556278"/>
<path fill-rule="evenodd" clip-rule="evenodd" d="M57.1129 31.4949C57.1129 31.4949 53.8339 31.4949 47.2491 31.4949C48.566 23.729 56.9247 24.374 57.1129 31.4949ZM47.2491 32.9728C57.1129 32.8653 62.0582 32.8922 62.0582 32.8922C61.5475 27.4373 58.9674 24.5083 54.3177 24.2665C40.503 24.1859 40.7986 45.065 51.9256 46.6773C56.0915 47.2953 60.58 44.7156 61.9507 38.4008C61.5207 38.0515 61.3057 37.8903 61.3057 37.8903C59.9349 41.8673 57.1397 43.4527 52.8932 42.6197C49.0229 41.0074 47.1416 37.8097 47.2491 32.9728V32.9728Z" fill="#556278"/>
<path fill-rule="evenodd" clip-rule="evenodd" d="M70.0141 26.47H77.0559V40.4431C77.0559 43.9364 76.0077 45.1725 73.4006 45.1456C70.7667 45.1188 69.9873 43.8558 69.9873 40.7387C70.0141 35.9825 70.0141 31.2262 70.0141 26.47ZM70.0141 6.82693C69.6379 0.700239 74.6907 0.0553238 78.0234 4.86531C77.2978 6.77319 77.1634 7.87492 77.0559 10.9651V24.6696C72.3524 24.6696 70.0141 24.6696 70.0141 24.6696C70.0141 12.7924 70.0141 6.82693 70.0141 6.82693ZM91.5425 2.68873C88.0485 -0.697077 84.2589 -0.885177 80.2005 2.12443C78.0503 0.216552 75.5508 -0.37462 72.675 0.35091C68.4553 1.56013 66.2514 4.62347 66.0632 9.54095V24.7233H62.0586V26.4968H66.0632V42.9422C65.8751 44.3932 64.6119 45.1456 62.2467 45.1456V45.9249H85.8446C85.8446 45.3606 85.8446 45.065 85.8446 45.065C82.8075 45.3337 81.1949 44.5813 81.0605 42.7541V26.47H86.3015V24.6964H81.0605V9.62156C80.8993 4.86531 81.5981 2.28565 83.1838 1.88258C84.7964 1.47951 85.9253 1.88258 86.5434 3.0918C87.4035 5.08029 88.5323 6.04766 89.903 5.99391C91.7844 5.64459 92.3219 4.54286 91.5425 2.68873V2.68873Z" fill="#556278"/>
<path fill-rule="evenodd" clip-rule="evenodd" d="M99.0416 33.6715C99.0954 38.9652 99.0954 41.6255 99.0954 41.6255C96.4077 43.802 92.6718 45.8711 91.3011 41.1418C90.0379 36.8423 95.682 34.8807 99.0416 33.6715ZM99.0416 43.2377C95.8164 46.2205 90.0647 48.9345 87.5114 43.5065C86.4632 41.2761 87.2964 38.2397 89.9572 36.3855C91.973 34.9882 95.0101 33.564 98.9878 32.0861C99.0954 30.0976 99.1491 27.1955 97.0527 26.2012C94.5263 25.0189 91.7311 26.3625 91.9461 29.4258C92.2149 33.4834 87.1889 32.7041 88.1565 28.7272C89.0972 24.8577 94.365 24.159 97.6978 24.5083C101.434 24.8845 103.046 26.7118 102.993 31.065V39.2608C102.993 40.1475 102.858 42.9959 103.611 43.5333C104.578 44.232 106.003 42.4316 106.594 41.8136V43.1571C105.626 44.85 102.804 47.3491 100.681 46.5161C99.606 46.1399 99.0685 44.9038 99.0416 43.2377V43.2377Z" fill="#556278"/>
<path fill-rule="evenodd" clip-rule="evenodd" d="M106.594 26.8462C106.889 27.4373 107.024 27.7329 107.024 27.7329C107.024 27.7329 107.319 27.5717 107.911 27.4105C109.201 27.0611 109.98 27.7598 110.168 29.4258C110.168 29.4258 110.168 33.564 110.195 41.8136C110.195 43.4796 109.846 44.1783 109.201 44.7426C108.636 45.2262 107.884 45.1456 106.836 45.1994V46.0861H117.506C117.506 46.0861 117.506 45.7905 117.506 45.1994C116.35 45.28 115.436 45.0919 114.845 44.6619C114.281 44.2589 114.039 43.2109 114.066 41.5717C114.066 41.5717 114.066 37.7828 114.066 30.1782C114.818 29.3452 115.759 28.5659 116.834 27.8673C118.151 27.1149 119.441 26.9268 120.65 27.303C122.962 28.0285 122.908 31.3068 122.854 33.2416C122.854 33.2416 122.908 36.4124 122.854 42.7809C122.854 44.5276 121.645 45.3337 119.387 45.1994V46.0324H129.95C129.95 46.0324 129.95 45.7637 129.95 45.1994C127.746 45.4681 126.698 44.3664 126.725 41.9211C126.725 41.9211 126.725 38.5352 126.751 31.7368C126.832 29.5871 126.375 26.9805 124.655 25.4489C121.161 22.3049 116.431 25.8251 114.039 28.7003C114.039 28.7003 114.039 27.2224 114.039 24.2665C114.039 24.2665 113.662 24.2665 112.91 24.2665C112.937 24.2396 110.813 25.0995 106.594 26.8462" fill="#556278"/>
<path fill-rule="evenodd" clip-rule="evenodd" d="M143.173 24.7233C143.2 25.3144 143.2 25.61 143.2 25.61C145.484 25.5832 145.753 26.4699 144.893 28.6465C144.893 28.6465 143.307 32.4622 140.136 40.0937C140.136 40.0937 138.55 36.6542 135.191 29.8557C134.089 27.6523 133.444 25.5832 136.803 25.5563C136.803 25.5563 136.803 25.2876 136.803 24.7501C136.803 24.7501 133.551 24.7501 127.047 24.7501V25.6369C128.498 25.7981 129.815 27.088 130.944 29.5064C130.944 29.5064 133.417 34.5851 138.362 44.7694C136.857 49.3644 135.271 51.7291 133.605 51.8903C133.229 51.7022 132.368 51.2991 130.971 51.0304C129.143 50.6811 127.853 51.541 127.988 53.2608C128.176 55.4911 130.084 56.2972 132.825 55.4642C134.922 54.8193 136.534 53.1801 137.771 50.9229C137.771 50.9229 140.915 43.3183 147.178 28.1091C147.769 26.5237 148.71 25.6638 150 25.5563C150 25.5563 150 25.2876 150 24.7233C150.027 24.7233 147.742 24.7233 143.173 24.7233" fill="#556278"/>
<path d="M73.0526 68.6004V70.9609H71.905V64.4299C72.1787 64.4299 72.4741 64.4268 72.7914 64.4206C73.1148 64.4144 73.4382 64.4113 73.7617 64.4113C74.222 64.4113 74.62 64.4704 74.9559 64.5885C75.298 64.7005 75.5624 64.8591 75.749 65.0644C75.9356 65.2634 76.0724 65.4842 76.1595 65.7268C76.2466 65.9632 76.2901 66.2244 76.2901 66.5105C76.2901 67.1014 76.0786 67.6021 75.6557 68.0127C75.2389 68.4232 74.6543 68.6284 73.9016 68.6284C73.5222 68.6284 73.2392 68.6191 73.0526 68.6004ZM73.8736 65.4842L73.0526 65.5029V67.5088C73.3823 67.5399 73.6528 67.5555 73.8643 67.5555C74.2313 67.5555 74.5236 67.4653 74.7413 67.2849C74.9653 67.1045 75.0772 66.8433 75.0772 66.5012C75.0772 65.8232 74.676 65.4842 73.8736 65.4842ZM84.4691 67.6954C84.4691 66.7438 84.7863 65.9445 85.4208 65.2976C86.0677 64.6507 86.8825 64.3273 87.8652 64.3273C88.848 64.3273 89.6597 64.6383 90.3004 65.2603C90.9472 65.8885 91.2707 66.7002 91.2707 67.6954C91.2707 68.672 90.9472 69.4775 90.3004 70.1119C89.6535 70.7463 88.8418 71.0636 87.8652 71.0636C86.8825 71.0636 86.0708 70.7526 85.4301 70.1306C84.7894 69.5086 84.4691 68.6969 84.4691 67.6954ZM85.682 67.6954C85.682 68.3548 85.8904 68.9021 86.3071 69.3375C86.7239 69.7729 87.2432 69.9906 87.8652 69.9906C88.537 69.9906 89.0688 69.7729 89.4607 69.3375C89.8587 68.9021 90.0578 68.3548 90.0578 67.6954C90.0578 67.0299 89.8463 66.4794 89.4233 66.044C89.0004 65.6148 88.481 65.4003 87.8652 65.4003C87.237 65.4003 86.7145 65.6148 86.2978 66.044C85.8873 66.4732 85.682 67.0237 85.682 67.6954ZM100.193 70.9609H100.063V64.4299H100.184C100.458 64.4299 100.747 64.4268 101.052 64.4206C101.661 64.4082 101.972 64.4019 101.985 64.4019C103.254 64.4019 104.193 64.7254 104.802 65.3723C105.368 65.9756 105.651 66.7282 105.651 67.6301C105.651 68.6004 105.325 69.4028 104.672 70.0373C104.025 70.6655 103.104 70.9796 101.91 70.9796C101.661 70.9796 101.4 70.9765 101.126 70.9703C100.859 70.964 100.548 70.9609 100.193 70.9609ZM101.966 65.4749C101.723 65.4749 101.472 65.4842 101.21 65.5029V69.888C101.496 69.9004 101.742 69.9066 101.947 69.9066C102.725 69.9066 103.334 69.7014 103.776 69.2909C104.218 68.8803 104.438 68.3268 104.438 67.6301C104.438 66.9646 104.218 66.439 103.776 66.0534C103.341 65.6677 102.737 65.4749 101.966 65.4749ZM113.957 67.6954C113.957 66.7438 114.274 65.9445 114.909 65.2976C115.556 64.6507 116.37 64.3273 117.353 64.3273C118.336 64.3273 119.148 64.6383 119.788 65.2603C120.435 65.8885 120.759 66.7002 120.759 67.6954C120.759 68.672 120.435 69.4775 119.788 70.1119C119.141 70.7463 118.33 71.0636 117.353 71.0636C116.37 71.0636 115.559 70.7526 114.918 70.1306C114.277 69.5086 113.957 68.6969 113.957 67.6954ZM115.17 67.6954C115.17 68.3548 115.378 68.9021 115.795 69.3375C116.212 69.7729 116.731 69.9906 117.353 69.9906C118.025 69.9906 118.557 69.7729 118.949 69.3375C119.347 68.9021 119.546 68.3548 119.546 67.6954C119.546 67.0299 119.334 66.4794 118.911 66.044C118.488 65.6148 117.969 65.4003 117.353 65.4003C116.725 65.4003 116.202 65.6148 115.786 66.044C115.375 66.4732 115.17 67.0237 115.17 67.6954ZM133.637 70.9609H129.551V64.4299H130.698V69.888H133.637V70.9609ZM141.368 67.6954C141.368 66.7438 141.685 65.9445 142.319 65.2976C142.966 64.6507 143.781 64.3273 144.764 64.3273C145.746 64.3273 146.558 64.6383 147.199 65.2603C147.846 65.8885 148.169 66.7002 148.169 67.6954C148.169 68.672 147.846 69.4775 147.199 70.1119C146.552 70.7463 145.74 71.0636 144.764 71.0636C143.781 71.0636 142.969 70.7526 142.329 70.1306C141.688 69.5086 141.368 68.6969 141.368 67.6954ZM142.58 67.6954C142.58 68.3548 142.789 68.9021 143.206 69.3375C143.622 69.7729 144.142 69.9906 144.764 69.9906C145.435 69.9906 145.967 69.7729 146.359 69.3375C146.757 68.9021 146.956 68.3548 146.956 67.6954C146.956 67.0299 146.745 66.4794 146.322 66.044C145.899 65.6148 145.38 65.4003 144.764 65.4003C144.136 65.4003 143.613 65.6148 143.196 66.044C142.786 66.4732 142.58 67.0237 142.58 67.6954ZM161.253 68.5165H159.676V67.4435H162.326V70.1492C162.046 70.4291 161.673 70.653 161.206 70.821C160.74 70.9827 160.298 71.0636 159.881 71.0636C158.824 71.0636 157.991 70.7588 157.381 70.1492C156.778 69.5459 156.476 68.728 156.476 67.6954C156.476 66.7376 156.775 65.9383 157.372 65.2976C157.969 64.6507 158.756 64.3273 159.732 64.3273C160.566 64.3273 161.265 64.5481 161.831 64.9897L161.346 65.9041C161.185 65.7486 160.97 65.6273 160.703 65.5402C160.435 65.4469 160.158 65.4003 159.872 65.4003C159.219 65.4003 158.693 65.6055 158.295 66.016C157.891 66.4203 157.689 66.9801 157.689 67.6954C157.689 68.3859 157.891 68.9425 158.295 69.3655C158.693 69.7822 159.228 69.9906 159.9 69.9906C160.136 69.9906 160.392 69.9471 160.665 69.86C160.939 69.7667 161.135 69.661 161.253 69.5428V68.5165ZM174.88 64.4299H176.121L173.798 68.2366V70.9609H172.65V68.2366L170.346 64.4299H171.652L173.275 67.1636L174.88 64.4299Z" fill="#556278"/>
<line x1="62.7408" y1="79.9609" x2="62.7408" y2="53.9609" stroke="#556278" stroke-width="0.518334"/>
</svg>
