<svg width="40" height="50" viewBox="0 0 26 36" fill="none" xmlns="http://www.w3.org/2000/svg">
<path d="M13 0.5C6.2275 0.5 0.75 5.9775 0.75 12.75C0.75 21.9375 13 35.5 13 35.5C13 35.5 25.25 21.9375 25.25 12.75C25.25 5.9775 19.7725 0.5 13 0.5ZM13 17.125C11.8397 17.125 10.7269 16.6641 9.90641 15.8436C9.08594 15.0231 8.625 13.9103 8.625 12.75C8.625 11.5897 9.08594 10.4769 9.90641 9.65641C10.7269 8.83594 11.8397 8.375 13 8.375C14.1603 8.375 15.2731 8.83594 16.0936 9.65641C16.9141 10.4769 17.375 11.5897 17.375 12.75C17.375 13.9103 16.9141 15.0231 16.0936 15.8436C15.2731 16.6641 14.1603 17.125 13 17.125Z" fill="#4F79CA"/>
<path d="M13 17.125C11.8397 17.125 10.7269 16.6641 9.90641 15.8436C9.08594 15.0231 8.625 13.9103 8.625 12.75C8.625 11.5897 9.08594 10.4769 9.90641 9.65641C10.7269 8.83594 11.8397 8.375 13 8.375C14.1603 8.375 15.2731 8.83594 16.0936 9.65641C16.9141 10.4769 17.375 11.5897 17.375 12.75C17.375 13.9103 16.9141 15.0231 16.0936 15.8436C15.2731 16.6641 14.1603 17.125 13 17.125Z" fill="#4F79CA"/>
<path fill-rule="evenodd" clip-rule="evenodd" d="M14.3186 8.23335C13.9866 8.61207 13.7858 8.94776 13.7086 9.18016C12.2029 7.27793 9.5235 7.29515 8.06412 8.78422C7.56994 9.28345 7.21475 9.95482 7.0912 10.7725C6.60475 13.9314 9.90958 15.1537 11.9326 16.505C14.9363 18.7171 12.2724 22.1945 8.93666 20.1029C7.77842 19.3799 7.485 18.3212 7.23791 16.9784C7.24564 16.8149 7.12209 16.7719 6.875 16.8493V21.3338H7.19931C7.25336 20.8345 7.43867 20.5849 7.76298 20.5935C8.17995 20.714 8.6278 20.8431 9.08337 21.0497C10.7049 21.7813 12.6893 21.6436 13.8399 20.473C15.3842 18.9065 15.0521 16.1521 13.2453 14.9299C11.9481 14.0519 10.62 13.2601 9.32274 12.3735C7.74754 11.091 8.24172 9.03383 10.1644 8.73258C11.9326 8.45714 13.2221 10.127 13.9094 11.7021C14.0175 12.0034 14.0869 12.0895 14.1101 11.9603C14.0329 10.7467 14.141 9.31788 15.1757 8.6379C16.3725 7.84602 17.7779 8.86169 17.6543 10.7725C17.5694 12.2013 16.5965 13.94 15.4305 14.62V14.7233H16.388V19.948C16.4497 21.7383 18.7044 21.6781 19.1214 19.793C19.16 19.6209 18.8743 19.793 18.8743 19.793C18.3879 20.6021 17.5076 20.6107 17.5076 19.509C17.4999 16.3415 17.5076 14.7061 17.5076 14.7061H18.9207C18.9207 14.3704 18.9207 14.2069 18.9207 14.2069C17.9709 14.2069 17.4999 14.2069 17.4999 14.2069C17.4999 13.4064 17.4999 13.0018 17.4999 13.0018C17.94 12.1841 18.3415 11.0824 18.3338 10.127C18.3261 9.37813 18.0944 8.66372 17.523 8.13006C16.6119 7.26932 15.168 7.27793 14.3186 8.23335Z" fill="white"/>
</svg>
