<svg width="40" height="50" viewBox="0 0 25 35" fill="none" xmlns="http://www.w3.org/2000/svg">
<path d="M12.25 0C5.4775 0 0 5.4775 0 12.25C0 21.4375 12.25 35 12.25 35C12.25 35 24.5 21.4375 24.5 12.25C24.5 5.4775 19.0225 0 12.25 0ZM12.25 16.625C11.0897 16.625 9.97688 16.1641 9.15641 15.3436C8.33594 14.5231 7.875 13.4103 7.875 12.25C7.875 11.0897 8.33594 9.97688 9.15641 9.15641C9.97688 8.33594 11.0897 7.875 12.25 7.875C13.4103 7.875 14.5231 8.33594 15.3436 9.15641C16.1641 9.97688 16.625 11.0897 16.625 12.25C16.625 13.4103 16.1641 14.5231 15.3436 15.3436C14.5231 16.1641 13.4103 16.625 12.25 16.625Z" fill="#F6AE9F"/>
<path d="M12.25 16.625C11.0897 16.625 9.97688 16.1641 9.15641 15.3436C8.33594 14.5231 7.875 13.4103 7.875 12.25C7.875 11.0897 8.33594 9.97688 9.15641 9.15641C9.97688 8.33594 11.0897 7.875 12.25 7.875C13.4103 7.875 14.5231 8.33594 15.3436 9.15641C16.1641 9.97688 16.625 11.0897 16.625 12.25C16.625 13.4103 16.1641 14.5231 15.3436 15.3436C14.5231 16.1641 13.4103 16.625 12.25 16.625Z" fill="#F6AE9F"/>
<path fill-rule="evenodd" clip-rule="evenodd" d="M13.5686 7.73335C13.2366 8.11207 13.0358 8.44776 12.9586 8.68016C11.4529 6.77793 8.7735 6.79515 7.31412 8.28422C6.81994 8.78345 6.46475 9.45482 6.3412 10.2725C5.85475 13.4314 9.15958 14.6537 11.1826 16.005C14.1863 18.2171 11.5224 21.6945 8.18666 19.6029C7.02842 18.8799 6.735 17.8212 6.48791 16.4784C6.49564 16.3149 6.37209 16.2719 6.125 16.3493V20.8338H6.44931C6.50336 20.3345 6.68867 20.0849 7.01298 20.0935C7.42995 20.214 7.8778 20.3431 8.33337 20.5497C9.9549 21.2813 11.9393 21.1436 13.0899 19.973C14.6342 18.4065 14.3021 15.6521 12.4953 14.4299C11.1981 13.5519 9.86996 12.7601 8.57274 11.8735C6.99754 10.591 7.49172 8.53383 9.41439 8.23258C11.1826 7.95714 12.4721 9.62697 13.1594 11.2021C13.2675 11.5034 13.3369 11.5895 13.3601 11.4603C13.2829 10.2467 13.391 8.81788 14.4257 8.1379C15.6225 7.34602 17.0279 8.36169 16.9043 10.2725C16.8194 11.7013 15.8465 13.44 14.6805 14.12V14.2233H15.638V19.448C15.6997 21.2383 17.9544 21.1781 18.3714 19.293C18.41 19.1209 18.1243 19.293 18.1243 19.293C17.6379 20.1021 16.7576 20.1107 16.7576 19.009C16.7499 15.8415 16.7576 14.2061 16.7576 14.2061H18.1707C18.1707 13.8704 18.1707 13.7069 18.1707 13.7069C17.2209 13.7069 16.7499 13.7069 16.7499 13.7069C16.7499 12.9064 16.7499 12.5018 16.7499 12.5018C17.19 11.6841 17.5915 10.5824 17.5838 9.62697C17.5761 8.87813 17.3444 8.16372 16.773 7.63006C15.8619 6.76932 14.418 6.77793 13.5686 7.73335" fill="white"/>
</svg>
