<svg width="12" height="13" viewBox="0 0 12 13" fill="none" xmlns="http://www.w3.org/2000/svg">
<path d="M11.2227 0.778683C10.1898 -0.256957 8.50992 -0.256957 7.47696 0.778683L0.609311 7.64459C0.555617 7.69829 0.522379 7.76734 0.512151 7.84149L0.00334149 11.6107C-0.0119995 11.7181 0.026353 11.8255 0.100501 11.8997C0.164422 11.9636 0.253911 12.002 0.3434 12.002C0.358741 12.002 0.374082 12.002 0.389423 11.9994L2.65989 11.6925C2.8491 11.667 2.98205 11.4931 2.95648 11.3039C2.93091 11.1146 2.75705 10.9817 2.56784 11.0072L0.74738 11.2527L1.10278 8.62398L3.86927 11.3908C3.93319 11.4547 4.02268 11.4931 4.11217 11.4931C4.20166 11.4931 4.29115 11.4573 4.35507 11.3908L11.2227 4.52489C11.7239 4.02369 12 3.35883 12 2.65051C12 1.94218 11.7239 1.27732 11.2227 0.778683ZM7.60992 1.62254L8.76305 2.77581L2.49625 9.04335L1.34312 7.89008L7.60992 1.62254ZM4.11473 10.6595L2.98716 9.53176L9.25396 3.26422L10.3815 4.39192L4.11473 10.6595ZM10.8622 3.89839L8.10339 1.13924C8.45367 0.850283 8.89089 0.691741 9.35112 0.691741C9.87527 0.691741 10.3662 0.896311 10.7369 1.26454C11.1077 1.63277 11.3097 2.12629 11.3097 2.65051C11.3097 3.11335 11.1511 3.54806 10.8622 3.89839Z" fill="white"/>
</svg>
