<svg width="216" height="82" viewBox="0 0 216 82" fill="none" xmlns="http://www.w3.org/2000/svg">
<path fill-rule="evenodd" clip-rule="evenodd" d="M29.6746 6.04526C28.351 7.3424 27.5506 8.49214 27.2428 9.28812C21.2401 2.77291 10.5585 2.83187 4.74055 7.93201C2.77045 9.64189 1.35444 11.9414 0.861918 14.742C-1.0774 25.5614 12.0976 29.7476 20.1627 34.3761C32.1372 41.9526 21.5172 53.8628 8.21901 46.699C3.60159 44.2226 2.43184 40.5965 1.44679 35.9975C1.47757 35.4374 0.98505 35.29 0 35.5553V50.9147H1.29288C1.50836 49.2048 2.24714 48.3499 3.54002 48.3794C5.20229 48.7921 6.9877 49.2343 8.80388 49.9418C15.2683 52.4477 23.1795 51.976 27.7661 47.9666C33.9226 42.6012 32.599 33.1674 25.3958 28.9811C20.2243 25.9741 14.9297 23.2619 9.75815 20.2254C3.47846 15.8328 5.44856 8.78695 13.1135 7.75513C20.1627 6.81175 25.3035 12.531 28.0431 17.9259C28.4741 18.9577 28.7511 19.2526 28.8435 18.8103C28.5357 14.6536 28.9666 9.75981 33.0915 7.43084C37.8628 4.71863 43.4653 8.19734 42.9728 14.742C42.6342 19.6358 38.7555 25.5909 34.1073 27.9198V28.2736H37.9244V46.1683C38.1707 52.3003 47.1593 52.0939 48.8215 45.6377C48.9754 45.0481 47.8365 45.6377 47.8365 45.6377C45.8972 48.4089 42.3879 48.4383 42.3879 44.6648C42.3571 33.816 42.3879 28.2147 42.3879 28.2147H48.0212C48.0212 27.0649 48.0212 26.5048 48.0212 26.5048C44.2349 26.5048 42.3571 26.5048 42.3571 26.5048C42.3571 23.7631 42.3571 22.3775 42.3571 22.3775C44.1118 19.5768 45.7125 15.8033 45.6817 12.531C45.6509 9.96617 44.7274 7.51928 42.4495 5.69149C38.8171 2.74343 33.0607 2.77291 29.6746 6.04526Z" fill="#4D5259"/>
<path fill-rule="evenodd" clip-rule="evenodd" d="M65.4135 34.553C65.4135 34.553 61.658 34.553 54.1162 34.553C55.6245 26.0331 65.198 26.7406 65.4135 34.553ZM54.1162 36.1744C65.4135 36.0565 71.0775 36.086 71.0775 36.086C70.4926 30.1014 67.5375 26.888 62.212 26.6227C46.3897 26.5343 46.7283 49.4407 59.4724 51.2095C64.2437 51.8876 69.3844 49.0574 70.9544 42.1295C70.4618 41.7462 70.2156 41.5694 70.2156 41.5694C68.6457 45.9325 65.4442 47.6718 60.5806 46.7579C56.1478 44.9891 53.993 41.4809 54.1162 36.1744Z" fill="#4D5259"/>
<path fill-rule="evenodd" clip-rule="evenodd" d="M80.1892 29.0401H88.2543V44.37C88.2543 48.2025 87.0538 49.5586 84.0678 49.5291C81.0511 49.4996 80.1584 48.114 80.1584 44.6943C80.1892 39.4762 80.1892 34.2582 80.1892 29.0401ZM80.1892 7.4898C79.7583 0.768229 85.5454 0.0606958 89.3625 5.33772C88.5313 7.43084 88.3774 8.63954 88.2543 12.0298V27.0649C82.8673 27.0649 80.1892 27.0649 80.1892 27.0649C80.1892 14.0345 80.1892 7.4898 80.1892 7.4898ZM104.846 2.94979C100.844 -0.764761 96.5041 -0.971125 91.8559 2.3307C89.3933 0.237579 86.5305 -0.410994 83.2367 0.384982C78.4038 1.71161 75.8796 5.07239 75.6641 10.4673V27.1239H71.0775V29.0696H75.6641V47.1117C75.4487 48.7037 74.0019 49.5291 71.293 49.5291V50.384H98.3203C98.3203 49.765 98.3203 49.4407 98.3203 49.4407C94.8418 49.7355 92.9949 48.91 92.8409 46.9053V29.0401H98.8436V27.0944H92.8409V10.5558C92.6562 5.33772 93.4566 2.50758 95.2728 2.06537C97.1198 1.62317 98.4126 2.06537 99.1206 3.392C100.106 5.57356 101.399 6.63486 102.968 6.5759C105.123 6.19266 105.739 4.98395 104.846 2.94979Z" fill="#4D5259"/>
<path fill-rule="evenodd" clip-rule="evenodd" d="M113.435 36.9409C113.496 42.7486 113.496 45.6672 113.496 45.6672C110.418 48.0551 106.139 50.3251 104.569 45.1365C103.122 40.4196 109.587 38.2675 113.435 36.9409ZM113.435 47.436C109.741 50.7083 103.153 53.6859 100.229 47.7308C99.0283 45.2839 99.9826 41.9526 103.03 39.9184C105.339 38.3855 108.817 36.823 113.373 35.2016C113.496 33.02 113.558 29.8361 111.157 28.7453C108.263 27.4482 105.062 28.9222 105.308 32.283C105.616 36.7345 99.8594 35.8796 100.968 31.5165C102.045 27.2713 108.078 26.5048 111.895 26.888C116.174 27.3008 118.021 29.3054 117.96 34.0813V43.0729C117.96 44.0457 117.806 47.1707 118.668 47.7603C119.776 48.5268 121.407 46.5516 122.085 45.8735V47.3476C120.976 49.2048 117.744 51.9465 115.312 51.0326C114.081 50.6199 113.465 49.2638 113.435 47.436Z" fill="#4D5259"/>
<path fill-rule="evenodd" clip-rule="evenodd" d="M122.085 29.4528C122.423 30.1014 122.577 30.4257 122.577 30.4257C122.577 30.4257 122.916 30.2488 123.593 30.0719C125.071 29.6887 125.963 30.4552 126.179 32.283C126.179 32.283 126.179 36.823 126.21 45.8735C126.21 47.7013 125.809 48.4678 125.071 49.0869C124.424 49.6175 123.562 49.5291 122.362 49.5881V50.5609H134.582C134.582 50.5609 134.582 50.2366 134.582 49.5881C133.259 49.6765 132.212 49.4701 131.535 48.9985C130.888 48.5562 130.611 47.4065 130.642 45.6082C130.642 45.6082 130.642 41.4514 130.642 33.1084C131.504 32.1945 132.582 31.3396 133.813 30.5731C135.321 29.7476 136.799 29.5413 138.184 29.954C140.831 30.75 140.77 34.3466 140.708 36.4692C140.708 36.4692 140.77 39.9479 140.708 46.9348C140.708 48.8511 139.323 49.7355 136.737 49.5881V50.502H148.835C148.835 50.502 148.835 50.2072 148.835 49.5881C146.311 49.8829 145.11 48.6742 145.141 45.9914C145.141 45.9914 145.141 42.2769 145.172 34.8183C145.264 32.4599 144.741 29.6002 142.771 27.9198C138.769 24.4706 133.351 28.3326 130.611 31.487C130.611 31.487 130.611 29.8656 130.611 26.6227C130.611 26.6227 130.18 26.6227 129.319 26.6227C129.349 26.5932 126.918 27.5366 122.085 29.4528Z" fill="#4D5259"/>
<path fill-rule="evenodd" clip-rule="evenodd" d="M163.98 27.1239C164.011 27.7724 164.011 28.0967 164.011 28.0967C166.627 28.0672 166.935 29.0401 165.95 31.428C165.95 31.428 164.134 35.6143 160.502 43.9868C160.502 43.9868 158.685 40.2132 154.838 32.7547C153.575 30.3372 152.837 28.0672 156.684 28.0378C156.684 28.0378 156.684 27.743 156.684 27.1533C156.684 27.1533 152.96 27.1533 145.51 27.1533V28.1262C147.173 28.3031 148.681 29.7182 149.974 32.3714C149.974 32.3714 152.806 37.9432 158.47 49.1164C156.746 54.1576 154.93 56.7519 153.021 56.9287C152.59 56.7224 151.605 56.2802 150.005 55.9854C147.911 55.6021 146.434 56.5455 146.588 58.4322C146.803 60.8791 148.989 61.7635 152.129 60.8496C154.53 60.1421 156.377 58.3438 157.793 55.8674C157.793 55.8674 161.394 47.5244 168.567 30.8384C169.244 29.0991 170.321 28.1557 171.799 28.0378C171.799 28.0378 171.799 27.743 171.799 27.1239C171.83 27.1239 169.213 27.1239 163.98 27.1239Z" fill="#4D5259"/>
<path d="M55.5846 67.6708H50.9042V60.5057H52.2185V66.4937H55.5846V67.6708Z" fill="#4D5259"/>
<path d="M65.6601 67.6708H64.335L67.498 60.4852H68.6521L71.8152 67.6708H70.4153L69.6352 65.8386H66.4401L65.6601 67.6708ZM69.133 64.6615L68.043 62.1127L66.9424 64.6615H69.133Z" fill="#4D5259"/>
<path d="M84.487 65.767C84.487 65.5486 84.4015 65.3575 84.2305 65.1937C84.0667 65.0231 83.8601 64.8867 83.6107 64.7843C83.3614 64.6751 83.0871 64.5523 82.7879 64.4158C82.4959 64.2725 82.2251 64.1258 81.9758 63.9757C81.7265 63.8187 81.5163 63.6038 81.3453 63.3308C81.1815 63.051 81.0996 62.7303 81.0996 62.3686C81.0996 61.8159 81.3097 61.3484 81.73 60.9663C82.1646 60.5842 82.7309 60.3931 83.4291 60.3931C84.3766 60.3931 85.089 60.649 85.5663 61.1608L84.861 62.1025C84.4834 61.7477 84.0417 61.5702 83.5359 61.5702C83.2154 61.5702 82.9589 61.6419 82.7666 61.7852C82.5813 61.9285 82.4887 62.1196 82.4887 62.3584C82.4887 62.4812 82.5137 62.5972 82.5635 62.7064C82.6134 62.8088 82.6668 62.8941 82.7238 62.9623C82.7879 63.0306 82.8877 63.1056 83.023 63.1875C83.1655 63.2694 83.2759 63.3308 83.3543 63.3718C83.4398 63.4059 83.5787 63.4639 83.771 63.5458C83.9634 63.6277 84.0987 63.6857 84.1771 63.7198C84.4906 63.8563 84.7648 63.9996 84.9999 64.1497C85.2635 64.2998 85.4737 64.5148 85.6304 64.7945C85.7942 65.0743 85.8762 65.3951 85.8762 65.7567C85.8762 66.3572 85.6375 66.8451 85.1602 67.2205C84.6829 67.5958 84.088 67.7834 83.3757 67.7834C82.877 67.7834 82.3819 67.6845 81.8903 67.4866C81.4201 67.2819 81.0996 67.0055 80.9286 66.6575L81.6766 65.7977C81.8761 66.0502 82.1325 66.248 82.446 66.3913C82.7666 66.5347 83.0836 66.6063 83.397 66.6063C83.7247 66.6063 83.9883 66.5312 84.1878 66.3811C84.3873 66.231 84.487 66.0263 84.487 65.767Z" fill="#4D5259"/>
<path d="M100.374 67.6708H95.9395V60.5057H100.267V61.6828H97.2538V63.4639H99.9467V64.641H97.2538V66.4937H100.374V67.6708Z" fill="#4D5259"/>
<path d="M111.949 64.989V67.6708H110.635V60.5057C111.005 60.5057 111.408 60.5023 111.842 60.4955C112.277 60.4886 112.633 60.4852 112.911 60.4852C114.72 60.4852 115.625 61.2222 115.625 62.6962C115.625 63.2421 115.479 63.6925 115.187 64.0473C114.895 64.3885 114.56 64.6205 114.182 64.7434L116.523 67.6708H114.93L112.868 64.989H111.949ZM112.847 61.6624C112.811 61.6624 112.754 61.6658 112.676 61.6726C112.597 61.6726 112.487 61.676 112.344 61.6828C112.202 61.6828 112.07 61.6828 111.949 61.6828V63.8119H112.804C113.224 63.8119 113.566 63.713 113.83 63.5151C114.1 63.3172 114.236 63.0476 114.236 62.7064C114.236 62.0104 113.773 61.6624 112.847 61.6624Z" fill="#4D5259"/>
<path d="M132.693 67.6708H131.165L130.534 66.9236C129.985 67.4968 129.252 67.7834 128.333 67.7834C127.585 67.7834 126.979 67.5924 126.516 67.2102C126.053 66.8213 125.822 66.3265 125.822 65.726C125.822 65.1869 125.96 64.7434 126.238 64.3953C126.537 64.0268 126.951 63.6686 127.478 63.3206C126.908 63.0613 126.623 62.6041 126.623 61.949C126.623 61.4713 126.798 61.096 127.147 60.823C127.503 60.5364 127.92 60.3931 128.397 60.3931C128.874 60.3931 129.291 60.5364 129.647 60.823C129.996 61.096 130.171 61.4713 130.171 61.949C130.171 62.256 130.075 62.5426 129.882 62.8088C129.697 63.0749 129.473 63.2489 129.209 63.3308L130.662 65.1426C130.997 64.5148 131.165 63.8221 131.165 63.0647H132.383C132.383 64.2316 132.055 65.2381 131.4 66.0843L132.693 67.6708ZM128.375 66.6063C129.002 66.6063 129.476 66.3982 129.797 65.9819L128.279 63.9961C127.887 64.2964 127.61 64.5591 127.446 64.7843C127.289 65.0027 127.211 65.2381 127.211 65.4906C127.211 65.8045 127.321 66.0706 127.542 66.289C127.77 66.5005 128.048 66.6063 128.375 66.6063ZM127.766 61.949C127.766 62.1127 127.827 62.2526 127.948 62.3686C128.069 62.4846 128.219 62.5426 128.397 62.5426C128.575 62.5426 128.725 62.4846 128.846 62.3686C128.967 62.2526 129.027 62.1127 129.027 61.949C129.027 61.7784 128.963 61.6351 128.835 61.519C128.714 61.403 128.568 61.345 128.397 61.345C128.219 61.345 128.069 61.403 127.948 61.519C127.827 61.6351 127.766 61.7784 127.766 61.949Z" fill="#4D5259"/>
<path d="M56.0975 80.2497L56.5998 81.1914C56.3647 81.4302 56.0263 81.6247 55.5846 81.7748C55.15 81.9249 54.6905 82 54.2061 82C53.0663 82 52.1366 81.6622 51.4171 80.9866C50.7047 80.3111 50.3485 79.4171 50.3485 78.3048C50.3485 77.2403 50.6869 76.3566 51.3636 75.6537C52.0333 74.9577 52.9701 74.6097 54.174 74.6097C55.1287 74.6097 55.8874 74.8519 56.4501 75.3364L55.8624 76.2679C55.3566 75.9472 54.7938 75.7868 54.174 75.7868C53.4616 75.7868 52.8775 76.0154 52.4216 76.4726C51.9656 76.9298 51.7377 77.5405 51.7377 78.3048C51.7377 79.0555 51.9763 79.6628 52.4536 80.1268C52.938 80.5909 53.5614 80.8229 54.3236 80.8229C54.979 80.8229 55.5703 80.6318 56.0975 80.2497Z" fill="#4D5259"/>
<path d="M65.5864 78.3048C65.5864 77.2608 65.9497 76.3839 66.6763 75.6742C67.4172 74.9645 68.3504 74.6097 69.476 74.6097C70.6016 74.6097 71.5313 74.9509 72.2651 75.6333C73.0059 76.3225 73.3764 77.213 73.3764 78.3048C73.3764 79.3762 73.0059 80.2599 72.2651 80.9559C71.5242 81.652 70.5945 82 69.476 82C68.3504 82 67.4208 81.6588 66.687 80.9764C65.9532 80.294 65.5864 79.4035 65.5864 78.3048ZM66.9755 78.3048C66.9755 79.0282 67.2142 79.6287 67.6915 80.1064C68.1688 80.584 68.7636 80.8229 69.476 80.8229C70.2454 80.8229 70.8545 80.584 71.3033 80.1064C71.7593 79.6287 71.9872 79.0282 71.9872 78.3048C71.9872 77.5747 71.745 76.9707 71.2606 76.4931C70.7761 76.0222 70.1813 75.7868 69.476 75.7868C68.7565 75.7868 68.1581 76.0222 67.6808 76.4931C67.2106 76.9639 66.9755 77.5678 66.9755 78.3048Z" fill="#4D5259"/>
<path d="M86.4489 79.9835C86.4489 79.7652 86.3634 79.5741 86.1924 79.4103C86.0285 79.2397 85.822 79.1032 85.5726 79.0009C85.3233 78.8917 85.049 78.7689 84.7498 78.6324C84.4577 78.4891 84.187 78.3424 83.9377 78.1922C83.6883 78.0353 83.4782 77.8203 83.3072 77.5474C83.1433 77.2676 83.0614 76.9469 83.0614 76.5852C83.0614 76.0325 83.2716 75.565 83.6919 75.1829C84.1265 74.8007 84.6928 74.6097 85.391 74.6097C86.3384 74.6097 87.0508 74.8656 87.5281 75.3774L86.8229 76.3191C86.4453 75.9642 86.0036 75.7868 85.4978 75.7868C85.1772 75.7868 84.9208 75.8584 84.7284 76.0017C84.5432 76.145 84.4506 76.3361 84.4506 76.575C84.4506 76.6978 84.4755 76.8138 84.5254 76.923C84.5753 77.0253 84.6287 77.1106 84.6857 77.1789C84.7498 77.2471 84.8495 77.3222 84.9849 77.4041C85.1274 77.486 85.2378 77.5474 85.3162 77.5883C85.4016 77.6224 85.5406 77.6804 85.7329 77.7623C85.9252 77.8442 86.0606 77.9022 86.139 77.9363C86.4524 78.0728 86.7267 78.2161 86.9618 78.3662C87.2254 78.5164 87.4355 78.7313 87.5923 79.0111C87.7561 79.2909 87.838 79.6116 87.838 79.9733C87.838 80.5738 87.5994 81.0617 87.1221 81.437C86.6448 81.8123 86.0499 82 85.3375 82C84.8388 82 84.3437 81.901 83.8522 81.7032C83.382 81.4984 83.0614 81.2221 82.8904 80.874L83.6385 80.0142C83.8379 80.2667 84.0944 80.4646 84.4078 80.6079C84.7284 80.7512 85.0454 80.8229 85.3589 80.8229C85.6866 80.8229 85.9502 80.7478 86.1497 80.5977C86.3491 80.4475 86.4489 80.2428 86.4489 79.9835Z" fill="#4D5259"/>
<path d="M99.2157 81.8874H97.9013V74.7223H99.2264L101.78 78.0694L104.217 74.7223H105.456V81.8874H104.153V76.708L101.791 79.8914H101.599L99.2157 76.7387V81.8874Z" fill="#4D5259"/>
<path d="M120.517 81.8874H116.082V74.7223H120.41V75.8994H117.396V77.6804H120.089V78.8576H117.396V80.7103H120.517V81.8874Z" fill="#4D5259"/>
<path d="M132.273 75.8994H129.848V74.7223H136.013V75.8994H133.588V81.8874H132.273V75.8994Z" fill="#4D5259"/>
<path d="M144.802 78.3048C144.802 77.2608 145.165 76.3839 145.892 75.6742C146.633 74.9645 147.566 74.6097 148.692 74.6097C149.817 74.6097 150.747 74.9509 151.481 75.6333C152.222 76.3225 152.592 77.213 152.592 78.3048C152.592 79.3762 152.222 80.2599 151.481 80.9559C150.74 81.652 149.81 82 148.692 82C147.566 82 146.636 81.6588 145.903 80.9764C145.169 80.294 144.802 79.4035 144.802 78.3048ZM146.191 78.3048C146.191 79.0282 146.43 79.6287 146.907 80.1064C147.384 80.584 147.979 80.8229 148.692 80.8229C149.461 80.8229 150.07 80.584 150.519 80.1064C150.975 79.6287 151.203 79.0282 151.203 78.3048C151.203 77.5747 150.961 76.9707 150.476 76.4931C149.992 76.0222 149.397 75.7868 148.692 75.7868C147.972 75.7868 147.374 76.0222 146.896 76.4931C146.426 76.9639 146.191 77.5678 146.191 78.3048Z" fill="#4D5259"/>
<path d="M167.342 81.8874H162.662V74.7223H163.976V80.7103H167.342V81.8874Z" fill="#4D5259"/>
<path d="M176.196 78.3048C176.196 77.2608 176.559 76.3839 177.286 75.6742C178.027 74.9645 178.96 74.6097 180.086 74.6097C181.211 74.6097 182.141 74.9509 182.875 75.6333C183.616 76.3225 183.986 77.213 183.986 78.3048C183.986 79.3762 183.616 80.2599 182.875 80.9559C182.134 81.652 181.204 82 180.086 82C178.96 82 178.03 81.6588 177.297 80.9764C176.563 80.294 176.196 79.4035 176.196 78.3048ZM177.585 78.3048C177.585 79.0282 177.824 79.6287 178.301 80.1064C178.778 80.584 179.373 80.8229 180.086 80.8229C180.855 80.8229 181.464 80.584 181.913 80.1064C182.369 79.6287 182.597 79.0282 182.597 78.3048C182.597 77.5747 182.355 76.9707 181.87 76.4931C181.386 76.0222 180.791 75.7868 180.086 75.7868C179.366 75.7868 178.768 76.0222 178.29 76.4931C177.82 76.9639 177.585 77.5678 177.585 78.3048Z" fill="#4D5259"/>
<path d="M198.971 79.2056H197.165V78.0285H200.2V80.9969C199.88 81.304 199.452 81.5496 198.918 81.7339C198.384 81.9113 197.878 82 197.4 82C196.189 82 195.235 81.6656 194.537 80.9969C193.846 80.335 193.5 79.4376 193.5 78.3048C193.5 77.2539 193.842 76.3771 194.526 75.6742C195.21 74.9645 196.111 74.6097 197.23 74.6097C198.184 74.6097 198.986 74.8519 199.634 75.3364L199.078 76.3395C198.893 76.1689 198.647 76.0359 198.341 75.9403C198.035 75.838 197.718 75.7868 197.39 75.7868C196.642 75.7868 196.04 76.012 195.584 76.4624C195.121 76.9059 194.889 77.5201 194.889 78.3048C194.889 79.0623 195.121 79.673 195.584 80.1371C196.04 80.5943 196.652 80.8229 197.422 80.8229C197.693 80.8229 197.985 80.7751 198.298 80.6796C198.612 80.5772 198.836 80.4612 198.971 80.3315V79.2056Z" fill="#4D5259"/>
<path d="M214.579 74.7223H216L213.339 78.8985V81.8874H212.025V78.8985L209.385 74.7223H210.881L212.741 77.7214L214.579 74.7223Z" fill="#4D5259"/>
</svg>
