<svg width="40" height="40" viewBox="0 0 40 40" fill="none" xmlns="http://www.w3.org/2000/svg">
<rect width="40" height="40" rx="8" fill="white"/>
<path d="M16.2713 13.5472C15.7497 13.2589 15.1372 13.2656 14.6189 13.5514L20.6936 19.1552L22.7343 17.1145L16.2713 13.5472Z" fill="#303947"/>
<path d="M14.0114 14.125C13.8631 14.3675 13.7781 14.645 13.7781 14.9391V25.0602C13.7781 25.3452 13.8556 25.6168 13.9956 25.8543L20.1044 19.7455L14.0114 14.125Z" fill="#303947"/>
<path d="M25.4398 18.6073L23.4933 17.5332L21.3059 19.7197L23.9866 22.1921L25.4407 21.3897C25.964 21.0997 26.2773 20.5797 26.2773 19.9981C26.2765 19.4164 25.964 18.8965 25.4398 18.6073Z" fill="#303947"/>
<path d="M20.7168 20.3105L14.5913 26.436C14.8571 26.5877 15.1488 26.6677 15.4421 26.6677C15.7254 26.6677 16.0104 26.596 16.2712 26.4519L23.2183 22.6179L20.7168 20.3105Z" fill="#303947"/>
</svg>
