<svg width="20" height="21" viewBox="0 0 20 21" fill="none" xmlns="http://www.w3.org/2000/svg">
<path d="M13.1828 11.3758C13.1504 11.4256 13.1504 11.4754 13.1342 11.5418C13.118 11.7576 13.28 11.9568 13.4906 11.9734C13.7011 11.99 13.8955 11.824 13.9117 11.6082C13.9117 11.5584 13.9117 11.5086 13.9279 11.4256C13.9279 11.3426 13.9279 11.2928 13.9279 11.243C13.9279 10.7616 13.8469 10.2967 13.7011 9.84852C13.5068 9.26749 13.1666 8.75286 12.7617 8.32124C12.2596 7.80661 11.6441 7.44139 10.9476 7.24218C10.6237 7.15918 10.2673 7.10938 9.92719 7.10938C9.8138 7.10938 9.70042 7.10938 9.57085 7.12598C9.45747 7.14258 9.34408 7.15918 9.2307 7.17578C9.02014 7.20898 8.87436 7.42479 8.92296 7.624C8.95535 7.83981 9.16591 7.98922 9.36028 7.93942C9.45746 7.92282 9.53845 7.90622 9.63563 7.90622C9.65183 7.90622 9.66803 7.90622 9.68423 7.90622C9.76521 7.90622 9.8462 7.88962 9.92719 7.88962C10.818 7.88962 11.6441 8.25484 12.2272 8.86907C12.8103 9.4667 13.1666 10.2801 13.1828 11.1932V11.2264C13.1828 11.2928 13.1828 11.3426 13.1828 11.3758Z" fill="#3A405B"/>
<path d="M15.3209 11.74C15.3047 11.9558 15.4667 12.155 15.6773 12.1716C15.8878 12.1882 16.0822 12.0222 16.0984 11.8064C16.1146 11.6237 16.1146 11.4411 16.1146 11.2585C16.1146 10.8933 16.0822 10.5447 16.0336 10.1961C15.8231 8.868 15.1914 7.67274 14.3005 6.75969C13.2801 5.71383 11.9195 5.0332 10.4132 4.91699C10.2512 4.90039 10.073 4.90039 9.91105 4.90039C9.73288 4.90039 9.55471 4.90039 9.37654 4.91699C9.19837 4.93359 9.0202 4.95019 8.84203 4.9834C8.63147 5.0166 8.48569 5.23241 8.53428 5.43162C8.56668 5.64743 8.77724 5.79684 8.97161 5.74704C9.08499 5.73044 9.18217 5.71383 9.29556 5.69723C9.34415 5.69723 9.39274 5.68063 9.44133 5.68063C9.6033 5.66403 9.76528 5.66403 9.91105 5.66403C10.4618 5.66403 10.9801 5.74704 11.4822 5.89644C12.3568 6.16206 13.1343 6.64348 13.766 7.29092C14.2843 7.82215 14.7054 8.46958 14.9808 9.16682C15.2238 9.79765 15.3695 10.4949 15.3695 11.2253C15.3695 11.2751 15.3695 11.3415 15.3695 11.3913C15.3371 11.5241 15.3209 11.6237 15.3209 11.74Z" fill="#3A405B"/>
<path d="M15.8713 5.16689C14.3326 3.5898 12.2269 2.62695 9.89451 2.62695C9.65155 2.62695 9.40859 2.64355 9.16564 2.66015C8.92268 2.67676 8.67972 2.70996 8.43676 2.75976C8.22619 2.79296 8.08042 3.00877 8.12901 3.20798C8.1614 3.4238 8.37197 3.5732 8.56634 3.5234C8.67972 3.5068 8.7769 3.4902 8.89028 3.4736C9.00366 3.457 9.11704 3.4404 9.23042 3.4404C9.45719 3.4238 9.66775 3.40719 9.89451 3.40719C12.0002 3.40719 13.9114 4.28704 15.3044 5.69812C16.6812 7.10919 17.5396 9.0681 17.5396 11.2428C17.5396 11.359 17.5396 11.4918 17.5396 11.608C17.5396 11.7076 17.5234 11.8072 17.5234 11.9234C17.5072 12.1393 17.6692 12.3385 17.8798 12.3551C18.0903 12.3717 18.2847 12.2057 18.3009 11.9899C18.3171 11.7408 18.3333 11.4918 18.3333 11.2594C18.3333 8.88549 17.3938 6.72737 15.8713 5.16689Z" fill="#3A405B"/>
<path d="M17.7342 15.2263L14.8673 13.6492C13.9117 13.118 13.8793 13.4666 12.8751 14.5623C12.6321 14.8279 12.1786 15.5251 11.6441 15.3923C10.5265 15.1101 8.43701 13.4334 7.75673 12.6698C7.43278 12.3046 6.03982 10.5615 6.02362 9.99704C5.99123 9.1338 7.83771 8.70217 7.23842 7.05869L5.95883 4.12033C4.76023 1.29818 1.4074 5.81362 1.68275 7.92193C2.39543 13.118 11.2877 21.5181 16.2441 18.7457C17.3455 18.1149 18.8357 15.907 17.7342 15.2263Z" fill="#3A405B"/>
</svg>
