<svg width="40" height="40" viewBox="0 0 40 40" fill="none" xmlns="http://www.w3.org/2000/svg">
<rect width="40" height="40" rx="8" fill="white"/>
<g clip-path="url(#clip0)">
<path d="M13.3335 21.354V19.5447C13.3335 19.379 13.4696 19.2434 13.6364 19.2434H16.8336L15.4416 21.6557H13.6364C13.4696 21.6557 13.3335 21.5204 13.3335 21.354ZM15.611 25.0589L14.5906 25.7502C14.4533 25.8435 14.3563 25.7844 14.3753 25.6197L14.5114 24.4369C14.5304 24.2722 14.664 24.2049 14.8085 24.2872L15.5981 24.7383C15.7424 24.821 15.7483 24.9658 15.611 25.0589ZM15.856 24.3922L15.0664 23.9409C14.922 23.8585 14.8711 23.6736 14.9551 23.5298L18.6116 17.1914C18.6945 17.0474 18.8815 16.9969 19.0258 17.0804L19.8155 17.5305C19.9599 17.614 20.0095 17.7991 19.9267 17.9426L16.2703 24.2814C16.1874 24.4252 16.0003 24.4745 15.856 24.3922ZM18.6388 21.6557L20.0308 19.2434H20.8324L21.9627 21.6557H18.6388ZM23.1725 22.3755C22.8564 22.2177 21.282 18.6013 20.8787 17.6578C20.4749 16.7142 19.2556 14.2025 19.65 14.0071C19.9305 13.8669 20.9378 15.8447 21.6929 17.0321C22.447 18.2195 24.0238 21.2811 24.2178 21.6298C24.4108 21.9793 24.032 22.2707 23.8214 22.3579C23.6105 22.4452 23.4885 22.5321 23.1725 22.3755ZM24.2071 24.0378L23.7314 23.2897C23.633 23.134 23.6841 22.9418 23.8436 22.8598L24.2971 22.6276C24.4569 22.5463 24.657 22.6123 24.7421 22.7751L25.1173 23.4937C25.2027 23.6561 25.1445 23.8648 24.9906 23.9566L24.6664 24.1497C24.5125 24.2426 24.3054 24.192 24.2071 24.0378ZM25.9578 26.0001C25.8584 25.6831 25.0996 25.6622 24.7598 25.1849C24.419 24.7092 24.7007 24.4641 24.819 24.351C26.1969 23.5783 25.9578 26.0001 25.9578 26.0001ZM26.6668 21.354C26.6668 21.5204 26.5307 21.6556 26.3639 21.6556H24.7635C24.7459 21.5626 24.7172 21.4696 24.6689 21.3824C24.6272 21.3081 24.5219 21.1079 24.3752 20.8288C24.1634 20.4261 23.8591 19.85 23.5334 19.2434H26.3637C26.5306 19.2434 26.6667 19.379 26.6667 19.5447V21.354H26.6668Z" fill="#303947"/>
</g>
<defs>
<clipPath id="clip0">
<rect width="13.3333" height="13.3333" fill="white" transform="translate(13.3335 13.334)"/>
</clipPath>
</defs>
</svg>
