<svg width="18" height="17" viewBox="0 0 18 17" fill="none" xmlns="http://www.w3.org/2000/svg">
    <path d="M8.99921 0.0117188C4.39697 0.0117188 0.666016 3.75135 0.666016 8.36406C0.666016 12.9768 4.39697 16.7167 8.99921 16.7167C13.6015 16.7167 17.3327 12.9768 17.3327 8.36406C17.3327 3.75135 13.6015 0.0117188 8.99921 0.0117188ZM12.6019 9.95267H9.06893C9.05699 9.95267 9.04588 9.94978 9.03404 9.94933C9.02221 9.94989 9.01116 9.95267 8.99916 9.95267C8.68087 9.95267 8.42281 9.69402 8.42281 9.375V3.478C8.42281 3.15899 8.68087 2.90033 8.99916 2.90033C9.31744 2.90033 9.5755 3.15899 9.5755 3.478V8.79734H12.6017C12.9199 8.79734 13.178 9.05599 13.178 9.375C13.178 9.69402 12.9202 9.95267 12.6019 9.95267Z" fill="#4D5259"/>
</svg>
