<svg width="12" height="12" viewBox="0 0 12 12" fill="none" xmlns="http://www.w3.org/2000/svg">
<path d="M11.994 0.435544C11.9885 0.392454 11.979 0.35095 11.9633 0.31201C11.9628 0.311033 11.9628 0.30969 11.9625 0.30847C11.9625 0.308226 11.9623 0.307982 11.962 0.307737C11.9447 0.266722 11.921 0.229491 11.8943 0.194945C11.8877 0.186766 11.8812 0.17871 11.8743 0.171019C11.8457 0.138793 11.8147 0.109008 11.7787 0.0847163C11.7777 0.0839839 11.7765 0.0837397 11.7755 0.0830073C11.7407 0.0600582 11.7023 0.0427244 11.662 0.0290526C11.652 0.0255125 11.6422 0.0224608 11.632 0.0197753C11.5897 0.00830073 11.5463 0 11.5005 0H8.00049C7.72449 0 7.50049 0.223998 7.50049 0.499997C7.50049 0.775996 7.72449 0.999994 8.00049 0.999994H10.2932L7.30896 3.98423C6.51318 3.34776 5.53345 2.99998 4.50049 2.99998C2.01929 2.99998 0.000488281 5.01877 0.000488281 7.49995C0.000488281 9.98114 2.01929 11.9999 4.50049 11.9999C6.98169 11.9999 9.00049 9.98114 9.00049 7.49995C9.00049 6.46749 8.65295 5.488 8.01599 4.6915L11.0005 1.70702V3.99998C11.0005 4.27597 11.2245 4.49997 11.5005 4.49997C11.7765 4.49997 12.0005 4.27597 12.0005 3.99998V0.499997C12.0005 0.489499 11.998 0.479489 11.9974 0.469235C11.9967 0.457761 11.9955 0.446775 11.994 0.435544ZM4.50049 10.9999C2.57043 10.9999 1.00049 9.43 1.00049 7.49995C1.00049 5.56991 2.57043 3.99998 4.50049 3.99998C5.43494 3.99998 6.3147 4.36374 6.9762 5.02292C7.63672 5.68576 8.00049 6.56551 8.00049 7.49995C8.00049 9.43 6.43054 10.9999 4.50049 10.9999Z" fill="white"/>
</svg>
