<svg width="14" height="14" viewBox="0 0 14 14" fill="none" xmlns="http://www.w3.org/2000/svg">
<path d="M11.7122 0.333984H2.28516C1.20829 0.333984 0.332031 1.21025 0.332031 2.28711V11.7142C0.332031 12.7911 1.20829 13.6673 2.28516 13.6673H11.7122C12.7891 13.6673 13.6654 12.7911 13.6654 11.7142V2.28711C13.6654 1.21025 12.7891 0.333984 11.7122 0.333984ZM7.02474 10.4902C5.08616 10.4902 3.50911 8.91319 3.50911 6.97461C3.50911 5.03603 5.08616 3.45898 7.02474 3.45898C8.96332 3.45898 10.5404 5.03603 10.5404 6.97461C10.5404 8.91319 8.96332 10.4902 7.02474 10.4902ZM10.931 4.24023C10.2848 4.24023 9.75911 3.71452 9.75911 3.06836C9.75911 2.4222 10.2848 1.89648 10.931 1.89648C11.5771 1.89648 12.1029 2.4222 12.1029 3.06836C12.1029 3.71452 11.5771 4.24023 10.931 4.24023Z" fill="#4D5259"/>
<path d="M10.9297 2.67773C10.7141 2.67773 10.5391 2.8528 10.5391 3.06836C10.5391 3.28392 10.7141 3.45898 10.9297 3.45898C11.1452 3.45898 11.3203 3.28392 11.3203 3.06836C11.3203 2.8528 11.1452 2.67773 10.9297 2.67773Z" fill="#4D5259"/>
<path d="M7.02344 4.24023C5.51587 4.24023 4.28906 5.46704 4.28906 6.97461C4.28906 8.48218 5.51587 9.70899 7.02344 9.70899C8.53101 9.70899 9.75781 8.48218 9.75781 6.97461C9.75781 5.46704 8.53101 4.24023 7.02344 4.24023Z" fill="#4D5259"/>
</svg>
