<svg width="53" height="53" viewBox="0 0 53 53" fill="none" xmlns="http://www.w3.org/2000/svg">
<circle cx="26.4151" cy="26.4151" r="26.4151" fill="#3A405B"/>
<path d="M31.3955 19.3711H21.4348C20.297 19.3711 19.3711 20.297 19.3711 21.4348V31.3955C19.3711 32.5333 20.297 33.4591 21.4348 33.4591H31.3955C32.5333 33.4591 33.4591 32.5333 33.4591 31.3955V21.4348C33.4591 20.297 32.5333 19.3711 31.3955 19.3711ZM26.4426 30.1022C24.3943 30.1022 22.728 28.4359 22.728 26.3876C22.728 24.3393 24.3943 22.673 26.4426 22.673C28.4909 22.673 30.1573 24.3393 30.1573 26.3876C30.1573 28.4359 28.4909 30.1022 26.4426 30.1022ZM30.57 23.4985C29.8873 23.4985 29.3318 22.943 29.3318 22.2602C29.3318 21.5775 29.8873 21.022 30.57 21.022C31.2527 21.022 31.8082 21.5775 31.8082 22.2602C31.8082 22.943 31.2527 23.4985 30.57 23.4985Z" fill="white"/>
<path d="M30.57 21.8477C30.3422 21.8477 30.1572 22.0326 30.1572 22.2604C30.1572 22.4881 30.3422 22.6731 30.57 22.6731C30.7977 22.6731 30.9827 22.4881 30.9827 22.2604C30.9827 22.0326 30.7977 21.8477 30.57 21.8477Z" fill="white"/>
<path d="M26.4429 23.5C24.85 23.5 23.5537 24.7962 23.5537 26.3892C23.5537 27.9821 24.85 29.2783 26.4429 29.2783C28.0358 29.2783 29.332 27.9821 29.332 26.3892C29.332 24.7962 28.0358 23.5 26.4429 23.5Z" fill="white"/>
</svg>
