<svg width="200" height="131" viewBox="0 0 200 131" fill="none" xmlns="http://www.w3.org/2000/svg">
<path fill-rule="evenodd" clip-rule="evenodd" d="M34.5457 7.55065C33.0048 9.12711 32.0731 10.5244 31.7147 11.4918C24.7267 3.57367 12.2917 3.64533 5.51872 9.84368C3.22522 11.9217 1.57678 14.7164 1.0034 18.1201C-1.25425 31.2692 14.0835 36.3568 23.4725 41.9819C37.4126 51.1899 25.0492 65.6646 9.56816 56.9583C4.19279 53.9487 2.83103 49.5418 1.68428 43.9525C1.72012 43.2718 1.14675 43.0926 0 43.4151V62.0818H1.5051C1.75595 60.0037 2.61601 58.9647 4.12112 59.0005C6.05625 59.5021 8.13473 60.0396 10.249 60.8994C17.7746 63.9449 26.9844 63.3716 32.3239 58.4989C39.4911 51.9781 37.9501 40.513 29.5645 35.4253C23.5441 31.7708 17.3804 28.4746 11.36 24.7842C4.04945 19.4457 6.34294 10.8827 15.2661 9.62871C23.4725 8.48219 29.457 15.4329 32.6464 21.9896C33.1481 23.2436 33.4707 23.6019 33.5782 23.0644C33.2198 18.0126 33.7215 12.0651 38.5235 9.23459C44.0781 5.93836 50.6002 10.1661 50.0268 18.1201C49.6326 24.0676 45.1173 31.305 39.7061 34.1355V34.5654H44.1497V56.3134C44.4364 63.7657 54.9005 63.5149 56.8356 55.6685C57.0148 54.9519 55.6889 55.6685 55.6889 55.6685C53.4312 59.0364 49.3459 59.0722 49.3459 54.4861C49.3101 41.3012 49.3459 34.4938 49.3459 34.4938H55.9039C55.9039 33.0964 55.9039 32.4157 55.9039 32.4157C51.4961 32.4157 49.3101 32.4157 49.3101 32.4157C49.3101 29.0836 49.3101 27.3997 49.3101 27.3997C51.3527 23.996 53.2162 19.4099 53.1804 15.4329C53.1445 12.3159 52.0694 9.34208 49.4176 7.12071C45.189 3.53784 38.4877 3.57367 34.5457 7.55065Z" fill="white"/>
<path fill-rule="evenodd" clip-rule="evenodd" d="M76.1511 42.1968C76.1511 42.1968 71.7791 42.1968 62.9994 42.1968C64.7553 31.8423 75.9002 32.7022 76.1511 42.1968ZM62.9994 44.1674C76.1511 44.0241 82.7449 44.0599 82.7449 44.0599C82.064 36.7867 78.6238 32.8814 72.4242 32.5589C54.0046 32.4514 54.3988 60.2902 69.2348 62.44C74.7893 63.264 80.7739 59.8245 82.6015 51.4047C82.0282 50.939 81.7415 50.724 81.7415 50.724C79.9139 56.0266 76.1869 58.1405 70.5249 57.0298C65.3645 54.8801 62.856 50.6165 62.9994 44.1674Z" fill="white"/>
<path fill-rule="evenodd" clip-rule="evenodd" d="M93.3523 35.4964H102.741V54.1273C102.741 58.785 101.344 60.4331 97.8676 60.3973C94.3557 60.3615 93.3164 58.6775 93.3164 54.5214C93.3523 48.1797 93.3523 41.8381 93.3523 35.4964ZM93.3523 9.3057C92.8506 1.13678 99.5877 0.27689 104.031 6.69021C103.064 9.23404 102.885 10.703 102.741 14.8233V33.0959C96.47 33.0959 93.3523 33.0959 93.3523 33.0959C93.3523 17.2596 93.3523 9.3057 93.3523 9.3057ZM122.057 3.78809C117.398 -0.726311 112.345 -0.977111 106.934 3.03569C104.067 0.491861 100.734 -0.296368 96.9 0.671005C91.2738 2.28329 88.3353 6.36775 88.0844 12.9244V33.1675H82.7449V35.5322H88.0844V57.4593C87.8336 59.3941 86.1493 60.3973 82.9957 60.3973V61.4363H114.46C114.46 60.6839 114.46 60.2898 114.46 60.2898C110.41 60.6481 108.26 59.6449 108.081 57.2085V35.4964H115.069V33.1317H108.081V13.0319C107.866 6.69021 108.798 3.25066 110.912 2.71324C113.062 2.17581 114.567 2.71323 115.391 4.32552C116.538 6.97684 118.043 8.26667 119.871 8.19501C122.379 7.72924 123.096 6.26027 122.057 3.78809Z" fill="white"/>
<path fill-rule="evenodd" clip-rule="evenodd" d="M132.055 45.0988C132.127 52.157 132.127 55.7041 132.127 55.7041C128.543 58.6062 123.562 61.365 121.734 55.0591C120.05 49.3266 127.575 46.7111 132.055 45.0988ZM132.055 57.8538C127.755 61.8308 120.086 65.4494 116.681 58.2121C115.284 55.2383 116.395 51.1897 119.942 48.7175C122.63 46.8544 126.68 44.9555 131.983 42.9849C132.127 40.3336 132.198 36.4641 129.403 35.1384C126.035 33.562 122.308 35.3534 122.594 39.4379C122.953 44.848 116.251 43.809 117.541 38.5063C118.796 33.347 125.82 32.4155 130.263 32.8812C135.244 33.3828 137.394 35.8192 137.323 41.6234V52.5511C137.323 53.7335 137.144 57.5313 138.147 58.2479C139.437 59.1794 141.336 56.7789 142.125 55.9549V57.7463C140.835 60.0035 137.072 63.3356 134.241 62.2249C132.807 61.7233 132.091 60.0751 132.055 57.8538Z" fill="white"/>
<path fill-rule="evenodd" clip-rule="evenodd" d="M142.125 35.9987C142.519 36.7869 142.698 37.181 142.698 37.181C142.698 37.181 143.092 36.966 143.881 36.7511C145.601 36.2853 146.64 37.2168 146.891 39.4382C146.891 39.4382 146.891 44.9558 146.927 55.9552C146.927 58.1766 146.461 59.1081 145.601 59.8605C144.848 60.5054 143.845 60.3979 142.447 60.4696V61.6519H156.674C156.674 61.6519 156.674 61.2578 156.674 60.4696C155.133 60.5771 153.915 60.3263 153.126 59.753C152.374 59.2156 152.051 57.8183 152.087 55.6327C152.087 55.6327 152.087 50.5809 152.087 40.4414C153.091 39.3307 154.345 38.2917 155.778 37.3602C157.534 36.357 159.254 36.1062 160.867 36.6078C163.949 37.5751 163.877 41.9462 163.805 44.5259C163.805 44.5259 163.877 48.7536 163.805 57.245C163.805 59.5739 162.193 60.6487 159.183 60.4696V61.5803H173.266C173.266 61.5803 173.266 61.222 173.266 60.4696C170.328 60.8279 168.93 59.3589 168.966 56.0985C168.966 56.0985 168.966 51.5841 169.002 42.5195C169.109 39.6532 168.5 36.1778 166.206 34.1356C161.548 29.9436 155.241 34.6372 152.051 38.4708C152.051 38.4708 152.051 36.5003 152.051 32.5591C152.051 32.5591 151.55 32.5591 150.546 32.5591C150.582 32.5233 147.751 33.6698 142.125 35.9987Z" fill="white"/>
<path fill-rule="evenodd" clip-rule="evenodd" d="M190.897 33.168C190.933 33.9562 190.933 34.3503 190.933 34.3503C193.979 34.3145 194.338 35.4968 193.191 38.3989C193.191 38.3989 191.077 43.4866 186.848 53.6619C186.848 53.6619 184.734 49.0759 180.254 40.0112C178.785 37.0733 177.925 34.3145 182.404 34.2787C182.404 34.2787 182.404 33.9204 182.404 33.2038C182.404 33.2038 178.068 33.2038 169.396 33.2038V34.3861C171.331 34.6011 173.087 36.3209 174.592 39.5455C174.592 39.5455 177.889 46.3171 184.483 59.8961C182.476 66.0228 180.362 69.1757 178.14 69.3907C177.638 69.1399 176.491 68.6025 174.628 68.2442C172.191 67.7784 170.471 68.9249 170.65 71.2179C170.901 74.1917 173.445 75.2666 177.101 74.1559C179.896 73.296 182.046 71.1105 183.694 68.1009C183.694 68.1009 187.887 57.9614 196.237 37.6824C197.025 35.5685 198.28 34.422 200 34.2787C200 34.2787 200 33.9204 200 33.168C200.036 33.168 196.99 33.168 190.897 33.168Z" fill="white"/>
<path d="M46.0685 106.393V108.754H44.9209V102.223C45.1945 102.223 45.49 102.22 45.8072 102.214C46.1307 102.207 46.4541 102.204 46.7775 102.204C47.2378 102.204 47.6359 102.263 47.9718 102.382C48.3139 102.493 48.5782 102.652 48.7648 102.857C48.9514 103.056 49.0883 103.277 49.1753 103.52C49.2624 103.756 49.306 104.017 49.306 104.303C49.306 104.894 49.0945 105.395 48.6715 105.806C48.2548 106.216 47.6701 106.421 46.9175 106.421C46.5381 106.421 46.2551 106.412 46.0685 106.393ZM46.8895 103.277L46.0685 103.296V105.302C46.3981 105.333 46.6687 105.348 46.8802 105.348C47.2471 105.348 47.5395 105.258 47.7572 105.078C47.9811 104.898 48.0931 104.636 48.0931 104.294C48.0931 103.616 47.6919 103.277 46.8895 103.277ZM57.485 105.488C57.485 104.537 57.8022 103.737 58.4366 103.091C59.0835 102.444 59.8983 102.12 60.8811 102.12C61.8638 102.12 62.6756 102.431 63.3162 103.053C63.9631 103.681 64.2865 104.493 64.2865 105.488C64.2865 106.465 63.9631 107.27 63.3162 107.905C62.6693 108.539 61.8576 108.857 60.8811 108.857C59.8983 108.857 59.0866 108.546 58.446 107.924C57.8053 107.302 57.485 106.49 57.485 105.488ZM58.6979 105.488C58.6979 106.148 58.9062 106.695 59.323 107.13C59.7397 107.566 60.2591 107.784 60.8811 107.784C61.5528 107.784 62.0847 107.566 62.4765 107.13C62.8746 106.695 63.0736 106.148 63.0736 105.488C63.0736 104.823 62.8622 104.272 62.4392 103.837C62.0162 103.408 61.4969 103.193 60.8811 103.193C60.2529 103.193 59.7304 103.408 59.3136 103.837C58.9031 104.266 58.6979 104.817 58.6979 105.488ZM73.2092 108.754H73.0785V102.223H73.1998C73.4735 102.223 73.7627 102.22 74.0675 102.214C74.6771 102.201 74.9881 102.195 75.0005 102.195C76.2694 102.195 77.2086 102.518 77.8182 103.165C78.3842 103.769 78.6672 104.521 78.6672 105.423C78.6672 106.393 78.3407 107.196 77.6876 107.83C77.0407 108.458 76.1201 108.773 74.9259 108.773C74.6771 108.773 74.4158 108.769 74.1422 108.763C73.8747 108.757 73.5637 108.754 73.2092 108.754ZM74.9819 103.268C74.7393 103.268 74.4874 103.277 74.2261 103.296V107.681C74.5123 107.693 74.7579 107.7 74.9632 107.7C75.7407 107.7 76.3503 107.494 76.7919 107.084C77.2335 106.673 77.4543 106.12 77.4543 105.423C77.4543 104.758 77.2335 104.232 76.7919 103.846C76.3565 103.461 75.7531 103.268 74.9819 103.268ZM86.9729 105.488C86.9729 104.537 87.2901 103.737 87.9246 103.091C88.5714 102.444 89.3863 102.12 90.369 102.12C91.3518 102.12 92.1635 102.431 92.8042 103.053C93.451 103.681 93.7745 104.493 93.7745 105.488C93.7745 106.465 93.451 107.27 92.8042 107.905C92.1573 108.539 91.3456 108.857 90.369 108.857C89.3863 108.857 88.5745 108.546 87.9339 107.924C87.2932 107.302 86.9729 106.49 86.9729 105.488ZM88.1858 105.488C88.1858 106.148 88.3942 106.695 88.8109 107.13C89.2277 107.566 89.747 107.784 90.369 107.784C91.0408 107.784 91.5726 107.566 91.9645 107.13C92.3625 106.695 92.5616 106.148 92.5616 105.488C92.5616 104.823 92.3501 104.272 91.9271 103.837C91.5042 103.408 90.9848 103.193 90.369 103.193C89.7408 103.193 89.2183 103.408 88.8016 103.837C88.3911 104.266 88.1858 104.817 88.1858 105.488ZM106.653 108.754H102.566V102.223H103.714V107.681H106.653V108.754ZM114.383 105.488C114.383 104.537 114.701 103.737 115.335 103.091C115.982 102.444 116.797 102.12 117.78 102.12C118.762 102.12 119.574 102.431 120.215 103.053C120.862 103.681 121.185 104.493 121.185 105.488C121.185 106.465 120.862 107.27 120.215 107.905C119.568 108.539 118.756 108.857 117.78 108.857C116.797 108.857 115.985 108.546 115.344 107.924C114.704 107.302 114.383 106.49 114.383 105.488ZM115.596 105.488C115.596 106.148 115.805 106.695 116.221 107.13C116.638 107.566 117.158 107.784 117.78 107.784C118.451 107.784 118.983 107.566 119.375 107.13C119.773 106.695 119.972 106.148 119.972 105.488C119.972 104.823 119.761 104.272 119.338 103.837C118.915 103.408 118.395 103.193 117.78 103.193C117.151 103.193 116.629 103.408 116.212 103.837C115.802 104.266 115.596 104.817 115.596 105.488ZM134.269 106.309H132.692V105.236H135.342V107.942C135.062 108.222 134.689 108.446 134.222 108.614C133.756 108.776 133.314 108.857 132.897 108.857C131.84 108.857 131.006 108.552 130.397 107.942C129.794 107.339 129.492 106.521 129.492 105.488C129.492 104.531 129.79 103.731 130.388 103.091C130.985 102.444 131.772 102.12 132.748 102.12C133.582 102.12 134.281 102.341 134.847 102.783L134.362 103.697C134.2 103.542 133.986 103.42 133.718 103.333C133.451 103.24 133.174 103.193 132.888 103.193C132.235 103.193 131.709 103.398 131.311 103.809C130.907 104.213 130.705 104.773 130.705 105.488C130.705 106.179 130.907 106.736 131.311 107.158C131.709 107.575 132.244 107.784 132.916 107.784C133.152 107.784 133.407 107.74 133.681 107.653C133.955 107.56 134.151 107.454 134.269 107.336V106.309ZM147.896 102.223H149.137L146.814 106.03V108.754H145.666V106.03L143.362 102.223H144.668L146.291 104.957L147.896 102.223Z" fill="white"/>
<line x1="68" y1="82.1861" x2="132.273" y2="82.1861" stroke="white" stroke-width="0.518334"/>
</svg>
