<svg width="16" height="17" viewBox="0 0 16 17" fill="none" xmlns="http://www.w3.org/2000/svg">
<path d="M15.5753 5.49242L10.5088 0.426047C10.2353 0.152578 9.87063 0.00195312 9.48181 0.00195312C9.09303 0.00195312 8.72828 0.152516 8.45478 0.425984L0.424094 8.45671C0.150625 8.73021 0 9.09489 0 9.48371C0 9.87252 0.150625 10.2373 0.424094 10.5107L1.04884 11.1355C1.04891 11.1355 1.04894 11.1355 1.049 11.1356C1.04906 11.1357 1.04913 11.1357 1.04919 11.1358L5.24794 15.3346H4.66656C4.4825 15.3346 4.33325 15.4838 4.33325 15.6679C4.33325 15.8519 4.4825 16.0012 4.66656 16.0012H6.51622C6.51666 16.0012 6.51706 16.0012 6.5175 16.0012C6.51794 16.0012 6.51834 16.0012 6.51878 16.0012L11.3329 16.0012C11.517 16.0012 11.6663 15.852 11.6663 15.6679C11.6663 15.4838 11.517 15.3346 11.3329 15.3346L7.78719 15.3346L15.5753 7.54642C16.1416 6.98011 16.1416 6.05867 15.5753 5.49242ZM15.1039 7.07505L7.07316 15.1058C6.92588 15.2531 6.729 15.3342 6.51872 15.3346H6.51619C6.30597 15.3342 6.10916 15.2531 5.96194 15.1058L1.75609 10.8999L9.46844 3.18752C9.5986 3.05736 9.5986 2.8463 9.46844 2.71614C9.33825 2.58598 9.12725 2.58598 8.99703 2.71617L1.28469 10.4286L0.895438 10.0393C0.747906 9.8918 0.666656 9.69449 0.666656 9.48374C0.666656 9.27299 0.747906 9.07564 0.895469 8.92808L8.92616 0.897391C9.07372 0.74986 9.27106 0.66861 9.48181 0.66861C9.69256 0.66861 9.88991 0.74986 10.0375 0.897422L11.8407 2.70061L4.12825 10.4131C3.99809 10.5432 3.99809 10.7543 4.12825 10.8845C4.19335 10.9496 4.27866 10.9821 4.36394 10.9821C4.44922 10.9821 4.53453 10.9496 4.59963 10.8845L12.3121 3.17202L15.1039 5.96377C15.4103 6.27014 15.4102 6.76867 15.1039 7.07505Z" fill="white"/>
<path d="M8.21149 9.62886C8.08134 9.4987 7.87034 9.49873 7.74009 9.62886L5.11715 12.2518C4.98699 12.3819 4.98699 12.593 5.11715 12.7232C5.18224 12.7883 5.26755 12.8208 5.35284 12.8208C5.43812 12.8208 5.52343 12.7882 5.58852 12.7232L8.21146 10.1003C8.34165 9.97004 8.34165 9.75901 8.21149 9.62886Z" fill="white"/>
<path d="M7.13824 12.1191L6.06246 13.1949C5.9323 13.3251 5.9323 13.5361 6.06246 13.6663C6.12755 13.7314 6.21287 13.7639 6.29815 13.7639C6.38349 13.7639 6.46874 13.7314 6.53384 13.6663L7.60962 12.5905C7.73977 12.4604 7.73977 12.2493 7.60962 12.1191C7.47946 11.9889 7.26849 11.9889 7.13824 12.1191Z" fill="white"/>
<path d="M8.12577 11.1289L7.98436 11.2702C7.85418 11.4004 7.85418 11.6114 7.98433 11.7416C8.04939 11.8067 8.13474 11.8393 8.22002 11.8393C8.3053 11.8393 8.39061 11.8067 8.45568 11.7416L8.59708 11.6003C8.72727 11.4701 8.72727 11.2591 8.59711 11.1289C8.46702 10.9987 8.25593 10.9987 8.12577 11.1289Z" fill="white"/>
<path d="M12.7215 5.12106C12.659 5.05856 12.5742 5.02344 12.4858 5.02344C12.3974 5.02344 12.3127 5.05856 12.2501 5.12106L10.8359 6.53525C10.7734 6.59778 10.7383 6.68253 10.7383 6.77094C10.7383 6.85934 10.7734 6.94413 10.8359 7.00663L11.7787 7.94934C11.8438 8.01444 11.9291 8.04697 12.0144 8.04697C12.0998 8.04697 12.185 8.01441 12.2501 7.94934L13.6643 6.53522C13.7944 6.40506 13.7944 6.194 13.6643 6.06384L12.7215 5.12106ZM12.0144 7.24231L11.543 6.77094L12.4858 5.82816L12.9572 6.29956L12.0144 7.24231Z" fill="white"/>
<path d="M10.0091 2.50927C10.0944 2.50927 10.1798 2.47671 10.2448 2.41159L10.3862 2.27012C10.5164 2.13993 10.5163 1.92887 10.3861 1.79874C10.256 1.66862 10.0449 1.66865 9.91476 1.79884L9.77335 1.9403C9.64323 2.07049 9.64326 2.28155 9.77345 2.41168C9.83854 2.47677 9.92379 2.50927 10.0091 2.50927Z" fill="white"/>
<path d="M3.3484 11.1914L3.20699 11.3328C3.07684 11.4629 3.07684 11.674 3.20699 11.8042C3.27209 11.8693 3.3574 11.9018 3.44268 11.9018C3.52796 11.9018 3.61327 11.8693 3.67837 11.8042L3.81977 11.6628C3.94993 11.5326 3.94993 11.3215 3.81977 11.1914C3.68959 11.0612 3.47859 11.0612 3.3484 11.1914Z" fill="white"/>
</svg>
