<svg width="13" height="18" viewBox="0 0 13 18" fill="none" xmlns="http://www.w3.org/2000/svg">
<path d="M6.41575 0.666016C2.96982 0.666016 0.166016 3.41866 0.166016 6.80208C0.166016 7.6846 0.350005 8.52721 0.712598 9.30672C2.27521 12.6637 5.27116 16.208 6.15237 17.2141C6.21839 17.2894 6.31464 17.3327 6.41593 17.3327C6.51722 17.3327 6.61347 17.2894 6.67949 17.2141C7.56035 16.2081 10.5563 12.664 12.1194 9.30672C12.4822 8.52721 12.666 7.6846 12.666 6.80208C12.6657 3.41866 9.86187 0.666016 6.41575 0.666016ZM6.41575 9.98916C4.62572 9.98916 3.16927 8.55928 3.16927 6.80191C3.16927 5.04436 4.62572 3.61448 6.41575 3.61448C8.20579 3.61448 9.66224 5.04436 9.66224 6.80191C9.66242 8.55928 8.20596 9.98916 6.41575 9.98916Z" fill="#4D5259"/>
</svg>
