<svg width="198" height="197" viewBox="0 0 198 197" fill="none" xmlns="http://www.w3.org/2000/svg">
<g filter="url(#filter0_d)">
<circle cx="92" cy="95" r="62" fill="#EDE1DF"/>
</g>
<g filter="url(#filter1_d)">
<circle cx="143" cy="45" r="25" fill="#EDE1DF"/>
</g>
<path d="M77.6 110.845C74.9133 110.845 72.5083 110.26 70.385 109.09C68.305 107.92 66.6583 106.317 65.445 104.28C64.275 102.2 63.69 99.8817 63.69 97.325C63.69 94.7683 64.275 92.4933 65.445 90.5C66.6583 88.4633 68.305 86.8817 70.385 85.755C72.5083 84.6283 74.9133 84.065 77.6 84.065C80.2867 84.065 82.67 84.65 84.75 85.82C86.83 86.9467 88.4333 88.5283 89.56 90.565C90.73 92.6017 91.315 94.8983 91.315 97.455C91.315 100.012 90.73 102.308 89.56 104.345C88.39 106.382 86.765 107.985 84.685 109.155C82.605 110.282 80.2433 110.845 77.6 110.845ZM78.25 109.48C80.2433 109.48 81.7383 108.505 82.735 106.555C83.775 104.605 84.295 101.875 84.295 98.365C84.295 93.9883 83.6017 90.7383 82.215 88.615C80.8717 86.4917 79.16 85.43 77.08 85.43C75.0433 85.43 73.4617 86.4483 72.335 88.485C71.2083 90.4783 70.645 93.1867 70.645 96.61C70.645 100.467 71.3383 103.587 72.725 105.97C74.1117 108.31 75.9533 109.48 78.25 109.48ZM95.3816 108.245C99.1516 104.778 101.903 102.178 103.637 100.445C105.37 98.6683 106.583 97.1517 107.277 95.895C108.013 94.6383 108.382 93.36 108.382 92.06C108.382 90.4567 107.97 89.07 107.147 87.9C106.323 86.6867 105.153 86.08 103.637 86.08C102.033 86.08 100.712 86.795 99.6716 88.225C98.6749 89.6117 97.6566 91.7783 96.6166 94.725C96.6166 94.7683 96.5299 94.79 96.3566 94.79C95.9666 94.79 95.7932 94.725 95.8366 94.595L98.6966 83.48C98.6966 83.3933 98.7832 83.35 98.9566 83.35C99.0866 83.35 99.1949 83.3933 99.2816 83.48C99.4116 83.5233 99.4549 83.5667 99.4116 83.61C99.3682 83.8267 99.3466 84.0867 99.3466 84.39C99.3466 85.1267 99.6716 85.495 100.322 85.495C100.712 85.495 101.362 85.3433 102.272 85.04C104.135 84.39 105.847 84.065 107.407 84.065C109.79 84.065 111.653 84.6283 112.997 85.755C114.34 86.8817 115.012 88.3767 115.012 90.24C115.012 92.4933 114.123 94.5517 112.347 96.415C110.613 98.235 108.208 100.228 105.132 102.395L102.532 104.345C102.402 104.475 102.358 104.583 102.402 104.67C102.488 104.757 102.64 104.8 102.857 104.8C106.323 104.8 108.923 104.735 110.657 104.605C112.433 104.475 113.82 104.193 114.817 103.76C115.857 103.283 116.528 102.547 116.832 101.55C116.875 101.42 117.005 101.355 117.222 101.355C117.482 101.355 117.612 101.42 117.612 101.55L116.247 109.285C116.247 109.458 116.182 109.632 116.052 109.805C115.965 109.935 115.835 110 115.662 110H95.7716C95.5982 110 95.4466 109.87 95.3166 109.61C95.2299 109.35 95.1866 109.09 95.1866 108.83C95.1866 108.57 95.2516 108.375 95.3816 108.245Z" fill="#556278"/>
<defs>
<filter id="filter0_d" x="0" y="13" width="184" height="184" filterUnits="userSpaceOnUse" color-interpolation-filters="sRGB">
<feFlood flood-opacity="0" result="BackgroundImageFix"/>
<feColorMatrix in="SourceAlpha" type="matrix" values="0 0 0 0 0 0 0 0 0 0 0 0 0 0 0 0 0 0 127 0"/>
<feOffset dy="10"/>
<feGaussianBlur stdDeviation="15"/>
<feColorMatrix type="matrix" values="0 0 0 0 0.188235 0 0 0 0 0.188235 0 0 0 0 0.254902 0 0 0 0.08 0"/>
<feBlend mode="normal" in2="BackgroundImageFix" result="effect1_dropShadow"/>
<feBlend mode="normal" in="SourceGraphic" in2="effect1_dropShadow" result="shape"/>
</filter>
<filter id="filter1_d" x="88" y="0" width="110" height="110" filterUnits="userSpaceOnUse" color-interpolation-filters="sRGB">
<feFlood flood-opacity="0" result="BackgroundImageFix"/>
<feColorMatrix in="SourceAlpha" type="matrix" values="0 0 0 0 0 0 0 0 0 0 0 0 0 0 0 0 0 0 127 0"/>
<feOffset dy="10"/>
<feGaussianBlur stdDeviation="15"/>
<feColorMatrix type="matrix" values="0 0 0 0 0.188235 0 0 0 0 0.188235 0 0 0 0 0.254902 0 0 0 0.18 0"/>
<feBlend mode="normal" in2="BackgroundImageFix" result="effect1_dropShadow"/>
<feBlend mode="normal" in="SourceGraphic" in2="effect1_dropShadow" result="shape"/>
</filter>
</defs>
</svg>
