<svg width="404" height="291" viewBox="0 0 404 291" fill="none" xmlns="http://www.w3.org/2000/svg">
<g filter="url(#filter0_d)">
<mask id="mask0" mask-type="alpha" maskUnits="userSpaceOnUse" x="50" y="35" width="324" height="216">
<rect x="50" y="35.002" width="324" height="215" fill="#BAD64D"/>
</mask>
<g mask="url(#mask0)">
<rect x="-155" y="1.00195" width="554" height="309" fill="#4D5259"/>
<path d="M350.91 189.232V145.567C350.91 133.105 360.964 123.002 373.361 123.002C385.759 123.002 395.812 133.105 395.812 145.567V232.898C395.812 245.36 385.759 255.463 373.361 255.463C360.964 255.463 350.91 245.36 350.91 232.898V222.348" stroke="#7F8597" stroke-width="15" stroke-linejoin="round"/>
<path d="M317 161.002V274.626C317 308.588 344.642 336.12 378.74 336.12C412.838 336.12 440.48 308.588 440.48 274.626V247.78" stroke="#EDE1DF" stroke-width="15" stroke-linejoin="round"/>
<path d="M270.999 50.002H303.407C326.84 50.002 345.836 69.1 345.836 92.6588" stroke="#7F8597" stroke-width="15" stroke-linejoin="round"/>
<path d="M162.374 227.002C162.374 231.545 162.374 300.755 162.374 328.78" stroke="#EDE1DF" stroke-width="15" stroke-linejoin="round"/>
<path d="M219.353 45.002C219.367 52.4856 219.381 59.9693 219.396 67.4529" stroke="#9DA4B7" stroke-width="15" stroke-linejoin="round"/>
<path d="M80.6441 197.556C80.6441 215.535 66.1732 230.11 48.3221 230.11C30.4709 230.11 16 215.535 16 197.556C16 179.577 30.4709 165.002 48.3221 165.002H111.791" stroke="#A9A8C6" stroke-width="15" stroke-linejoin="round"/>
</g>
</g>
<g filter="url(#filter1_d)">
<circle cx="80" cy="70.002" r="50" fill="#9FA6BA"/>
</g>
<path d="M41.408 72.226C41.3493 72.2553 41.2907 72.1233 41.232 71.83C41.2027 71.5366 41.188 71.2286 41.188 70.906C41.188 70.202 41.232 69.85 41.32 69.85L52.804 67.782C52.8627 67.7526 52.9067 67.87 52.936 68.134C52.9947 68.3686 53.024 68.6326 53.024 68.926C53.024 69.2193 52.9947 69.498 52.936 69.762C52.9067 69.9966 52.8627 70.1286 52.804 70.158L41.408 72.226ZM73.1427 76.89C73.2307 76.89 73.2747 77.1246 73.2747 77.594C73.2747 77.9166 73.2453 78.2246 73.1867 78.518C73.1573 78.8113 73.1133 78.958 73.0547 78.958L70.1507 78.826V84.942C70.1507 85.2353 70.0333 85.4406 69.7987 85.558L66.3227 87.274C66.1467 87.3326 66.0587 87.362 66.0587 87.362C65.9707 87.362 65.9267 87.2446 65.9267 87.01V78.694C64.1667 78.6646 60.9107 78.65 56.1587 78.65C56.012 78.65 55.8947 78.5913 55.8067 78.474C55.7187 78.3566 55.7333 78.2393 55.8507 78.122L69.4907 61.578C69.5493 61.5193 69.6373 61.49 69.7547 61.49C69.8427 61.49 69.9307 61.5193 70.0187 61.578C70.1067 61.6073 70.1507 61.666 70.1507 61.754V76.978C70.7373 76.978 71.7347 76.9486 73.1427 76.89ZM58.7987 77.154C62.2013 77.154 64.5773 77.1393 65.9267 77.11V68.222L58.5787 76.846C58.4027 77.0513 58.476 77.154 58.7987 77.154ZM85.7291 79.574C83.9104 79.574 82.2824 79.178 80.8451 78.386C79.4371 77.594 78.3224 76.5086 77.5011 75.13C76.7091 73.722 76.3131 72.1526 76.3131 70.422C76.3131 68.6913 76.7091 67.1513 77.5011 65.802C78.3224 64.4233 79.4371 63.3526 80.8451 62.59C82.2824 61.8273 83.9104 61.446 85.7291 61.446C87.5477 61.446 89.1611 61.842 90.5691 62.634C91.9771 63.3966 93.0624 64.4673 93.8251 65.846C94.6171 67.2246 95.0131 68.7793 95.0131 70.51C95.0131 72.2406 94.6171 73.7953 93.8251 75.174C93.0331 76.5526 91.9331 77.638 90.5251 78.43C89.1171 79.1926 87.5184 79.574 85.7291 79.574ZM86.1691 78.65C87.5184 78.65 88.5304 77.99 89.2051 76.67C89.9091 75.35 90.2611 73.502 90.2611 71.126C90.2611 68.1633 89.7917 65.9633 88.8531 64.526C87.9437 63.0886 86.7851 62.37 85.3771 62.37C83.9984 62.37 82.9277 63.0593 82.1651 64.438C81.4024 65.7873 81.0211 67.6206 81.0211 69.938C81.0211 72.5486 81.4904 74.6606 82.4291 76.274C83.3677 77.858 84.6144 78.65 86.1691 78.65ZM103.178 65.67C101.506 65.67 100.112 65.1273 98.9978 64.042C97.9125 62.9273 97.3698 61.5633 97.3698 59.95C97.3698 58.3953 97.9125 57.0753 98.9978 55.99C100.112 54.9046 101.506 54.362 103.178 54.362C104.85 54.362 106.214 54.9193 107.27 56.034C108.355 57.1193 108.898 58.4686 108.898 60.082C108.898 61.666 108.355 63.0006 107.27 64.086C106.184 65.142 104.82 65.67 103.178 65.67ZM101.418 79.354C101.359 79.442 101.11 79.3246 100.67 79.002C100.23 78.7086 100.039 78.518 100.098 78.43L116.378 54.494C116.466 54.406 116.73 54.538 117.17 54.89C117.61 55.2126 117.8 55.4033 117.742 55.462L101.418 79.354ZM103.486 64.966C104.219 64.966 104.703 64.5846 104.938 63.822C105.172 63.03 105.29 61.886 105.29 60.39C105.29 58.63 105.084 57.31 104.674 56.43C104.263 55.5206 103.676 55.066 102.914 55.066C102.151 55.066 101.623 55.4913 101.33 56.342C101.066 57.1633 100.934 58.322 100.934 59.818C100.934 63.25 101.784 64.966 103.486 64.966ZM115.366 79.222C113.694 79.222 112.3 78.6793 111.186 77.594C110.1 76.4793 109.558 75.1153 109.558 73.502C109.558 71.9473 110.1 70.6273 111.186 69.542C112.3 68.4273 113.694 67.87 115.366 67.87C117.038 67.87 118.402 68.4273 119.458 69.542C120.543 70.6566 121.086 72.006 121.086 73.59C121.086 75.174 120.543 76.5086 119.458 77.594C118.402 78.6793 117.038 79.222 115.366 79.222ZM115.674 78.474C116.407 78.474 116.891 78.0926 117.126 77.33C117.36 76.5673 117.478 75.4233 117.478 73.898C117.478 72.1673 117.272 70.862 116.862 69.982C116.451 69.0726 115.864 68.618 115.102 68.618C114.368 68.618 113.855 69.0433 113.562 69.894C113.298 70.7153 113.166 71.8593 113.166 73.326C113.166 74.9393 113.342 76.2006 113.694 77.11C114.075 78.0193 114.735 78.474 115.674 78.474Z" fill="white"/>
<defs>
<filter id="filter0_d" x="20" y="15.002" width="384" height="275" filterUnits="userSpaceOnUse" color-interpolation-filters="sRGB">
<feFlood flood-opacity="0" result="BackgroundImageFix"/>
<feColorMatrix in="SourceAlpha" type="matrix" values="0 0 0 0 0 0 0 0 0 0 0 0 0 0 0 0 0 0 127 0"/>
<feOffset dy="10"/>
<feGaussianBlur stdDeviation="15"/>
<feColorMatrix type="matrix" values="0 0 0 0 0 0 0 0 0 0 0 0 0 0 0 0 0 0 0.18 0"/>
<feBlend mode="normal" in2="BackgroundImageFix" result="effect1_dropShadow"/>
<feBlend mode="normal" in="SourceGraphic" in2="effect1_dropShadow" result="shape"/>
</filter>
<filter id="filter1_d" x="0" y="0.00195312" width="160" height="160" filterUnits="userSpaceOnUse" color-interpolation-filters="sRGB">
<feFlood flood-opacity="0" result="BackgroundImageFix"/>
<feColorMatrix in="SourceAlpha" type="matrix" values="0 0 0 0 0 0 0 0 0 0 0 0 0 0 0 0 0 0 127 0"/>
<feOffset dy="10"/>
<feGaussianBlur stdDeviation="15"/>
<feColorMatrix type="matrix" values="0 0 0 0 0 0 0 0 0 0 0 0 0 0 0 0 0 0 0.18 0"/>
<feBlend mode="normal" in2="BackgroundImageFix" result="effect1_dropShadow"/>
<feBlend mode="normal" in="SourceGraphic" in2="effect1_dropShadow" result="shape"/>
</filter>
</defs>
</svg>
