<svg width="360" height="360" viewBox="0 0 360 360" fill="none" xmlns="http://www.w3.org/2000/svg">
<path d="M174.022 353.235C174.751 353.796 175.517 354.273 176.336 354.618C176.358 354.626 176.379 354.646 176.401 354.66C176.404 354.664 176.411 354.664 176.419 354.664C177.293 355.016 178.206 355.217 179.124 355.331C179.345 355.355 179.563 355.378 179.782 355.388C180.693 355.441 181.603 355.42 182.505 355.242C182.531 355.238 182.553 355.224 182.578 355.22C183.442 355.04 184.277 354.722 185.084 354.321C185.286 354.224 185.478 354.123 185.672 354.009C186.475 353.546 187.248 353.018 187.932 352.331L240.203 299.785C244.325 295.641 244.307 288.933 240.164 284.811C236.02 280.689 229.312 280.707 225.19 284.85L190.949 319.271L190.715 229.9C212.155 227.458 232.008 217.943 247.435 202.435C284.491 165.185 284.332 104.726 247.082 67.671C209.832 30.6155 149.373 30.7742 112.318 68.0248C75.262 105.275 75.4203 165.734 112.671 202.789C128.171 218.209 148.067 227.619 169.537 229.952L169.772 319.33L135.347 285.086C131.203 280.964 124.495 280.982 120.373 285.125C116.251 289.269 116.269 295.977 120.413 300.099L172.958 352.37C173.116 352.527 173.302 352.64 173.466 352.784C173.649 352.944 173.832 353.09 174.022 353.235ZM127.331 82.9593C156.155 53.9832 203.171 53.8597 232.147 82.6841C261.123 111.508 261.246 158.525 232.422 187.501C218.466 201.53 199.866 209.305 180.091 209.392C160.275 209.409 141.634 201.731 127.605 187.776C98.6293 158.952 98.5062 111.935 127.331 82.9593Z" fill="#3A405B" fill-opacity="0.06"/>
</svg>
