<svg width="20" height="21" viewBox="0 0 20 21" fill="none" xmlns="http://www.w3.org/2000/svg">
<circle cx="10" cy="10.998" r="10" fill="#EDE1DF"/>
<path d="M12.0047 10.0032C11.5796 9.76823 11.1276 9.58923 10.6801 9.40353C10.4206 9.29613 10.1722 9.17083 9.95297 8.99631C9.52114 8.65174 9.60393 8.09238 10.1096 7.87088C10.2528 7.80823 10.4027 7.78809 10.5548 7.77914C11.141 7.74782 11.6982 7.85522 12.2284 8.11028C12.4925 8.23782 12.5797 8.19754 12.6692 7.92234C12.7632 7.63147 12.8415 7.33613 12.9288 7.04302C12.9869 6.84613 12.9153 6.71636 12.7296 6.63357C12.3895 6.48366 12.0405 6.37627 11.6736 6.31809C11.1947 6.24426 11.1947 6.24202 11.1925 5.76097C11.1903 5.08303 11.1903 5.08303 10.5101 5.08303C10.4116 5.08303 10.3132 5.08079 10.2147 5.08303C9.89703 5.09198 9.84333 5.14791 9.83438 5.46787C9.82991 5.61106 9.83438 5.75426 9.83215 5.89969C9.82991 6.32481 9.82767 6.31809 9.42046 6.46576C8.43598 6.82376 7.8274 7.49499 7.76251 8.56896C7.70434 9.51987 8.20105 10.162 8.98192 10.6296C9.46297 10.9183 9.99548 11.0883 10.5056 11.3143C10.7047 11.4016 10.8949 11.5022 11.0605 11.641C11.5505 12.0459 11.461 12.7194 10.8793 12.9745C10.5683 13.111 10.2394 13.1445 9.90151 13.102C9.38018 13.0371 8.88123 12.9006 8.41137 12.6568C8.13617 12.5136 8.05562 12.5516 7.96164 12.8492C7.8811 13.1065 7.8095 13.366 7.7379 13.6256C7.64169 13.9746 7.67749 14.0574 8.01087 14.2207C8.43598 14.4266 8.89018 14.5317 9.35333 14.6056C9.7158 14.6638 9.72699 14.6794 9.73146 15.0553C9.7337 15.2253 9.7337 15.3976 9.73594 15.5677C9.73817 15.7825 9.8411 15.9078 10.0626 15.9122C10.3132 15.9167 10.566 15.9167 10.8166 15.91C11.0225 15.9055 11.1276 15.7937 11.1276 15.5856C11.1276 15.3529 11.1388 15.118 11.1299 14.8853C11.1187 14.6481 11.2216 14.5273 11.4498 14.4646C11.9756 14.3214 12.4231 14.0395 12.7677 13.6189C13.7253 12.4554 13.3606 10.7527 12.0047 10.0032Z" fill="#7F8597"/>
</svg>
