<svg width="20" height="21" viewBox="0 0 20 21" fill="none" xmlns="http://www.w3.org/2000/svg">
<circle cx="10" cy="10.998" r="10" fill="#EDE1DF"/>
<path d="M10.4986 5.08203C7.50715 5.08203 5.08203 7.50722 5.08203 10.4986C5.08203 13.49 7.50715 15.9154 10.4986 15.9154C13.4901 15.9154 15.9154 13.49 15.9154 10.4986C15.9154 7.50722 13.4901 5.08203 10.4986 5.08203ZM12.8403 11.5288H10.5439C10.5362 11.5288 10.5289 11.527 10.5212 11.5267C10.5136 11.527 10.5064 11.5288 10.4986 11.5288C10.2917 11.5288 10.1239 11.3611 10.1239 11.1542V7.32995C10.1239 7.12307 10.2917 6.95533 10.4986 6.95533C10.7055 6.95533 10.8732 7.12307 10.8732 7.32995V10.7796H12.8402C13.0471 10.7796 13.2148 10.9473 13.2148 11.1542C13.2148 11.3611 13.0472 11.5288 12.8403 11.5288Z" fill="#7F8597"/>
</svg>
