<svg width="264" height="100" viewBox="0 0 264 100" fill="none" xmlns="http://www.w3.org/2000/svg">
<path fill-rule="evenodd" clip-rule="evenodd" d="M36.269 7.37226C34.6512 8.95415 33.673 10.3563 33.2967 11.327C25.9602 3.3816 12.9048 3.4535 5.79401 9.67319C3.38611 11.7584 1.65543 14.5626 1.05346 17.9781C-1.31682 31.1724 14.786 36.2776 24.6433 41.9221C39.2789 51.1617 26.2988 65.6863 10.0455 56.95C4.40194 53.93 2.97225 49.5079 1.7683 43.8994C1.80592 43.2163 1.20395 43.0366 0 43.3601V62.0911H1.58018C1.84355 60.0059 2.74651 58.9633 4.32669 58.9992C6.35836 59.5026 8.54052 60.0418 10.7603 60.9047C18.6612 63.9606 28.3304 63.3854 33.9363 58.4959C41.461 51.9527 39.8432 40.448 31.0393 35.3429C24.7186 31.6758 18.2474 28.3682 11.9266 24.6651C4.25145 19.3083 6.65935 10.7158 16.0276 9.45748C24.6433 8.30701 30.9265 15.2817 34.2749 21.8609C34.8017 23.1192 35.1403 23.4787 35.2531 22.9395C34.8769 17.8702 35.4036 11.9022 40.4452 9.06201C46.2768 5.75443 53.1243 9.99675 52.5223 17.9781C52.1084 23.9461 47.3679 31.2084 41.6868 34.0486V34.48H46.3521V56.3028C46.653 63.7808 57.6391 63.5292 59.6708 55.6557C59.8589 54.9367 58.4668 55.6557 58.4668 55.6557C56.0965 59.0352 51.8075 59.0711 51.8075 54.4693C51.7698 41.239 51.8075 34.4081 51.8075 34.4081H58.6925C58.6925 33.006 58.6925 32.3229 58.6925 32.3229C54.0649 32.3229 51.7698 32.3229 51.7698 32.3229C51.7698 28.9794 51.7698 27.2896 51.7698 27.2896C53.9144 23.8742 55.8708 19.2724 55.8332 15.2817C55.7955 12.1539 54.6668 9.16986 51.8827 6.94084C47.4431 3.34565 40.4076 3.3816 36.269 7.37226Z" fill="#4D5259"/>
<path fill-rule="evenodd" clip-rule="evenodd" d="M79.9498 42.1378C79.9498 42.1378 75.3597 42.1378 66.142 42.1378C67.9855 31.7477 79.6864 32.6105 79.9498 42.1378ZM66.142 44.1151C79.9498 43.9713 86.8725 44.0073 86.8725 44.0073C86.1576 36.709 82.5458 32.7903 76.0369 32.4667C56.6985 32.3589 57.1124 60.2935 72.6885 62.4506C78.5201 63.2775 84.8032 59.8261 86.722 51.3774C86.12 50.9101 85.819 50.6943 85.819 50.6943C83.9002 56.0152 79.9874 58.1364 74.0429 57.0219C68.6251 54.8648 65.9915 50.5865 66.142 44.1151Z" fill="#4D5259"/>
<path fill-rule="evenodd" clip-rule="evenodd" d="M98.009 35.4148H107.866V54.1098C107.866 58.7835 106.399 60.4373 102.75 60.4014C99.0625 60.3654 97.9714 58.6757 97.9714 54.5052C98.009 48.1418 98.009 41.7783 98.009 35.4148ZM98.009 9.13391C97.4823 0.936865 104.555 0.0740193 109.221 6.50941C108.205 9.062 108.017 10.536 107.866 14.6705V33.006C101.282 33.006 98.009 33.006 98.009 33.006C98.009 17.1152 98.009 9.13391 98.009 9.13391ZM128.145 3.59731C123.254 -0.932635 117.949 -1.1843 112.268 2.84232C109.258 0.28973 105.759 -0.501212 101.734 0.46949C95.8269 2.08733 92.7418 6.18585 92.4784 12.765V33.0779H86.8725V35.4507H92.4784V57.4533C92.215 59.3947 90.4467 60.4014 87.1359 60.4014V61.444H120.169C120.169 60.689 120.169 60.2935 120.169 60.2935C115.918 60.653 113.66 59.6464 113.472 57.2016V35.4148H120.809V33.0419H113.472V12.8729C113.247 6.50941 114.225 3.05803 116.445 2.51875C118.702 1.97947 120.282 2.51875 121.147 4.13659C122.351 6.79703 123.932 8.0913 125.85 8.01939C128.484 7.55202 129.236 6.07799 128.145 3.59731Z" fill="#4D5259"/>
<path fill-rule="evenodd" clip-rule="evenodd" d="M138.642 45.0499C138.718 52.1324 138.718 55.6917 138.718 55.6917C134.955 58.6038 129.726 61.3721 127.807 55.0445C126.038 49.2922 133.939 46.6677 138.642 45.0499ZM138.642 57.8488C134.128 61.8394 126.076 65.4706 122.502 58.2083C121.035 55.2243 122.201 51.1617 125.926 48.681C128.747 46.8115 132.999 44.9061 138.567 42.9287C138.718 40.2683 138.793 36.3855 135.858 35.0553C132.322 33.4734 128.409 35.271 128.71 39.3695C129.086 44.7982 122.05 43.7556 123.405 38.4347C124.722 33.2577 132.096 32.3229 136.761 32.7903C141.991 33.2936 144.248 35.7383 144.173 41.5625V52.5279C144.173 53.7143 143.985 57.5252 145.038 58.2442C146.393 59.179 148.387 56.7702 149.215 55.9433V57.7409C147.86 60.0059 143.91 63.3494 140.937 62.2349C139.432 61.7316 138.68 60.0778 138.642 57.8488Z" fill="#4D5259"/>
<path fill-rule="evenodd" clip-rule="evenodd" d="M149.215 35.9181C149.628 36.709 149.816 37.1045 149.816 37.1045C149.816 37.1045 150.23 36.8888 151.058 36.6731C152.864 36.2057 153.955 37.1405 154.218 39.3695C154.218 39.3695 154.218 44.9061 154.256 55.9433C154.256 58.1723 153.767 59.1071 152.864 59.8621C152.074 60.5092 151.02 60.4013 149.553 60.4733V61.6597H164.49C164.49 61.6597 164.49 61.2642 164.49 60.4733C162.872 60.5811 161.593 60.3294 160.765 59.7542C159.975 59.2149 159.636 57.8128 159.674 55.6197C159.674 55.6197 159.674 50.5505 159.674 40.3761C160.727 39.2616 162.044 38.219 163.549 37.2843C165.393 36.2776 167.199 36.0259 168.892 36.5293C172.127 37.5 172.052 41.8861 171.977 44.4746C171.977 44.4746 172.052 48.717 171.977 57.2376C171.977 59.5745 170.284 60.653 167.123 60.4733V61.5878H181.909C181.909 61.5878 181.909 61.2282 181.909 60.4733C178.824 60.8328 177.357 59.3587 177.394 56.0871C177.394 56.0871 177.394 51.5572 177.432 42.4613C177.545 39.5852 176.905 36.0979 174.497 34.0486C169.606 29.8422 162.985 34.5519 159.636 38.3988C159.636 38.3988 159.636 36.4214 159.636 32.4667C159.636 32.4667 159.109 32.4667 158.056 32.4667C158.094 32.4308 155.121 33.5812 149.215 35.9181Z" fill="#4D5259"/>
<path fill-rule="evenodd" clip-rule="evenodd" d="M200.42 33.0779C200.458 33.8688 200.458 34.2643 200.458 34.2643C203.656 34.2284 204.032 35.4148 202.828 38.3269C202.828 38.3269 200.608 43.432 196.169 53.6424C196.169 53.6424 193.949 49.0405 189.246 39.9447C187.703 36.9966 186.8 34.2284 191.503 34.1924C191.503 34.1924 191.503 33.8329 191.503 33.1138C191.503 33.1138 186.951 33.1138 177.846 33.1138V34.3003C179.878 34.516 181.721 36.2417 183.301 39.4773C183.301 39.4773 186.763 46.2722 193.685 59.898C191.579 66.0458 189.359 69.2096 187.026 69.4253C186.499 69.1736 185.295 68.6343 183.339 68.2748C180.781 67.8074 178.975 68.9579 179.163 71.2588C179.426 74.2429 182.097 75.3214 185.935 74.2069C188.87 73.344 191.127 71.151 192.858 68.131C192.858 68.131 197.26 57.9566 206.026 37.6078C206.854 35.4867 208.17 34.3362 209.976 34.1924C209.976 34.1924 209.976 33.8329 209.976 33.0779C210.014 33.0779 206.816 33.0779 200.42 33.0779Z" fill="#4D5259"/>
<path d="M67.9367 82.5254H62.2162V73.7874H63.8226V81.0899H67.9367V82.5254Z" fill="#4D5259"/>
<path d="M80.2512 82.5254H78.6317L82.4976 73.7625H83.9082L87.7741 82.5254H86.0631L85.1097 80.291H81.2046L80.2512 82.5254ZM84.4959 78.8555L83.1637 75.7472L81.8185 78.8555H84.4959Z" fill="#4D5259"/>
<path d="M103.262 80.2036C103.262 79.9373 103.157 79.7043 102.948 79.5046C102.748 79.2965 102.496 79.1301 102.191 79.0053C101.886 78.8721 101.551 78.7223 101.185 78.5559C100.828 78.3811 100.497 78.2022 100.193 78.0191C99.8879 77.8277 99.631 77.5656 99.4221 77.2327C99.2218 76.8915 99.1217 76.5004 99.1217 76.0593C99.1217 75.3852 99.3785 74.8152 99.8923 74.3492C100.423 73.8831 101.116 73.6501 101.969 73.6501C103.127 73.6501 103.998 73.9622 104.581 74.5863L103.719 75.7348C103.258 75.302 102.718 75.0856 102.099 75.0856C101.708 75.0856 101.394 75.173 101.159 75.3478C100.933 75.5226 100.82 75.7556 100.82 76.0468C100.82 76.1966 100.85 76.3381 100.911 76.4712C100.972 76.5961 101.037 76.7001 101.107 76.7833C101.185 76.8665 101.307 76.9581 101.473 77.0579C101.647 77.1578 101.782 77.2327 101.877 77.2826C101.982 77.3242 102.152 77.395 102.387 77.4948C102.622 77.5947 102.787 77.6654 102.883 77.707C103.266 77.8735 103.601 78.0482 103.889 78.2313C104.211 78.4144 104.468 78.6765 104.659 79.0177C104.86 79.3589 104.96 79.7501 104.96 80.1911C104.96 80.9235 104.668 81.5185 104.085 81.9762C103.501 82.4339 102.774 82.6627 101.904 82.6627C101.294 82.6627 100.689 82.5421 100.088 82.3007C99.5135 82.0511 99.1217 81.714 98.9127 81.2896L99.8269 80.2411C100.071 80.549 100.384 80.7903 100.767 80.9651C101.159 81.1398 101.547 81.2272 101.93 81.2272C102.33 81.2272 102.652 81.1357 102.896 80.9526C103.14 80.7695 103.262 80.5198 103.262 80.2036Z" fill="#4D5259"/>
<path d="M122.679 82.5254H117.259V73.7874H122.549V75.223H118.866V77.395H122.157V78.8305H118.866V81.0899H122.679V82.5254Z" fill="#4D5259"/>
<path d="M136.827 79.2549V82.5254H135.22V73.7874C135.673 73.7874 136.165 73.7833 136.696 73.7749C137.227 73.7666 137.662 73.7625 138.002 73.7625C140.214 73.7625 141.319 74.6612 141.319 76.4588C141.319 77.1245 141.141 77.6738 140.784 78.1065C140.427 78.5226 140.018 78.8055 139.556 78.9553L142.417 82.5254H140.471L137.95 79.2549H136.827ZM137.924 75.198C137.88 75.198 137.811 75.2022 137.715 75.2105C137.619 75.2105 137.484 75.2146 137.31 75.223C137.136 75.223 136.975 75.223 136.827 75.223V77.8194H137.871C138.385 77.8194 138.803 77.6987 139.125 77.4574C139.456 77.2161 139.622 76.8873 139.622 76.4712C139.622 75.6224 139.056 75.198 137.924 75.198Z" fill="#4D5259"/>
<path d="M162.18 82.5254H160.312L159.542 81.6142C158.871 82.3132 157.974 82.6627 156.851 82.6627C155.937 82.6627 155.197 82.4297 154.631 81.9637C154.065 81.4893 153.782 80.886 153.782 80.1537C153.782 79.4963 153.952 78.9553 154.291 78.5309C154.657 78.0815 155.162 77.6446 155.806 77.2202C155.11 76.904 154.761 76.3464 154.761 75.5475C154.761 74.965 154.975 74.5073 155.401 74.1744C155.837 73.8249 156.346 73.6501 156.929 73.6501C157.513 73.6501 158.022 73.8249 158.458 74.1744C158.884 74.5073 159.098 74.965 159.098 75.5475C159.098 75.922 158.98 76.2715 158.745 76.5961C158.519 76.9206 158.244 77.1328 157.922 77.2327L159.698 79.4422C160.108 78.6765 160.312 77.8319 160.312 76.9081H161.801C161.801 78.3312 161.401 79.5587 160.6 80.5906L162.18 82.5254ZM156.903 81.2272C157.67 81.2272 158.249 80.9734 158.64 80.4658L156.786 78.0441C156.307 78.4102 155.967 78.7306 155.767 79.0053C155.576 79.2716 155.48 79.5587 155.48 79.8666C155.48 80.2494 155.615 80.5739 155.885 80.8402C156.163 81.0982 156.503 81.2272 156.903 81.2272ZM156.159 75.5475C156.159 75.7472 156.233 75.9178 156.381 76.0593C156.529 76.2008 156.712 76.2715 156.929 76.2715C157.147 76.2715 157.33 76.2008 157.478 76.0593C157.626 75.9178 157.7 75.7472 157.7 75.5475C157.7 75.3395 157.622 75.1647 157.465 75.0232C157.317 74.8818 157.138 74.811 156.929 74.811C156.712 74.811 156.529 74.8818 156.381 75.0232C156.233 75.1647 156.159 75.3395 156.159 75.5475Z" fill="#4D5259"/>
<path d="M68.5636 97.8654L69.1775 99.0139C68.8901 99.3051 68.4766 99.5423 67.9367 99.7254C67.4056 99.9085 66.844 100 66.2519 100C64.8588 100 63.7225 99.5881 62.8431 98.7642C61.9724 97.9403 61.537 96.8502 61.537 95.4937C61.537 94.1955 61.9506 93.1178 62.7778 92.2606C63.5963 91.4118 64.7412 90.9874 66.2127 90.9874C67.3795 90.9874 68.3068 91.2828 68.9946 91.8737L68.2763 93.0096C67.6581 92.6185 66.9702 92.4229 66.2127 92.4229C65.342 92.4229 64.628 92.7017 64.0708 93.2593C63.5135 93.8168 63.2349 94.5616 63.2349 95.4937C63.2349 96.4091 63.5266 97.1498 64.11 97.7157C64.702 98.2815 65.4639 98.5645 66.3956 98.5645C67.1966 98.5645 67.9193 98.3315 68.5636 97.8654Z" fill="#4D5259"/>
<path d="M80.1611 95.4937C80.1611 94.2205 80.6052 93.1511 81.4933 92.2856C82.3988 91.4201 83.5394 90.9874 84.9151 90.9874C86.2909 90.9874 87.4271 91.4035 88.324 92.2357C89.2295 93.0762 89.6823 94.1622 89.6823 95.4937C89.6823 96.8002 89.2295 97.8779 88.324 98.7268C87.4184 99.5756 86.2822 100 84.9151 100C83.5394 100 82.4032 99.5839 81.5063 98.7517C80.6095 97.9195 80.1611 96.8335 80.1611 95.4937ZM81.859 95.4937C81.859 96.3758 82.1507 97.1081 82.734 97.6907C83.3174 98.2732 84.0444 98.5645 84.9151 98.5645C85.8555 98.5645 86.6 98.2732 87.1485 97.6907C87.7058 97.1081 87.9844 96.3758 87.9844 95.4937C87.9844 94.6033 87.6883 93.8668 87.0963 93.2842C86.5042 92.71 85.7771 92.4229 84.9151 92.4229C84.0357 92.4229 83.3043 92.71 82.721 93.2842C82.1463 93.8584 81.859 94.5949 81.859 95.4937Z" fill="#4D5259"/>
<path d="M105.66 97.5409C105.66 97.2746 105.555 97.0416 105.346 96.8418C105.146 96.6338 104.894 96.4674 104.589 96.3425C104.284 96.2094 103.949 96.0596 103.583 95.8932C103.226 95.7184 102.895 95.5395 102.59 95.3564C102.286 95.165 102.029 94.9028 101.82 94.57C101.62 94.2288 101.52 93.8376 101.52 93.3966C101.52 92.7225 101.776 92.1525 102.29 91.6864C102.821 91.2204 103.513 90.9874 104.367 90.9874C105.525 90.9874 106.395 91.2995 106.979 91.9236L106.117 93.072C105.655 92.6393 105.116 92.4229 104.497 92.4229C104.106 92.4229 103.792 92.5103 103.557 92.6851C103.331 92.8598 103.217 93.0928 103.217 93.3841C103.217 93.5339 103.248 93.6754 103.309 93.8085C103.37 93.9333 103.435 94.0374 103.505 94.1206C103.583 94.2038 103.705 94.2953 103.87 94.3952C104.045 94.4951 104.18 94.57 104.275 94.6199C104.38 94.6615 104.55 94.7322 104.785 94.8321C105.02 94.932 105.185 95.0027 105.281 95.0443C105.664 95.2108 105.999 95.3855 106.287 95.5686C106.609 95.7517 106.866 96.0138 107.057 96.355C107.257 96.6962 107.358 97.0873 107.358 97.5284C107.358 98.2607 107.066 98.8557 106.483 99.3134C105.899 99.7711 105.172 100 104.301 100C103.692 100 103.087 99.8793 102.486 99.638C101.911 99.3883 101.52 99.0513 101.311 98.6269L102.225 97.5783C102.469 97.8862 102.782 98.1276 103.165 98.3023C103.557 98.4771 103.944 98.5645 104.328 98.5645C104.728 98.5645 105.05 98.4729 105.294 98.2898C105.538 98.1068 105.66 97.8571 105.66 97.5409Z" fill="#4D5259"/>
<path d="M121.264 99.8627H119.657V91.1247H121.277L124.398 95.2066L127.376 91.1247H128.891V99.8627H127.298V93.5464L124.411 97.4285H124.176L121.264 93.5838V99.8627Z" fill="#4D5259"/>
<path d="M147.298 99.8627H141.878V91.1247H147.168V92.5602H143.484V94.7323H146.776V96.1678H143.484V98.4272H147.298V99.8627Z" fill="#4D5259"/>
<path d="M161.667 92.5602H158.703V91.1247H166.238V92.5602H163.274V99.8627H161.667V92.5602Z" fill="#4D5259"/>
<path d="M176.98 95.4937C176.98 94.2205 177.424 93.1511 178.312 92.2856C179.218 91.4201 180.359 90.9874 181.734 90.9874C183.11 90.9874 184.246 91.4035 185.143 92.2357C186.049 93.0762 186.501 94.1622 186.501 95.4937C186.501 96.8002 186.049 97.8779 185.143 98.7268C184.238 99.5756 183.101 100 181.734 100C180.359 100 179.222 99.5839 178.325 98.7517C177.429 97.9195 176.98 96.8335 176.98 95.4937ZM178.678 95.4937C178.678 96.3758 178.97 97.1081 179.553 97.6907C180.137 98.2732 180.864 98.5645 181.734 98.5645C182.675 98.5645 183.419 98.2732 183.968 97.6907C184.525 97.1081 184.803 96.3758 184.803 95.4937C184.803 94.6033 184.507 93.8668 183.915 93.2842C183.323 92.71 182.596 92.4229 181.734 92.4229C180.855 92.4229 180.123 92.71 179.54 93.2842C178.965 93.8584 178.678 94.5949 178.678 95.4937Z" fill="#4D5259"/>
<path d="M204.529 99.8627H198.809V91.1247H200.415V98.4272H204.529V99.8627Z" fill="#4D5259"/>
<path d="M215.351 95.4937C215.351 94.2205 215.795 93.1511 216.683 92.2856C217.588 91.4201 218.729 90.9874 220.105 90.9874C221.48 90.9874 222.617 91.4035 223.514 92.2357C224.419 93.0762 224.872 94.1622 224.872 95.4937C224.872 96.8002 224.419 97.8779 223.514 98.7268C222.608 99.5756 221.472 100 220.105 100C218.729 100 217.593 99.5839 216.696 98.7517C215.799 97.9195 215.351 96.8335 215.351 95.4937ZM217.049 95.4937C217.049 96.3758 217.34 97.1081 217.924 97.6907C218.507 98.2732 219.234 98.5645 220.105 98.5645C221.045 98.5645 221.79 98.2732 222.338 97.6907C222.895 97.1081 223.174 96.3758 223.174 95.4937C223.174 94.6033 222.878 93.8668 222.286 93.2842C221.694 92.71 220.967 92.4229 220.105 92.4229C219.225 92.4229 218.494 92.71 217.911 93.2842C217.336 93.8584 217.049 94.5949 217.049 95.4937Z" fill="#4D5259"/>
<path d="M243.187 96.5922H240.98V95.1567H244.689V98.7767C244.297 99.1512 243.775 99.4508 243.122 99.6754C242.469 99.8918 241.851 100 241.267 100C239.787 100 238.62 99.5922 237.767 98.7767C236.922 97.9695 236.5 96.8751 236.5 95.4937C236.5 94.2121 236.918 93.1428 237.754 92.2856C238.59 91.4201 239.691 90.9874 241.058 90.9874C242.225 90.9874 243.205 91.2828 243.997 91.8737L243.318 93.097C243.091 92.889 242.791 92.7267 242.417 92.6102C242.042 92.4853 241.655 92.4229 241.254 92.4229C240.34 92.4229 239.604 92.6975 239.047 93.2468C238.481 93.7877 238.198 94.5367 238.198 95.4937C238.198 96.4174 238.481 97.1622 239.047 97.7281C239.604 98.2857 240.353 98.5645 241.293 98.5645C241.624 98.5645 241.981 98.5062 242.364 98.3897C242.747 98.2649 243.022 98.1234 243.187 97.9653V96.5922Z" fill="#4D5259"/>
<path d="M262.263 91.1247H264L260.748 96.2177V99.8627H259.141V96.2177L255.916 91.1247H257.744L260.017 94.7822L262.263 91.1247Z" fill="#4D5259"/>
</svg>
