<svg width="8" height="12" viewBox="0 0 8 12" fill="none" xmlns="http://www.w3.org/2000/svg">
<path d="M7.91817 3.08452C7.86962 2.83947 7.79694 2.59981 7.70119 2.36907C7.60521 2.13731 7.48652 1.9156 7.3469 1.70718C7.06611 1.28677 6.70543 0.925646 6.28539 0.644307C5.86981 0.365165 5.40312 0.170992 4.91215 0.0730468C4.41703 -0.0243489 3.9077 -0.0243489 3.41258 0.0730468C2.92161 0.170957 2.45489 0.365131 2.03935 0.644307C1.61944 0.925234 1.25876 1.28591 0.977835 1.70581C0.698691 2.12138 0.50455 2.58807 0.406569 3.07903C0.309138 3.57414 0.309138 4.08347 0.406569 4.57859C0.504481 5.06955 0.698656 5.53627 0.977835 5.95181C1.34912 6.5069 1.85828 6.95598 2.45544 7.25499C2.81756 7.44028 3.20697 7.56637 3.60895 7.62851C3.68912 7.63575 3.74954 7.70462 3.74628 7.78506V8.8699C3.74628 8.95333 3.67865 9.02096 3.59522 9.02096H1.99403C1.88596 9.0214 1.78238 9.06432 1.70565 9.14043C1.55171 9.29646 1.54687 9.5457 1.69466 9.70757L1.7029 9.71443C1.74235 9.75257 1.78904 9.78248 1.84023 9.80232C1.88942 9.82278 1.94212 9.83353 1.9954 9.8339H3.59934C3.63947 9.83373 3.67799 9.84956 3.70645 9.87785C3.73258 9.90627 3.74683 9.94362 3.74628 9.98221V11.5875C3.74607 11.6412 3.75634 11.6943 3.77649 11.7441C3.79613 11.7953 3.82606 11.8421 3.86438 11.8814C3.90368 11.9197 3.95041 11.9497 4.0017 11.9693C4.1016 12.0101 4.21352 12.0101 4.31342 11.9693C4.36471 11.9496 4.41144 11.9197 4.45075 11.8814C4.48906 11.8421 4.519 11.7953 4.53863 11.7441C4.55879 11.6943 4.56905 11.6412 4.56885 11.5875V9.98221C4.56867 9.94208 4.5845 9.90356 4.61279 9.8751C4.64125 9.84681 4.67977 9.83099 4.7199 9.83116H6.32247C6.37613 9.83136 6.4293 9.8211 6.47901 9.80095C6.53031 9.78131 6.57703 9.75141 6.61634 9.71306C6.65465 9.67375 6.68459 9.62703 6.70423 9.57574C6.74505 9.47584 6.74505 9.36392 6.70423 9.26402C6.69351 9.23799 6.68016 9.21314 6.6644 9.18986L6.61085 9.13631C6.53412 9.0602 6.43054 9.01728 6.32247 9.01684H4.71715C4.67702 9.01701 4.6385 9.00118 4.61004 8.97289C4.58175 8.94443 4.56593 8.90591 4.5661 8.86578V7.85509V7.78506C4.56617 7.7487 4.57932 7.71362 4.60318 7.68619C4.6269 7.6592 4.65958 7.64166 4.69518 7.63675C5.10283 7.57914 5.49842 7.45576 5.86655 7.27147C6.69561 6.85717 7.34714 6.15741 7.70119 5.3009C7.79701 5.06972 7.86969 4.82961 7.91817 4.58408C8.0156 4.08896 8.0156 3.5796 7.91817 3.08452ZM7.11757 4.42341V4.4289C6.78102 6.07008 5.17774 7.1277 3.53655 6.79115C1.89536 6.45461 0.837731 4.85134 1.17428 3.21017C1.51082 1.569 3.11411 0.511379 4.7553 0.847921C6.17234 1.13849 7.18706 2.38919 7.17936 3.83567C7.17806 4.03311 7.15736 4.22999 7.11757 4.42341Z" fill="white"/>
</svg>
