<svg width="8" height="12" viewBox="0 0 8 12" fill="none" xmlns="http://www.w3.org/2000/svg">
<path d="M7.9167 3.08452C7.86816 2.83947 7.79548 2.59981 7.69973 2.36907C7.60374 2.13731 7.48506 1.9156 7.34543 1.70718C7.06464 1.28677 6.70396 0.925646 6.28392 0.644307C5.86835 0.365165 5.40165 0.170992 4.91069 0.0730468C4.41557 -0.0243489 3.90624 -0.0243489 3.41112 0.0730468C2.92015 0.170957 2.45342 0.365131 2.03788 0.644307C1.61798 0.925234 1.2573 1.28591 0.97637 1.70581C0.697226 2.12138 0.503085 2.58807 0.405105 3.07903C0.307673 3.57414 0.307673 4.08347 0.405105 4.57859C0.503016 5.06955 0.697192 5.53627 0.97637 5.95181C1.34766 6.5069 1.85682 6.95598 2.45397 7.25499C2.81609 7.44028 3.20551 7.56637 3.60749 7.62851C3.68765 7.63575 3.74807 7.70462 3.74481 7.78506V8.8699C3.74481 8.95333 3.67718 9.02096 3.59376 9.02096H1.99256C1.88449 9.0214 1.78091 9.06432 1.70418 9.14043C1.55025 9.29646 1.5454 9.5457 1.6932 9.70757L1.70144 9.71443C1.74088 9.75257 1.78757 9.78248 1.83876 9.80232C1.88796 9.82278 1.94066 9.83353 1.99394 9.8339H3.59788C3.63801 9.83373 3.67653 9.84956 3.70499 9.87785C3.73111 9.90627 3.74536 9.94362 3.74481 9.98221V11.5875C3.74461 11.6412 3.75487 11.6943 3.77502 11.7441C3.79466 11.7953 3.8246 11.8421 3.86291 11.8814C3.90222 11.9197 3.94894 11.9497 4.00023 11.9693C4.10014 12.0101 4.21206 12.0101 4.31196 11.9693C4.36325 11.9496 4.40997 11.9197 4.44928 11.8814C4.4876 11.8421 4.51753 11.7953 4.53717 11.7441C4.55732 11.6943 4.56759 11.6412 4.56738 11.5875V9.98221C4.56721 9.94208 4.58303 9.90356 4.61132 9.8751C4.63978 9.84681 4.6783 9.83099 4.71844 9.83116H6.321C6.37466 9.83136 6.42784 9.8211 6.47755 9.80095C6.52884 9.78131 6.57556 9.75141 6.61487 9.71306C6.65319 9.67375 6.68312 9.62703 6.70276 9.57574C6.74358 9.47584 6.74358 9.36392 6.70276 9.26402C6.69205 9.23799 6.67869 9.21314 6.66294 9.18986L6.60938 9.13631C6.53265 9.0602 6.42908 9.01728 6.321 9.01684H4.71569C4.67556 9.01701 4.63704 9.00118 4.60858 8.97289C4.58029 8.94443 4.56446 8.90591 4.56463 8.86578V7.85509V7.78506C4.5647 7.7487 4.57785 7.71362 4.60171 7.68619C4.62543 7.6592 4.65812 7.64166 4.69372 7.63675C5.10136 7.57914 5.49696 7.45576 5.86509 7.27147C6.69414 6.85717 7.34568 6.15741 7.69973 5.3009C7.79555 5.06972 7.86823 4.82961 7.9167 4.58408C8.01413 4.08896 8.01413 3.5796 7.9167 3.08452ZM7.1161 4.42341V4.4289C6.77956 6.07008 5.17627 7.1277 3.53508 6.79115C1.8939 6.45461 0.836266 4.85134 1.17281 3.21017C1.50936 1.569 3.11264 0.511379 4.75383 0.847921C6.17087 1.13849 7.18559 2.38919 7.1779 3.83567C7.1766 4.03311 7.15589 4.22999 7.1161 4.42341Z" fill="white"/>
</svg>
