<svg width="14" height="14" viewBox="0 0 14 14" fill="none" xmlns="http://www.w3.org/2000/svg">
<path d="M11.7142 0.333984H2.28711C1.21025 0.333984 0.333984 1.21025 0.333984 2.28711V11.7142C0.333984 12.7911 1.21025 13.6673 2.28711 13.6673H11.7142C12.7911 13.6673 13.6673 12.7911 13.6673 11.7142V2.28711C13.6673 1.21025 12.7911 0.333984 11.7142 0.333984ZM7.02669 10.4902C5.08811 10.4902 3.51107 8.91319 3.51107 6.97461C3.51107 5.03603 5.08811 3.45898 7.02669 3.45898C8.96527 3.45898 10.5423 5.03603 10.5423 6.97461C10.5423 8.91319 8.96527 10.4902 7.02669 10.4902ZM10.9329 4.24023C10.2868 4.24023 9.76107 3.71452 9.76107 3.06836C9.76107 2.4222 10.2868 1.89648 10.9329 1.89648C11.5791 1.89648 12.1048 2.4222 12.1048 3.06836C12.1048 3.71452 11.5791 4.24023 10.9329 4.24023Z" fill="#4D5259"/>
<path d="M10.9336 2.67773C10.718 2.67773 10.543 2.8528 10.543 3.06836C10.543 3.28392 10.718 3.45898 10.9336 3.45898C11.1491 3.45898 11.3242 3.28392 11.3242 3.06836C11.3242 2.8528 11.1491 2.67773 10.9336 2.67773Z" fill="#4D5259"/>
<path d="M7.02734 4.24023C5.51978 4.24023 4.29297 5.46704 4.29297 6.97461C4.29297 8.48218 5.51978 9.70899 7.02734 9.70899C8.53491 9.70899 9.76172 8.48218 9.76172 6.97461C9.76172 5.46704 8.53491 4.24023 7.02734 4.24023Z" fill="#4D5259"/>
</svg>
