<svg width="18" height="13" viewBox="0 0 18 13" fill="none" xmlns="http://www.w3.org/2000/svg">
<path d="M17.3327 10.8566C17.3327 11.2228 17.2299 11.5623 17.0653 11.861L11.8029 5.95962L17.0082 1.39498C17.2107 1.71706 17.3327 2.09539 17.3327 2.50423V10.8566ZM8.99937 7.03113L16.2424 0.679116C15.9451 0.51603 15.6104 0.416016 15.2494 0.416016H2.74934C2.38784 0.416016 2.05304 0.51603 1.75702 0.679116L8.99937 7.03113ZM11.0187 6.64684L9.3421 8.1181C9.24404 8.20372 9.12192 8.24648 8.99937 8.24648C8.87674 8.24648 8.75463 8.20372 8.65656 8.1181L6.97963 6.64677L1.65071 12.6236C1.97012 12.8244 2.34446 12.9447 2.7493 12.9447H15.2494C15.6542 12.9447 16.0287 12.8244 16.348 12.6236L11.0187 6.64684ZM0.990548 1.39495C0.788093 1.71703 0.666016 2.09536 0.666016 2.50423V10.8566C0.666016 11.2228 0.768308 11.5623 0.933562 11.861L6.19529 5.95862L0.990548 1.39495Z" fill="#4D5259"/>
</svg>
