<svg width="40" height="40" viewBox="0 0 40 40" fill="none" xmlns="http://www.w3.org/2000/svg">
<rect width="40" height="40" rx="8" fill="#4D5259"/>
<g clip-path="url(#clip0)">
<path d="M13.334 21.354V19.5447C13.334 19.379 13.4701 19.2434 13.6369 19.2434H16.8341L15.4421 21.6557H13.6369C13.4701 21.6557 13.334 21.5204 13.334 21.354ZM15.6115 25.0589L14.5911 25.7502C14.4538 25.8435 14.3567 25.7844 14.3758 25.6197L14.5119 24.4369C14.5309 24.2722 14.6645 24.2049 14.809 24.2872L15.5986 24.7383C15.7428 24.821 15.7488 24.9658 15.6115 25.0589ZM15.8565 24.3922L15.0668 23.9409C14.9225 23.8585 14.8716 23.6736 14.9556 23.5298L18.6121 17.1914C18.695 17.0474 18.882 16.9969 19.0263 17.0804L19.8159 17.5305C19.9604 17.614 20.01 17.7991 19.9272 17.9426L16.2708 24.2814C16.1879 24.4252 16.0008 24.4745 15.8565 24.3922ZM18.6393 21.6557L20.0313 19.2434H20.8328L21.9632 21.6557H18.6393ZM23.173 22.3755C22.8569 22.2177 21.2825 18.6013 20.8792 17.6578C20.4754 16.7142 19.2561 14.2025 19.6505 14.0071C19.931 13.8669 20.9383 15.8447 21.6934 17.0321C22.4474 18.2195 24.0243 21.2811 24.2183 21.6298C24.4113 21.9793 24.0325 22.2707 23.8219 22.3579C23.611 22.4452 23.489 22.5321 23.173 22.3755ZM24.2076 24.0378L23.7319 23.2897C23.6335 23.134 23.6846 22.9418 23.8441 22.8598L24.2975 22.6276C24.4574 22.5463 24.6575 22.6123 24.7426 22.7751L25.1178 23.4937C25.2032 23.6561 25.145 23.8648 24.9911 23.9566L24.6669 24.1497C24.513 24.2426 24.3059 24.192 24.2076 24.0378ZM25.9583 26.0001C25.8589 25.6831 25.1001 25.6622 24.7603 25.1849C24.4195 24.7092 24.7012 24.4641 24.8195 24.351C26.1974 23.5783 25.9583 26.0001 25.9583 26.0001ZM26.6673 21.354C26.6673 21.5204 26.5312 21.6556 26.3644 21.6556H24.764C24.7464 21.5626 24.7177 21.4696 24.6694 21.3824C24.6277 21.3081 24.5224 21.1079 24.3757 20.8288C24.1638 20.4261 23.8596 19.85 23.5339 19.2434H26.3642C26.5311 19.2434 26.6672 19.379 26.6672 19.5447V21.354H26.6673Z" fill="white"/>
</g>
<defs>
<clipPath id="clip0">
<rect width="13.3333" height="13.3333" fill="white" transform="translate(13.334 13.334)"/>
</clipPath>
</defs>
</svg>
