<svg width="18" height="18" viewBox="0 0 18 18" fill="none" xmlns="http://www.w3.org/2000/svg">
<path d="M12.1814 9.41487C12.149 9.46467 12.149 9.51447 12.1328 9.58087C12.1166 9.79669 12.2786 9.9959 12.4891 10.0125C12.6997 10.0291 12.894 9.86309 12.9102 9.64728C12.9102 9.59748 12.9102 9.54767 12.9264 9.46467C12.9264 9.38166 12.9264 9.33186 12.9264 9.28206C12.9264 8.80063 12.8455 8.33581 12.6997 7.88758C12.5053 7.30655 12.1652 6.79193 11.7602 6.3603C11.2581 5.84568 10.6426 5.48046 9.94615 5.28124C9.6222 5.19824 9.26586 5.14844 8.92572 5.14844C8.81234 5.14844 8.69896 5.14844 8.56938 5.16504C8.456 5.18164 8.34262 5.19824 8.22924 5.21484C8.01867 5.24804 7.8729 5.46385 7.92149 5.66307C7.95389 5.87888 8.16445 6.02829 8.35882 5.97848C8.456 5.96188 8.53699 5.94528 8.63417 5.94528C8.65037 5.94528 8.66656 5.94528 8.68276 5.94528C8.76375 5.94528 8.84473 5.92868 8.92572 5.92868C9.81657 5.92868 10.6426 6.2939 11.2257 6.90813C11.8088 7.50576 12.1652 8.31921 12.1814 9.23226V9.26546C12.1814 9.33186 12.1814 9.38166 12.1814 9.41487Z" fill="#4D5259"/>
<path d="M14.3195 9.77902C14.3033 9.99483 14.4652 10.194 14.6758 10.2106C14.8864 10.2272 15.0807 10.0612 15.0969 9.84542C15.1131 9.66281 15.1131 9.4802 15.1131 9.29759C15.1131 8.93237 15.0807 8.58375 15.0322 8.23514C14.8216 6.90706 14.1899 5.7118 13.299 4.79875C12.2786 3.7529 10.918 3.07226 9.4117 2.95605C9.24973 2.93945 9.07156 2.93945 8.90959 2.93945C8.73142 2.93945 8.55325 2.93945 8.37508 2.95605C8.19691 2.97265 8.01874 2.98926 7.84057 3.02246C7.63 3.05566 7.48423 3.27147 7.53282 3.47068C7.56521 3.68649 7.77578 3.8359 7.97015 3.7861C8.08353 3.7695 8.18071 3.7529 8.29409 3.7363C8.34268 3.7363 8.39127 3.71969 8.43987 3.71969C8.60184 3.70309 8.76381 3.70309 8.90959 3.70309C9.46029 3.70309 9.97861 3.7861 10.4807 3.93551C11.3554 4.20112 12.1328 4.68255 12.7645 5.32998C13.2828 5.86121 13.704 6.50864 13.9793 7.20588C14.2223 7.83671 14.3681 8.53395 14.3681 9.26439C14.3681 9.31419 14.3681 9.3806 14.3681 9.4304C14.3357 9.56321 14.3195 9.66281 14.3195 9.77902Z" fill="#4D5259"/>
<path d="M14.8708 3.20595C13.3321 1.62887 11.2264 0.666016 8.89402 0.666016C8.65107 0.666016 8.40811 0.682617 8.16515 0.699217C7.92219 0.715818 7.67923 0.74902 7.43627 0.798823C7.22571 0.832024 7.07993 1.04784 7.12852 1.24705C7.16092 1.46286 7.37148 1.61227 7.56585 1.56246C7.67923 1.54586 7.77641 1.52926 7.88979 1.51266C8.00317 1.49606 8.11656 1.47946 8.22994 1.47946C8.4567 1.46286 8.66726 1.44626 8.89402 1.44626C10.9997 1.44626 12.9109 2.3261 14.3039 3.73718C15.6807 5.14825 16.5391 7.10716 16.5391 9.28187C16.5391 9.39808 16.5391 9.53089 16.5391 9.64709C16.5391 9.7467 16.5229 9.84631 16.5229 9.96251C16.5067 10.1783 16.6687 10.3775 16.8793 10.3941C17.0898 10.4107 17.2842 10.2447 17.3004 10.0289C17.3166 9.7799 17.3328 9.53089 17.3328 9.29848C17.3328 6.92455 16.3934 4.76643 14.8708 3.20595Z" fill="#4D5259"/>
<path d="M16.7335 13.2654L13.8666 11.6883C12.911 11.1571 12.8786 11.5057 11.8743 12.6013C11.6314 12.867 11.1778 13.5642 10.6433 13.4314C9.52573 13.1492 7.43628 11.4725 6.756 10.7088C6.43205 10.3436 5.03909 8.60053 5.02289 8.0361C4.99049 7.17286 6.83698 6.74124 6.23768 5.09775L4.9581 2.15939C3.7595 -0.662757 0.406666 3.85268 0.68202 5.96099C1.3947 11.1571 10.287 19.5571 15.2434 16.7848C16.3448 16.1539 17.8349 13.946 16.7335 13.2654Z" fill="#4D5259"/>
</svg>
