<svg width="192" height="301" viewBox="0 0 192 301" fill="none" xmlns="http://www.w3.org/2000/svg">
<path d="M190.168 77.1158C188.951 70.9894 187.128 64.9978 184.728 59.2294C182.321 53.4352 179.345 47.8925 175.845 42.6819C168.804 32.1715 159.761 23.1433 149.23 16.1098C138.81 9.13118 127.109 4.27679 114.799 1.82814C102.385 -0.606776 89.6148 -0.606776 77.2009 1.82814C64.891 4.27593 53.1889 9.13032 42.7702 16.1098C32.2422 23.133 23.1989 32.15 16.1553 42.6476C9.1564 53.0369 4.28877 64.7043 1.83214 76.9784C-0.610714 89.3564 -0.610714 102.09 1.83214 114.468C4.28705 126.742 9.15554 138.41 16.1553 148.799C25.4645 162.676 38.2305 173.903 53.2027 181.379C62.2821 186.011 72.0457 189.163 82.1244 190.717C84.1343 190.898 85.6493 192.619 85.5675 194.63V221.752C85.5675 223.837 83.8718 225.528 81.7801 225.528H41.634C38.9243 225.539 36.3274 226.612 34.4035 228.515C30.5439 232.416 30.4225 238.647 34.1281 242.694L34.3347 242.865C35.3237 243.819 36.4943 244.566 37.7777 245.062C39.0112 245.574 40.3325 245.843 41.6684 245.852H81.8834C82.8897 245.848 83.8554 246.243 84.569 246.951C85.2241 247.661 85.5813 248.595 85.5675 249.56V289.693C85.5623 291.034 85.8197 292.364 86.325 293.606C86.8173 294.889 87.5679 296.057 88.5285 297.039C89.5141 297.998 90.6856 298.747 91.9716 299.237C94.4764 300.257 97.2825 300.257 99.7874 299.237C101.073 298.746 102.245 297.997 103.23 297.039C104.191 296.057 104.942 294.889 105.434 293.606C105.939 292.364 106.197 291.034 106.191 289.693V249.56C106.187 248.556 106.584 247.594 107.293 246.882C108.007 246.175 108.973 245.779 109.979 245.783H150.159C151.505 245.789 152.838 245.532 154.085 245.028C155.371 244.537 156.542 243.79 157.528 242.831C158.488 241.848 159.239 240.68 159.731 239.398C160.755 236.9 160.755 234.102 159.731 231.605C159.463 230.954 159.128 230.333 158.733 229.751L157.39 228.412C155.466 226.509 152.869 225.436 150.159 225.425H109.91C108.904 225.429 107.938 225.034 107.224 224.327C106.515 223.615 106.118 222.652 106.123 221.649V196.381V194.63C106.124 193.721 106.454 192.844 107.052 192.159C107.647 191.484 108.466 191.045 109.359 190.923C119.58 189.482 129.498 186.398 138.728 181.791C159.515 171.433 175.851 153.939 184.728 132.526C187.13 126.746 188.952 120.743 190.168 114.605C192.611 102.227 192.611 89.4929 190.168 77.1158ZM170.095 110.588V110.726C161.657 151.755 121.458 178.196 80.3091 169.783C39.1601 161.369 12.6425 121.287 21.0806 80.257C29.5187 39.2273 69.7174 12.7866 110.866 21.2002C146.395 28.4646 171.837 59.7323 171.644 95.8948C171.611 100.831 171.092 105.753 170.095 110.588Z" fill="#3A405B" fill-opacity="0.06"/>
</svg>
