<svg width="38" height="38" viewBox="0 0 38 38" fill="none" xmlns="http://www.w3.org/2000/svg">
<circle cx="18.8039" cy="18.8039" r="18.8039" fill="#6F7682"/>
<path d="M12 20.354V18.5447C12 18.379 12.1361 18.2434 12.3029 18.2434H15.5001L14.1081 20.6557H12.3029C12.1361 20.6557 12 20.5204 12 20.354ZM14.2775 24.0589L13.2571 24.7502C13.1199 24.8435 13.0228 24.7844 13.0418 24.6197L13.1779 23.4369C13.1969 23.2722 13.3305 23.2049 13.475 23.2872L14.2646 23.7383C14.4089 23.821 14.4148 23.9658 14.2775 24.0589ZM14.5225 23.3922L13.7329 22.9409C13.5885 22.8585 13.5376 22.6736 13.6216 22.5298L17.2781 16.1914C17.3611 16.0474 17.548 15.9969 17.6923 16.0804L18.482 16.5305C18.6264 16.614 18.676 16.7991 18.5932 16.9426L14.9368 23.2814C14.854 23.4252 14.6668 23.4745 14.5225 23.3922ZM17.3053 20.6557L18.6973 18.2434H19.4989L20.6292 20.6557H17.3053ZM21.839 21.3755C21.5229 21.2177 19.9485 17.6013 19.5452 16.6578C19.1414 15.7142 17.9221 13.2025 18.3165 13.0071C18.597 12.8669 19.6043 14.8447 20.3594 16.0321C21.1135 17.2195 22.6903 20.2811 22.8843 20.6298C23.0773 20.9793 22.6985 21.2707 22.4879 21.3579C22.277 21.4452 22.155 21.5321 21.839 21.3755ZM22.8736 23.0378L22.3979 22.2897C22.2995 22.134 22.3506 21.9418 22.5101 21.8598L22.9636 21.6276C23.1234 21.5463 23.3235 21.6123 23.4086 21.7751L23.7838 22.4937C23.8692 22.6561 23.8111 22.8648 23.6571 22.9566L23.3329 23.1497C23.179 23.2426 22.9719 23.192 22.8736 23.0378ZM24.6243 25.0001C24.5249 24.6831 23.7661 24.6622 23.4263 24.1849C23.0855 23.7092 23.3672 23.4641 23.4855 23.351C24.8634 22.5783 24.6243 25.0001 24.6243 25.0001ZM25.3333 20.354C25.3333 20.5204 25.1972 20.6556 25.0304 20.6556H23.43C23.4124 20.5626 23.3837 20.4696 23.3354 20.3824C23.2937 20.3081 23.1884 20.1079 23.0417 19.8288C22.8299 19.4261 22.5256 18.85 22.2 18.2434H25.0303C25.1971 18.2434 25.3332 18.379 25.3332 18.5447V20.354H25.3333Z" fill="white"/>
</svg>
