<svg width="38" height="38" viewBox="0 0 38 38" fill="none" xmlns="http://www.w3.org/2000/svg">
<circle cx="18.8039" cy="18.8039" r="18.8039" fill="#6F7682"/>
<path d="M21.6721 19.3494C21.6449 19.3913 21.6449 19.4331 21.6313 19.4889C21.6177 19.6702 21.7538 19.8375 21.9306 19.8515C22.1075 19.8654 22.2708 19.7259 22.2844 19.5447C22.2844 19.5028 22.2844 19.461 22.298 19.3913C22.298 19.3216 22.298 19.2797 22.298 19.2379C22.298 18.8335 22.23 18.443 22.1075 18.0665C21.9442 17.5784 21.6585 17.1462 21.3184 16.7836C20.8966 16.3513 20.3796 16.0445 19.7945 15.8772C19.5224 15.8075 19.2231 15.7656 18.9374 15.7656C18.8421 15.7656 18.7469 15.7656 18.638 15.7796C18.5428 15.7935 18.4476 15.8075 18.3523 15.8214C18.1755 15.8493 18.053 16.0306 18.0938 16.1979C18.121 16.3792 18.2979 16.5047 18.4612 16.4629C18.5428 16.4489 18.6108 16.435 18.6925 16.435C18.7061 16.435 18.7197 16.435 18.7333 16.435C18.8013 16.435 18.8693 16.421 18.9374 16.421C19.6857 16.421 20.3796 16.7278 20.8694 17.2438C21.3592 17.7458 21.6585 18.4291 21.6721 19.196V19.2239C21.6721 19.2797 21.6721 19.3216 21.6721 19.3494Z" fill="white"/>
<path d="M23.4704 19.6554C23.4568 19.8367 23.5929 20.004 23.7697 20.018C23.9466 20.0319 24.1099 19.8925 24.1235 19.7112C24.1371 19.5578 24.1371 19.4044 24.1371 19.251C24.1371 18.9442 24.1099 18.6514 24.0691 18.3585C23.8922 17.243 23.3616 16.2389 22.6132 15.472C21.7561 14.5935 20.6132 14.0217 19.3479 13.9241C19.2118 13.9102 19.0621 13.9102 18.9261 13.9102C18.7764 13.9102 18.6268 13.9102 18.4771 13.9241C18.3274 13.938 18.1778 13.952 18.0281 13.9799C17.8512 14.0078 17.7288 14.1891 17.7696 14.3564C17.7968 14.5377 17.9737 14.6632 18.137 14.6213C18.2322 14.6074 18.3138 14.5935 18.4091 14.5795C18.4499 14.5795 18.4907 14.5656 18.5315 14.5656C18.6676 14.5516 18.8036 14.5516 18.9261 14.5516C19.3887 14.5516 19.8241 14.6213 20.2458 14.7468C20.9806 14.97 21.6336 15.3744 22.1643 15.9182C22.5996 16.3644 22.9534 16.9083 23.1847 17.494C23.3888 18.0239 23.5112 18.6096 23.5112 19.2231C23.5112 19.265 23.5112 19.3207 23.5112 19.3626C23.484 19.4741 23.4704 19.5578 23.4704 19.6554Z" fill="white"/>
<path d="M23.9333 14.1336C22.6408 12.8088 20.872 12 18.9128 12C18.7087 12 18.5046 12.0139 18.3005 12.0279C18.0964 12.0418 17.8924 12.0697 17.6883 12.1116C17.5114 12.1394 17.3889 12.3207 17.4298 12.4881C17.457 12.6694 17.6338 12.7949 17.7971 12.753C17.8924 12.7391 17.974 12.7251 18.0692 12.7112C18.1645 12.6972 18.2597 12.6833 18.3549 12.6833C18.5454 12.6694 18.7223 12.6554 18.9128 12.6554C20.6815 12.6554 22.287 13.3945 23.4571 14.5798C24.6136 15.7651 25.3347 17.4106 25.3347 19.2374C25.3347 19.335 25.3347 19.4465 25.3347 19.5441C25.3347 19.6278 25.3211 19.7115 25.3211 19.8091C25.3075 19.9904 25.4435 20.1577 25.6204 20.1717C25.7973 20.1856 25.9606 20.0462 25.9742 19.8649C25.9878 19.6557 26.0014 19.4465 26.0014 19.2513C26.0014 17.2572 25.2123 15.4444 23.9333 14.1336Z" fill="white"/>
<path d="M25.4968 22.5844L23.0885 21.2597C22.2858 20.8135 22.2586 21.1063 21.415 22.0267C21.2109 22.2498 20.83 22.8355 20.381 22.7239C19.4422 22.4868 17.687 21.0784 17.1156 20.4369C16.8435 20.1302 15.6734 18.666 15.6598 18.1918C15.6326 17.4667 17.1836 17.1041 16.6802 15.7236L15.6054 13.2554C14.5985 10.8848 11.7821 14.6777 12.0134 16.4487C12.6121 20.8135 20.0817 27.8695 24.245 25.5407C25.1702 25.0108 26.4219 23.1562 25.4968 22.5844Z" fill="white"/>
</svg>
