<svg width="38" height="38" viewBox="0 0 38 38" fill="none" xmlns="http://www.w3.org/2000/svg">
<circle cx="18.8039" cy="18.8039" r="18.8039" fill="#6F7682"/>
<path d="M22.3507 13.7891H15.2601C14.4501 13.7891 13.791 14.4481 13.791 15.2581V22.3488C13.791 23.1587 14.4501 23.8178 15.2601 23.8178H22.3507C23.1607 23.8178 23.8198 23.1587 23.8198 22.3488V15.2581C23.8198 14.4481 23.1607 13.7891 22.3507 13.7891ZM18.825 21.4282C17.3669 21.4282 16.1807 20.242 16.1807 18.7839C16.1807 17.3257 17.3669 16.1396 18.825 16.1396C20.2831 16.1396 21.4693 17.3257 21.4693 18.7839C21.4693 20.242 20.2831 21.4282 18.825 21.4282ZM21.7631 16.7272C21.2771 16.7272 20.8817 16.3318 20.8817 15.8457C20.8817 15.3597 21.2771 14.9643 21.7631 14.9643C22.2491 14.9643 22.6445 15.3597 22.6445 15.8457C22.6445 16.3318 22.2491 16.7272 21.7631 16.7272Z" fill="white"/>
<path d="M21.7626 15.5527C21.6004 15.5527 21.4688 15.6844 21.4688 15.8465C21.4688 16.0087 21.6004 16.1404 21.7626 16.1404C21.9247 16.1404 22.0564 16.0087 22.0564 15.8465C22.0564 15.6844 21.9247 15.5527 21.7626 15.5527Z" fill="white"/>
<path d="M18.8243 16.7266C17.6903 16.7266 16.7676 17.6493 16.7676 18.7832C16.7676 19.9172 17.6903 20.8399 18.8243 20.8399C19.9582 20.8399 20.8809 19.9172 20.8809 18.7832C20.8809 17.6493 19.9582 16.7266 18.8243 16.7266Z" fill="white"/>
</svg>
