<svg width="184" height="83" viewBox="0 0 184 83" fill="none" xmlns="http://www.w3.org/2000/svg">
<path fill-rule="evenodd" clip-rule="evenodd" d="M25.9093 5.55117C24.7536 6.73351 24.0548 7.7815 23.786 8.50703C18.545 2.56844 9.21876 2.62218 4.13904 7.27094C2.41892 8.82949 1.18258 10.9255 0.752552 13.4782C-0.94069 23.3401 10.5626 27.1558 17.6043 31.3746C28.0594 38.2806 18.7869 49.1367 7.17612 42.6069C3.14459 40.3497 2.12327 37.0445 1.26321 32.8526C1.29009 32.342 0.86006 32.2077 0 32.4495V46.4495H1.12883C1.31697 44.891 1.96201 44.1117 3.09084 44.1386C4.54219 44.5148 6.10105 44.9179 7.68678 45.5628C13.3309 47.8468 20.2383 47.4169 24.2429 43.7624C29.6183 38.8718 28.4626 30.2729 22.1734 26.4572C17.6581 23.7163 13.0353 21.2441 8.51997 18.4763C3.03709 14.4725 4.7572 8.05022 11.4495 7.10971C17.6043 6.24983 22.0928 11.4629 24.4848 16.3804C24.8611 17.3209 25.103 17.5896 25.1836 17.1865C24.9149 13.3976 25.2911 8.93697 28.8926 6.81413C33.0585 4.34195 37.9501 7.51279 37.5201 13.4782C37.2245 17.9389 33.838 23.3669 29.7796 25.4898V25.8122H33.1123V42.1232C33.3273 47.7125 41.1754 47.5244 42.6267 41.6395C42.7611 41.1021 41.7666 41.6395 41.7666 41.6395C40.0734 44.1655 37.0094 44.1923 37.0094 40.7528C36.9826 30.8641 37.0094 25.7585 37.0094 25.7585H41.9279C41.9279 24.7105 41.9279 24.2 41.9279 24.2C38.6221 24.2 36.9826 24.2 36.9826 24.2C36.9826 21.7009 36.9826 20.438 36.9826 20.438C38.5145 17.8852 39.9121 14.4456 39.8853 11.4629C39.8584 9.12507 39.0521 6.89474 37.0632 5.22871C33.8917 2.54157 28.8658 2.56844 25.9093 5.55117Z" fill="#3A405B"/>
<path fill-rule="evenodd" clip-rule="evenodd" d="M57.1134 31.5333C57.1134 31.5333 53.8344 31.5333 47.2495 31.5333C48.5665 23.7675 56.9252 24.4124 57.1134 31.5333ZM47.2495 33.0113C57.1134 32.9038 62.0587 32.9307 62.0587 32.9307C61.548 27.4758 58.9679 24.5468 54.3182 24.3049C40.5035 24.2243 40.7991 45.1034 51.9261 46.7157C56.092 47.3338 60.5805 44.7541 61.9512 38.4393C61.5212 38.09 61.3061 37.9287 61.3061 37.9287C59.9354 41.9057 57.1402 43.4911 52.8937 42.6581C49.0234 41.0458 47.142 37.8481 47.2495 33.0113Z" fill="#3A405B"/>
<path fill-rule="evenodd" clip-rule="evenodd" d="M70.0143 26.509H77.056V40.4822C77.056 43.9755 76.0078 45.2116 73.4008 45.1847C70.7668 45.1578 69.9874 43.8949 69.9874 40.7778C70.0143 36.0215 70.0143 31.2653 70.0143 26.509ZM70.0143 6.86599C69.638 0.739301 74.6908 0.0943863 78.0236 4.90438C77.2979 6.81225 77.1635 7.91398 77.056 11.0042V24.7086C72.3526 24.7086 70.0143 24.7086 70.0143 24.7086C70.0143 12.8315 70.0143 6.86599 70.0143 6.86599ZM91.5426 2.72779C88.0486 -0.658015 84.259 -0.846115 80.2006 2.16349C78.0504 0.255615 75.5509 -0.335557 72.6751 0.389972C68.4554 1.59919 66.2515 4.66253 66.0634 9.58001V24.7624H62.0587V26.5359H66.0634V42.9812C65.8752 44.4323 64.612 45.1847 62.2469 45.1847V45.964H85.8447C85.8447 45.3997 85.8447 45.1041 85.8447 45.1041C82.8077 45.3728 81.195 44.6204 81.0607 42.7931V26.509H86.3017V24.7355H81.0607V9.66062C80.8994 4.90438 81.5982 2.32472 83.1839 1.92165C84.7965 1.51857 85.9254 1.92164 86.5435 3.13086C87.4036 5.11935 88.5324 6.08672 89.9031 6.03298C91.7845 5.68365 92.3221 4.58192 91.5426 2.72779Z" fill="#3A405B"/>
<path fill-rule="evenodd" clip-rule="evenodd" d="M99.0412 33.7113C99.095 39.005 99.095 41.6653 99.095 41.6653C96.4073 43.8418 92.6714 45.9109 91.3007 41.1816C90.0375 36.8821 95.6816 34.9205 99.0412 33.7113ZM99.0412 43.2775C95.816 46.2603 90.0644 48.9743 87.5111 43.5463C86.4629 41.3159 87.2961 38.2794 89.9569 36.4253C91.9726 35.028 95.0097 33.6038 98.9875 32.1259C99.095 30.1374 99.1487 27.2353 97.0524 26.241C94.5259 25.0587 91.7307 26.4023 91.9457 29.4656C92.2145 33.5232 87.1885 32.7439 88.1561 28.767C89.0968 24.8975 94.3647 24.1988 97.6974 24.5481C101.433 24.9243 103.046 26.7516 102.992 31.1048V39.3006C102.992 40.1873 102.858 43.0357 103.61 43.5731C104.578 44.2718 106.002 42.4714 106.594 41.8534V43.1969C105.626 44.8898 102.804 47.3889 100.681 46.5559C99.6057 46.1797 99.0681 44.9436 99.0412 43.2775Z" fill="#3A405B"/>
<path fill-rule="evenodd" clip-rule="evenodd" d="M106.594 26.8852C106.889 27.4764 107.024 27.772 107.024 27.772C107.024 27.772 107.319 27.6108 107.911 27.4495C109.201 27.1002 109.98 27.7989 110.168 29.4649C110.168 29.4649 110.168 33.6031 110.195 41.8526C110.195 43.5187 109.846 44.2173 109.201 44.7816C108.636 45.2653 107.884 45.1847 106.836 45.2384V46.1252H117.506C117.506 46.1252 117.506 45.8296 117.506 45.2384C116.35 45.319 115.436 45.1309 114.845 44.701C114.28 44.2979 114.039 43.2499 114.065 41.6108C114.065 41.6108 114.065 37.8219 114.065 30.2173C114.818 29.3843 115.759 28.605 116.834 27.9063C118.151 27.1539 119.441 26.9658 120.65 27.342C122.962 28.0676 122.908 31.3459 122.854 33.2806C122.854 33.2806 122.908 36.4515 122.854 42.82C122.854 44.5666 121.645 45.3728 119.387 45.2384V46.0714H129.95C129.95 46.0714 129.95 45.8027 129.95 45.2384C127.746 45.5071 126.698 44.4054 126.724 41.9601C126.724 41.9601 126.724 38.5743 126.751 31.7758C126.832 29.6261 126.375 27.0196 124.655 25.4879C121.161 22.344 116.431 25.8641 114.039 28.7394C114.039 28.7394 114.039 27.2614 114.039 24.3056C114.039 24.3056 113.662 24.3056 112.91 24.3056C112.937 24.2787 110.813 25.1386 106.594 26.8852Z" fill="#3A405B"/>
<path fill-rule="evenodd" clip-rule="evenodd" d="M143.173 24.7617C143.2 25.3529 143.2 25.6485 143.2 25.6485C145.485 25.6216 145.753 26.5084 144.893 28.685C144.893 28.685 143.308 32.5007 140.136 40.1322C140.136 40.1322 138.55 36.6926 135.191 29.8942C134.089 27.6907 133.444 25.6216 136.803 25.5947C136.803 25.5947 136.803 25.326 136.803 24.7886C136.803 24.7886 133.551 24.7886 127.047 24.7886V25.6753C128.498 25.8366 129.815 27.1264 130.944 29.5448C130.944 29.5448 133.417 34.6235 138.362 44.8078C136.857 49.4028 135.271 51.7675 133.605 51.9288C133.229 51.7407 132.369 51.3376 130.971 51.0689C129.143 50.7195 127.853 51.5794 127.988 53.2992C128.176 55.5295 130.084 56.3357 132.826 55.5027C134.922 54.8577 136.535 53.2186 137.771 50.9614C137.771 50.9614 140.915 43.3568 147.178 28.1475C147.769 26.5621 148.71 25.7022 150 25.5947C150 25.5947 150 25.326 150 24.7617C150.027 24.7617 147.742 24.7617 143.173 24.7617Z" fill="#3A405B"/>
<path d="M73.0526 71H71.905V64.469C72.017 64.469 72.3124 64.4659 72.7914 64.4597C73.2765 64.4534 73.6 64.4503 73.7617 64.4503C74.222 64.4503 74.62 64.5094 74.9559 64.6276C75.298 64.7396 75.5624 64.8982 75.749 65.1034C75.9356 65.3025 76.0724 65.5233 76.1595 65.7659C76.2466 66.0022 76.2901 66.2635 76.2901 66.5496C76.2901 67.1405 76.0786 67.6412 75.6557 68.0517C75.2327 68.4622 74.648 68.6675 73.9016 68.6675C73.5222 68.6675 73.2392 68.6582 73.0526 68.6395V71ZM73.8736 65.5233C73.7368 65.5233 73.4631 65.5295 73.0526 65.5419V67.5479C73.3512 67.579 73.6217 67.5945 73.8643 67.5945C74.2251 67.5945 74.5174 67.5075 74.7413 67.3333C74.9653 67.1529 75.0772 66.8886 75.0772 66.5403C75.0772 65.8623 74.676 65.5233 73.8736 65.5233ZM84.4691 67.7345C84.4691 66.7766 84.7863 65.9773 85.4208 65.3367C86.0614 64.6898 86.8763 64.3664 87.8652 64.3664C88.848 64.3664 89.6597 64.6774 90.3004 65.2994C90.9472 65.9214 91.2707 66.7331 91.2707 67.7345C91.2707 68.711 90.9472 69.5165 90.3004 70.151C89.6535 70.7854 88.8418 71.1026 87.8652 71.1026C86.8825 71.1026 86.0708 70.7916 85.4301 70.1696C84.7894 69.5476 84.4691 68.7359 84.4691 67.7345ZM85.682 67.7345C85.682 68.3876 85.8904 68.935 86.3071 69.3766C86.7301 69.812 87.2495 70.0297 87.8652 70.0297C88.537 70.0297 89.0688 69.812 89.4607 69.3766C89.8587 68.9412 90.0578 68.3938 90.0578 67.7345C90.0578 67.0627 89.8463 66.5123 89.4233 66.0831C89.0066 65.6539 88.4872 65.4393 87.8652 65.4393C87.237 65.4393 86.7145 65.6539 86.2978 66.0831C85.8873 66.5123 85.682 67.0627 85.682 67.7345ZM100.063 71V64.469H100.184C100.308 64.469 100.598 64.4659 101.052 64.4597C101.506 64.4472 101.817 64.441 101.985 64.441C102.619 64.441 103.176 64.5281 103.655 64.7022C104.134 64.8702 104.516 65.1065 104.802 65.4113C105.088 65.7161 105.3 66.0582 105.437 66.4376C105.58 66.8108 105.651 67.2213 105.651 67.6692C105.651 68.6395 105.325 69.4419 104.672 70.0763C104.025 70.7045 103.104 71.0187 101.91 71.0187C101.798 71.0187 101.537 71.0156 101.126 71.0093C100.722 71.0031 100.411 71 100.193 71H100.063ZM101.966 65.514C101.723 65.514 101.472 65.5233 101.21 65.5419V69.927C101.422 69.9395 101.667 69.9457 101.947 69.9457C102.725 69.9457 103.334 69.7404 103.776 69.3299C104.218 68.9194 104.438 68.3658 104.438 67.6692C104.438 67.0036 104.218 66.4781 103.776 66.0924C103.341 65.7068 102.737 65.514 101.966 65.514ZM113.957 67.7345C113.957 66.7766 114.274 65.9773 114.909 65.3367C115.549 64.6898 116.364 64.3664 117.353 64.3664C118.336 64.3664 119.148 64.6774 119.788 65.2994C120.435 65.9214 120.759 66.7331 120.759 67.7345C120.759 68.711 120.435 69.5165 119.788 70.151C119.141 70.7854 118.33 71.1026 117.353 71.1026C116.37 71.1026 115.559 70.7916 114.918 70.1696C114.277 69.5476 113.957 68.7359 113.957 67.7345ZM115.17 67.7345C115.17 68.3876 115.378 68.935 115.795 69.3766C116.218 69.812 116.737 70.0297 117.353 70.0297C118.025 70.0297 118.557 69.812 118.949 69.3766C119.347 68.9412 119.546 68.3938 119.546 67.7345C119.546 67.0627 119.334 66.5123 118.911 66.0831C118.495 65.6539 117.975 65.4393 117.353 65.4393C116.725 65.4393 116.202 65.6539 115.786 66.0831C115.375 66.5123 115.17 67.0627 115.17 67.7345ZM129.551 71V64.469H130.698V69.927H133.637V71H129.551ZM141.368 67.7345C141.368 66.7766 141.685 65.9773 142.319 65.3367C142.96 64.6898 143.775 64.3664 144.764 64.3664C145.746 64.3664 146.558 64.6774 147.199 65.2994C147.846 65.9214 148.169 66.7331 148.169 67.7345C148.169 68.711 147.846 69.5165 147.199 70.151C146.552 70.7854 145.74 71.1026 144.764 71.1026C143.781 71.1026 142.969 70.7916 142.329 70.1696C141.688 69.5476 141.368 68.7359 141.368 67.7345ZM142.58 67.7345C142.58 68.3876 142.789 68.935 143.206 69.3766C143.629 69.812 144.148 70.0297 144.764 70.0297C145.435 70.0297 145.967 69.812 146.359 69.3766C146.757 68.9412 146.956 68.3938 146.956 67.7345C146.956 67.0627 146.745 66.5123 146.322 66.0831C145.905 65.6539 145.386 65.4393 144.764 65.4393C144.136 65.4393 143.613 65.6539 143.196 66.0831C142.786 66.5123 142.58 67.0627 142.58 67.7345ZM159.676 68.5555V67.4826H162.326V70.1883C162.046 70.4682 161.673 70.6921 161.206 70.86C160.746 71.0218 160.304 71.1026 159.881 71.1026C158.824 71.1026 157.991 70.7978 157.381 70.1883C156.778 69.5787 156.476 68.7608 156.476 67.7345C156.476 66.7766 156.775 65.9773 157.372 65.3367C157.969 64.6898 158.756 64.3664 159.732 64.3664C160.572 64.3664 161.272 64.5872 161.831 65.0288L161.346 65.9431C161.185 65.7876 160.97 65.6663 160.703 65.5793C160.435 65.486 160.158 65.4393 159.872 65.4393C159.225 65.4393 158.7 65.6446 158.295 66.0551C157.891 66.4594 157.689 67.0192 157.689 67.7345C157.689 68.4249 157.891 68.9816 158.295 69.4046C158.7 69.8213 159.235 70.0297 159.9 70.0297C160.149 70.0297 160.404 69.9861 160.665 69.8991C160.933 69.8058 161.129 69.7 161.253 69.5818V68.5555H159.676ZM176.121 64.469L173.798 68.2756V71H172.65V68.2756L170.346 64.469H171.652L173.275 67.2027L174.88 64.469H176.121Z" fill="#4F79CA"/>
<line x1="62.7408" y1="83" x2="62.7408" y2="53" stroke="#4F79CA" stroke-width="0.518334"/>
</svg>
