<svg width="12" height="12" viewBox="0 0 12 12" fill="none" xmlns="http://www.w3.org/2000/svg">
<path d="M11.9935 0.435544C11.988 0.392454 11.9785 0.35095 11.9628 0.31201C11.9623 0.311033 11.9623 0.30969 11.962 0.30847C11.962 0.308226 11.9618 0.307982 11.9615 0.307737C11.9442 0.266722 11.9205 0.229491 11.8938 0.194945C11.8872 0.186766 11.8807 0.17871 11.8738 0.171019C11.8452 0.138793 11.8142 0.109008 11.7782 0.0847163C11.7772 0.0839839 11.776 0.0837397 11.775 0.0830073C11.7402 0.0600582 11.7018 0.0427244 11.6615 0.0290526C11.6515 0.0255125 11.6417 0.0224608 11.6315 0.0197753C11.5892 0.00830073 11.5458 0 11.5 0H8C7.724 0 7.5 0.223998 7.5 0.499997C7.5 0.775996 7.724 0.999994 8 0.999994H10.2927L7.30847 3.98423C6.5127 3.34776 5.53296 2.99998 4.5 2.99998C2.0188 2.99998 0 5.01877 0 7.49995C0 9.98114 2.0188 11.9999 4.5 11.9999C6.9812 11.9999 9 9.98114 9 7.49995C9 6.46749 8.65247 5.488 8.0155 4.6915L11 1.70702V3.99998C11 4.27597 11.224 4.49997 11.5 4.49997C11.776 4.49997 12 4.27597 12 3.99998V0.499997C12 0.489499 11.9976 0.479489 11.9969 0.469235C11.9962 0.457761 11.995 0.446775 11.9935 0.435544ZM4.5 10.9999C2.56995 10.9999 1 9.43 1 7.49995C1 5.56991 2.56995 3.99998 4.5 3.99998C5.43445 3.99998 6.31421 4.36374 6.97571 5.02292C7.63623 5.68576 8 6.56551 8 7.49995C8 9.43 6.43005 10.9999 4.5 10.9999Z" fill="white"/>
</svg>
