<svg width="226" height="374" viewBox="0 0 226 374" fill="none" xmlns="http://www.w3.org/2000/svg">
<path d="M106.498 370.573C107.358 371.235 108.262 371.798 109.23 372.206C109.256 372.214 109.279 372.238 109.305 372.255C109.31 372.259 109.318 372.259 109.327 372.259C110.36 372.675 111.437 372.912 112.521 373.047C112.782 373.075 113.039 373.102 113.298 373.114C114.372 373.176 115.447 373.152 116.513 372.942C116.543 372.937 116.569 372.92 116.599 372.916C117.619 372.704 118.604 372.328 119.557 371.855C119.796 371.74 120.022 371.621 120.251 371.486C121.199 370.94 122.112 370.316 122.919 369.505L184.629 307.47C189.495 302.578 189.474 294.659 184.583 289.793C179.691 284.926 171.771 284.947 166.905 289.839L126.481 330.476L126.205 224.966C151.516 222.084 174.954 210.851 193.167 192.542C236.914 148.565 236.727 77.19 192.75 33.4434C148.773 -10.3033 77.3979 -10.1159 33.651 33.8611C-10.096 77.8381 -9.90903 149.213 34.0677 192.96C52.3672 211.164 75.8552 222.274 101.203 225.028L101.479 330.545L60.8389 290.118C55.947 285.251 48.0275 285.272 43.1612 290.164C38.2949 295.056 38.3157 302.975 43.2075 307.842L105.241 369.551C105.427 369.736 105.648 369.869 105.84 370.039C106.057 370.229 106.273 370.401 106.498 370.573ZM51.3749 51.4923C85.4044 17.2839 140.91 17.1382 175.119 51.1674C209.327 85.1967 209.472 140.703 175.443 174.911C158.967 191.473 137.008 200.653 113.662 200.755C90.2678 200.775 68.2612 191.711 51.6991 175.236C17.4908 141.207 17.3455 85.7007 51.3749 51.4923V51.4923Z" fill="#3A405B" fill-opacity="0.06"/>
</svg>
