<svg width="12" height="12" viewBox="0 0 12 12" fill="none" xmlns="http://www.w3.org/2000/svg">
<path d="M11.2237 0.77673C10.1907 -0.25891 8.5109 -0.25891 7.47794 0.77673L0.610287 7.64264C0.556594 7.69634 0.523355 7.76538 0.513128 7.83954L0.00431806 11.6088C-0.0110229 11.7162 0.0273295 11.8236 0.101478 11.8977C0.165399 11.9616 0.254888 12 0.344377 12C0.359718 12 0.375059 12 0.3904 11.9974L2.66087 11.6906C2.85007 11.665 2.98303 11.4911 2.95746 11.3019C2.93189 11.1127 2.75803 10.9797 2.56882 11.0053L0.748356 11.2508L1.10376 8.62202L3.87025 11.3888C3.93417 11.4528 4.02366 11.4911 4.11315 11.4911C4.20264 11.4911 4.29213 11.4553 4.35605 11.3888L11.2237 4.52293C11.7248 4.02174 12.001 3.35688 12.001 2.64855C12.001 1.94023 11.7248 1.27537 11.2237 0.77673ZM7.6109 1.62058L8.76403 2.77385L2.49723 9.04139L1.3441 7.88812L7.6109 1.62058ZM4.11571 10.6575L2.98814 9.52981L9.25494 3.26227L10.3825 4.38996L4.11571 10.6575ZM10.8632 3.89644L8.10436 1.13729C8.45465 0.84833 8.89187 0.689787 9.3521 0.689787C9.87625 0.689787 10.3672 0.894358 10.7379 1.26259C11.1086 1.63081 11.3106 2.12434 11.3106 2.64855C11.3106 3.1114 11.1521 3.54611 10.8632 3.89644Z" fill="white"/>
</svg>
