<svg width="203" height="117" viewBox="0 0 203 117" fill="none" xmlns="http://www.w3.org/2000/svg">
<path fill-rule="evenodd" clip-rule="evenodd" d="M35.0639 7.45777C33.4999 9.05787 32.5541 10.4761 32.1904 11.458C25.0976 3.42114 12.4761 3.49387 5.6015 9.78519C3.2736 11.8944 1.60043 14.731 1.01845 18.1857C-1.27307 31.5321 14.2947 36.6961 23.8245 42.4055C37.9738 51.7516 25.425 66.4435 9.71169 57.6065C4.25568 54.5518 2.87349 50.0788 1.70955 44.4057C1.74592 43.7147 1.16395 43.5329 0 43.8602V62.8069H1.52768C1.78229 60.6976 2.65525 59.643 4.18294 59.6794C6.1471 60.1885 8.25675 60.734 10.4028 61.6068C18.0412 64.6979 27.3891 64.1161 32.8088 59.1703C40.0834 52.5517 38.5194 40.9145 30.008 35.7505C23.8973 32.0412 17.6411 28.6955 11.5304 24.9498C4.11019 19.5313 6.43808 10.8398 15.495 9.567C23.8245 8.40328 29.8989 15.4583 33.1361 22.1133C33.6454 23.3861 33.9727 23.7498 34.0818 23.2043C33.7181 18.0766 34.2273 12.0399 39.1014 9.16697C44.7392 5.82129 51.3592 10.1125 50.7772 18.1857C50.3771 24.2225 45.7941 31.5684 40.3017 34.4414V34.8778H44.812V56.9519C45.103 64.5161 55.724 64.2615 57.6881 56.2974C57.87 55.57 56.5242 56.2974 56.5242 56.2974C54.2327 59.7158 50.0861 59.7521 50.0861 55.0973C50.0497 41.7146 50.0861 34.805 50.0861 34.805H56.7424C56.7424 33.3867 56.7424 32.6958 56.7424 32.6958C52.2685 32.6958 50.0497 32.6958 50.0497 32.6958C50.0497 29.3138 50.0497 27.6046 50.0497 27.6046C52.123 24.1498 54.0144 19.4949 53.9781 15.4583C53.9417 12.2944 52.8505 9.27607 50.1589 7.02137C45.8668 3.38477 39.065 3.42114 35.0639 7.45777Z" fill="#4D5259"/>
<path fill-rule="evenodd" clip-rule="evenodd" d="M77.2927 42.6226C77.2927 42.6226 72.8552 42.6226 63.9437 42.6226C65.726 32.1128 77.0381 32.9856 77.2927 42.6226ZM63.9437 44.6227C77.2927 44.4773 83.9854 44.5137 83.9854 44.5137C83.2943 37.1313 79.8025 33.1675 73.5099 32.8402C54.814 32.7311 55.2141 60.9875 70.2726 63.1694C75.9105 64.0058 81.9849 60.5147 83.8399 51.9687C83.2579 51.4959 82.967 51.2777 82.967 51.2777C81.1119 56.6599 77.3291 58.8055 71.5821 57.6782C66.3443 55.4962 63.7982 51.1686 63.9437 44.6227Z" fill="#4D5259"/>
<path fill-rule="evenodd" clip-rule="evenodd" d="M94.7528 35.8227H104.283V54.733C104.283 59.4606 102.864 61.1334 99.3359 61.0971C95.7713 61.0607 94.7165 59.3515 94.7165 55.133C94.7528 48.6963 94.7528 42.2595 94.7528 35.8227ZM94.7528 9.23911C94.2436 0.947656 101.082 0.0748715 105.592 6.58439C104.61 9.16638 104.428 10.6574 104.283 14.8395V33.3862C97.9173 33.3862 94.7528 33.3862 94.7528 33.3862C94.7528 17.3124 94.7528 9.23911 94.7528 9.23911ZM123.888 3.63874C119.159 -0.943378 114.031 -1.19794 108.538 2.87506C105.628 0.293067 102.246 -0.506985 98.3538 0.474898C92.6432 2.11137 89.6606 6.2571 89.406 12.9121V33.4589H83.9863V35.859H89.406V58.1151C89.1513 60.0788 87.4418 61.0971 84.2409 61.0971V62.1517H116.177C116.177 61.388 116.177 60.988 116.177 60.988C112.067 61.3516 109.884 60.3334 109.702 57.8605V35.8227H116.795V33.4225H109.702V13.0212C109.484 6.58439 110.43 3.09325 112.576 2.54776C114.758 2.00227 116.286 2.54776 117.122 4.18423C118.286 6.87532 119.814 8.1845 121.669 8.11176C124.215 7.63901 124.943 6.148 123.888 3.63874Z" fill="#4D5259"/>
<path fill-rule="evenodd" clip-rule="evenodd" d="M134.036 45.5688C134.109 52.7329 134.109 56.3331 134.109 56.3331C130.472 59.2788 125.416 62.079 123.561 55.6786C121.851 49.86 129.49 47.2053 134.036 45.5688ZM134.036 58.5151C129.672 62.5517 121.888 66.2247 118.432 58.8788C117.014 55.8604 118.141 51.751 121.742 49.2418C124.47 47.3507 128.58 45.4233 133.964 43.4232C134.109 40.7321 134.182 36.8046 131.345 35.459C127.926 33.8589 124.143 35.6772 124.434 39.823C124.798 45.3142 117.996 44.2596 119.305 38.8775C120.578 33.6407 127.707 32.6952 132.218 33.168C137.274 33.6771 139.456 36.15 139.383 42.0413V53.1329C139.383 54.333 139.201 58.1878 140.22 58.9151C141.529 59.8607 143.457 57.4241 144.257 56.5877V58.406C142.948 60.6971 139.129 64.0791 136.255 62.9518C134.8 62.4426 134.073 60.7698 134.036 58.5151Z" fill="#4D5259"/>
<path fill-rule="evenodd" clip-rule="evenodd" d="M144.256 36.3325C144.656 37.1326 144.838 37.5326 144.838 37.5326C144.838 37.5326 145.238 37.3144 146.038 37.0962C147.784 36.6235 148.839 37.569 149.094 39.8237C149.094 39.8237 149.094 45.4241 149.13 56.5884C149.13 58.8431 148.657 59.7886 147.784 60.5523C147.02 61.2069 146.002 61.0978 144.583 61.1705V62.3706H159.023C159.023 62.3706 159.023 61.9706 159.023 61.1705C157.459 61.2796 156.223 61.0251 155.422 60.4432C154.659 59.8977 154.331 58.4795 154.368 56.2611C154.368 56.2611 154.368 51.1335 154.368 40.8419C155.386 39.7146 156.659 38.66 158.114 37.7145C159.896 36.6962 161.642 36.4416 163.279 36.9508C166.407 37.9326 166.334 42.3693 166.262 44.9877C166.262 44.9877 166.334 49.2788 166.262 57.8976C166.262 60.2614 164.625 61.3524 161.57 61.1705V62.2979H175.864C175.864 62.2979 175.864 61.9342 175.864 61.1705C172.882 61.5342 171.463 60.0432 171.5 56.7339C171.5 56.7339 171.5 52.1518 171.536 42.9512C171.645 40.0419 171.027 36.5144 168.699 34.4415C163.97 30.1867 157.569 34.9506 154.331 38.8418C154.331 38.8418 154.331 36.8417 154.331 32.8414C154.331 32.8414 153.822 32.8414 152.804 32.8414C152.84 32.805 149.966 33.9688 144.256 36.3325Z" fill="#4D5259"/>
<path fill-rule="evenodd" clip-rule="evenodd" d="M193.762 33.459C193.798 34.259 193.798 34.6591 193.798 34.6591C196.89 34.6227 197.253 35.8228 196.089 38.7684C196.089 38.7684 193.943 43.9324 189.651 54.2604C189.651 54.2604 187.505 49.6055 182.959 40.4049C181.467 37.4229 180.594 34.6227 185.141 34.5863C185.141 34.5863 185.141 34.2227 185.141 33.4953C185.141 33.4953 180.74 33.4953 171.938 33.4953V34.6954C173.902 34.9136 175.684 36.6592 177.212 39.9321C177.212 39.9321 180.558 46.8053 187.251 60.588C185.214 66.8066 183.068 70.0069 180.813 70.225C180.303 69.9705 179.139 69.425 177.248 69.0613C174.775 68.5886 173.029 69.7523 173.211 72.0797C173.465 75.0981 176.048 76.1891 179.758 75.0617C182.595 74.1889 184.777 71.9706 186.45 68.9159C186.45 68.9159 190.706 58.6243 199.181 38.0411C199.981 35.8955 201.254 34.7318 203 34.5863C203 34.5863 203 34.2227 203 33.459C203.037 33.459 199.945 33.459 193.762 33.459Z" fill="#4D5259"/>
<path d="M65.6252 91.3975V82.5968C66.4501 82.5547 67.3003 82.5336 68.1757 82.5336C69.1775 82.5336 69.9098 82.7357 70.3728 83.1397C70.8442 83.5354 71.0799 84.0615 71.0799 84.718C71.0799 85.6608 70.659 86.33 69.8172 86.7257V86.7509C70.2802 86.8688 70.6548 87.1003 70.941 87.4454C71.2272 87.7905 71.3703 88.2451 71.3703 88.8091C71.3703 89.6845 71.0672 90.3453 70.4612 90.7915C69.8635 91.2376 69.0722 91.4607 68.0874 91.4607C67.0183 91.4607 66.1976 91.4396 65.6252 91.3975ZM68.2768 87.6095H67.1782V89.9455C67.5318 89.9876 67.8727 90.0086 68.201 90.0086C69.2785 90.0086 69.8172 89.5835 69.8172 88.7333C69.8172 88.3629 69.6825 88.0851 69.4132 87.9C69.1438 87.7063 68.765 87.6095 68.2768 87.6095ZM68.1505 83.9857C67.7801 83.9857 67.456 83.9983 67.1782 84.0236V86.2585H68.2263C68.6135 86.2585 68.9291 86.1617 69.1733 85.9681C69.4174 85.7661 69.5394 85.4714 69.5394 85.0842C69.5394 84.7307 69.4132 84.4613 69.1606 84.2761C68.9165 84.0825 68.5798 83.9857 68.1505 83.9857ZM83.5195 91.4102V82.5715H88.6332V84.0236H85.0725V86.2206H88.2544V87.6727H85.0725V89.9581H88.7595V91.4102H83.5195ZM99.7471 91.4102L103.485 82.5463H104.848L108.586 91.4102H106.932L106.01 89.15H102.235L101.313 91.4102H99.7471ZM104.129 84.5539L102.828 87.6979H105.416L104.129 84.5539ZM127.158 82.5715V87.7484C127.158 89.0195 126.825 89.9707 126.16 90.6021C125.495 91.2334 124.657 91.549 123.647 91.549C122.511 91.549 121.598 91.2165 120.907 90.5515C120.226 89.8781 119.885 88.9143 119.885 87.6601V82.5715H121.438V87.3318C121.438 88.1904 121.619 88.868 121.981 89.3646C122.351 89.8529 122.907 90.097 123.647 90.097C124.961 90.097 125.617 89.2089 125.617 87.4328V82.5715H127.158ZM138.496 84.0236V82.5715H145.782V84.0236H142.915V91.4102H141.362V84.0236H138.496ZM163.884 82.5715L160.74 87.7232V91.4102H159.187V87.7232L156.068 82.5715H157.836L160.033 86.2711L162.205 82.5715H163.884Z" fill="#4D5259"/>
<line x1="47.9168" y1="105.828" x2="47.9168" y2="70.7542" stroke="#4D5259" stroke-width="0.701479"/>
</svg>
